<?xml version="1.0" standalone="no"?>
<!DOCTYPE svg PUBLIC "-//W3C//DTD SVG 1.1//EN" "http://www.w3.org/Graphics/SVG/1.1/DTD/svg11.dtd" >
<svg xmlns="http://www.w3.org/2000/svg" xmlns:xlink="http://www.w3.org/1999/xlink" version="1.1">
<metadata>
Created by FontForge 20170924 at Wed Mar  2 03:51:25 2016
 By www-data
Copyright (c) 2015 by Galin Kastelov. All rights reserved.
</metadata>
<defs>
<font id="NolanNext-Bold" horiz-adv-x="774" >
  <font-face 
    font-family="Nolan Next"
    font-weight="700"
    font-stretch="normal"
    units-per-em="1000"
    panose-1="0 0 8 0 0 0 0 0 0 0"
    ascent="800"
    descent="-200"
    x-height="519"
    cap-height="706"
    bbox="-371 -250 1123 1110.75"
    underline-thickness="50"
    underline-position="-100"
    unicode-range="U+001D-E020"
  />
<missing-glyph horiz-adv-x="114" 
 />
    <glyph glyph-name="f_f.liga" unicode="ff" horiz-adv-x="660" 
d="M209 0h-119v418h-62v97h62q-2 94 30 141q45 66 147 66q40 0 90 -10l-20 -89q-27 5 -48 5q-44 0 -64 -27q-11 -15 -14 -40q-1 -10 -2 -23v-23h166q0 96 31 141q45 66 146 66q56 0 117 -16l-21 -89q-44 11 -73 11q-44 0 -64 -27q-18 -24 -16 -86h137v-97h-137v-418h-120
v418h-166v-418z" />
    <glyph glyph-name="f_f_i.liga" unicode="ffi" horiz-adv-x="830" 
d="M209 0h-119v418h-62v97h62q-2 94 30 141q45 66 147 66q40 0 90 -10l-20 -89q-27 5 -48 5q-44 0 -64 -27q-11 -15 -14 -40q-1 -10 -2 -23v-23h161q-2 91 30 139q48 69 164 69q80 0 151 -28l-25 -86q-55 19 -109 19q-53 0 -74 -26q-12 -16 -16 -42q-1 -10 -2 -23v-22h280
v-515h-119v418h-161v-418h-119v418h-161v-418z" />
    <glyph glyph-name="f_f_l.liga" unicode="ffl" horiz-adv-x="871" 
d="M209 0h-119v418h-62v97h62q-2 94 30 141q45 66 147 66q40 0 90 -10l-20 -89q-27 5 -48 5q-44 0 -64 -27q-11 -15 -14 -40q-1 -10 -2 -23v-23h166q0 96 31 141q45 66 146 66q54 0 110 -14l-21 -89q-40 9 -66 9q-44 0 -64 -27q-18 -24 -16 -86h137v-97h-137v-418h-120v418
h-166v-418zM690 706h119v-706h-119v706z" />
    <glyph glyph-name=".notdef" horiz-adv-x="114" 
 />
    <glyph glyph-name="A" unicode="A" horiz-adv-x="690" 
d="M472 180h-258l-64 -180h-133l262 706h134l260 -706h-139zM443 288l-99 293l-100 -293h199z" />
    <glyph glyph-name="Aacute" unicode="&#xc1;" horiz-adv-x="690" 
d="M338 942h141l-85 -151h-99zM472 180h-258l-64 -180h-133l262 706h134l260 -706h-139zM443 288l-99 293l-100 -293h199z" />
    <glyph glyph-name="Abreve" unicode="&#x102;" horiz-adv-x="690" 
d="M237 823q-46 44 -46 116h98q2 -83 56 -83q56 0 58 83h98q0 -72 -46 -116q-44 -41 -110 -41q-65 0 -108 41zM472 180h-258l-64 -180h-133l262 706h134l260 -706h-139zM443 288l-99 293l-100 -293h199z" />
    <glyph glyph-name="Acircumflex" unicode="&#xc2;" horiz-adv-x="690" 
d="M285 914h120l108 -152h-114l-54 85l-54 -85h-114zM472 180h-258l-64 -180h-133l262 706h134l260 -706h-139zM443 288l-99 293l-100 -293h199z" />
    <glyph glyph-name="Adieresis" unicode="&#xc4;" horiz-adv-x="690" 
d="M194 897h112v-115h-112v115zM382 897h112v-115h-112v115zM472 180h-258l-64 -180h-133l262 706h134l260 -706h-139zM443 288l-99 293l-100 -293h199z" />
    <glyph glyph-name="Agrave" unicode="&#xc0;" horiz-adv-x="690" 
d="M210 942h141l47 -151h-98zM472 180h-258l-64 -180h-133l262 706h134l260 -706h-139zM443 288l-99 293l-100 -293h199z" />
    <glyph glyph-name="Amacron" unicode="&#x100;" horiz-adv-x="690" 
d="M194 894h301v-95h-301v95zM472 180h-258l-64 -180h-133l262 706h134l260 -706h-139zM443 288l-99 293l-100 -293h199z" />
    <glyph glyph-name="Aogonek" unicode="&#x104;" horiz-adv-x="788" 
d="M766 -209q-41 -31 -96 -31q-54 0 -87 32q-31 31 -31 77q0 76 90 131h-26l-70 177h-315l-71 -177h-142l304 706h140l301 -706q-113 -36 -113 -99q0 -45 49 -45q19 0 37 8zM503 288l-114 287l-115 -287h229z" />
    <glyph glyph-name="Aring" unicode="&#xc5;" horiz-adv-x="690" 
d="M270 795q-32 28 -32 72t32 72q31 27 75 27t75 -27q32 -28 32 -72t-32 -72q-31 -26 -75 -26t-75 26zM381 867q0 42 -36 42t-36 -42q0 -41 36 -41t36 41zM472 180h-258l-64 -180h-133l262 706h134l260 -706h-139zM443 288l-99 293l-100 -293h199z" />
    <glyph glyph-name="Atilde" unicode="&#xc3;" horiz-adv-x="690" 
d="M349 818q-39 26 -56 26q-30 0 -38 -49h-89q13 138 111 138q20 0 39 -8q13 -6 32 -18q40 -27 57 -27q30 0 38 49h90q-14 -138 -113 -138q-31 0 -71 27zM472 180h-258l-64 -180h-133l262 706h134l260 -706h-139zM443 288l-99 293l-100 -293h199z" />
    <glyph glyph-name="AE" unicode="&#xc6;" horiz-adv-x="1020" 
d="M605 595v-176h320v-111h-320v-197h358v-111h-482v187h-221l-103 -187h-142l411 706h534v-111h-355zM481 295v300l-166 -300h166z" />
    <glyph glyph-name="B" unicode="B" horiz-adv-x="684" 
d="M406 706q103 0 157 -48q54 -47 54 -135q0 -117 -90 -154q120 -39 120 -179q0 -190 -235 -190h-331v706h325zM204 597v-180h196q94 0 94 89q0 91 -96 91h-194zM404 313h-200v-203h204q111 0 111 97q0 106 -115 106z" />
    <glyph glyph-name="C" unicode="C" horiz-adv-x="692" 
d="M153 82q-98 103 -98 271q0 169 100 272q93 97 234 97q160 0 265 -120l-69 -78q-86 86 -184 86q-93 0 -154 -70q-63 -71 -63 -187q0 -115 63 -187q60 -70 153 -70q104 0 184 85l69 -77q-107 -120 -266 -120q-140 0 -234 98z" />
    <glyph glyph-name="Cacute" unicode="&#x106;" horiz-adv-x="692" 
d="M364 942h141l-85 -151h-99zM153 82q-98 103 -98 271q0 169 100 272q93 97 234 97q160 0 265 -120l-69 -78q-86 86 -184 86q-93 0 -154 -70q-63 -71 -63 -187q0 -115 63 -187q60 -70 153 -70q104 0 184 85l69 -77q-107 -120 -266 -120q-140 0 -234 98z" />
    <glyph glyph-name="Ccaron" unicode="&#x10c;" horiz-adv-x="692" 
d="M213 934h118l52 -91l53 91h117l-112 -158h-116zM153 82q-98 103 -98 271q0 169 100 272q93 97 234 97q160 0 265 -120l-69 -78q-86 86 -184 86q-93 0 -154 -70q-63 -71 -63 -187q0 -115 63 -187q60 -70 153 -70q104 0 184 85l69 -77q-107 -120 -266 -120q-140 0 -234 98z
" />
    <glyph glyph-name="Ccedilla" unicode="&#xc7;" horiz-adv-x="692" 
d="M584 181l69 -77q-97 -108 -240 -119l-11 -44q33 0 54 -25q21 -26 21 -63q0 -39 -27 -67q-29 -31 -76 -31q-49 0 -88 32l16 50q18 -15 47 -15q35 0 35 37q0 15 -13 26q-14 10 -32 10h-13q-8 -1 -10 -1l-2 27l17 68q-120 19 -196 114q-80 100 -80 250q0 169 100 272
q93 97 234 97q160 0 265 -120l-69 -78q-86 86 -184 86q-93 0 -154 -70q-63 -71 -63 -187q0 -115 63 -187q60 -70 153 -70q104 0 184 85z" />
    <glyph glyph-name="Ccircumflex" unicode="&#x108;" horiz-adv-x="692" 
d="M323 914h120l108 -152h-114l-54 85l-54 -85h-114zM153 82q-98 103 -98 271q0 169 100 272q93 97 234 97q160 0 265 -120l-69 -78q-86 86 -184 86q-93 0 -154 -70q-63 -71 -63 -187q0 -115 63 -187q60 -70 153 -70q104 0 184 85l69 -77q-107 -120 -266 -120
q-140 0 -234 98z" />
    <glyph glyph-name="Cdotaccent" unicode="&#x10a;" horiz-adv-x="692" 
d="M316 901h131v-115h-131v115zM153 82q-98 103 -98 271q0 169 100 272q93 97 234 97q160 0 265 -120l-69 -78q-86 86 -184 86q-93 0 -154 -70q-63 -71 -63 -187q0 -115 63 -187q60 -70 153 -70q104 0 184 85l69 -77q-107 -120 -266 -120q-140 0 -234 98z" />
    <glyph glyph-name="D" unicode="D" horiz-adv-x="731" 
d="M340 706q160 0 250 -98q88 -95 88 -256q0 -160 -88 -255q-90 -97 -250 -97h-259v706h259zM342 108q96 0 151 63q55 64 55 181q0 118 -55 183q-55 63 -151 63h-137v-490h137z" />
    <glyph glyph-name="Eth" unicode="&#xd0;" horiz-adv-x="731" 
d="M340 706q160 0 250 -98q88 -95 88 -256q0 -160 -88 -255q-90 -97 -250 -97h-259v313h-83v94h83v299h259zM342 108q96 0 151 63q55 64 55 181q0 118 -55 183q-55 63 -151 63h-137v-191h132v-94h-132v-205h137z" />
    <glyph glyph-name="Dcaron" unicode="&#x10e;" horiz-adv-x="731" 
d="M160 934h118l52 -91l53 91h117l-112 -158h-116zM340 706q160 0 250 -98q88 -95 88 -256q0 -160 -88 -255q-90 -97 -250 -97h-259v706h259zM342 108q96 0 151 63q55 64 55 181q0 118 -55 183q-55 63 -151 63h-137v-490h137z" />
    <glyph glyph-name="Dcroat" unicode="&#x110;" horiz-adv-x="731" 
d="M340 706q160 0 250 -98q88 -95 88 -256q0 -160 -88 -255q-90 -97 -250 -97h-259v313h-83v94h83v299h259zM342 108q96 0 151 63q55 64 55 181q0 118 -55 183q-55 63 -151 63h-137v-191h132v-94h-132v-205h137z" />
    <glyph glyph-name="E" unicode="E" horiz-adv-x="661" 
d="M592 595h-387v-176h353v-111h-353v-197h391v-111h-515v706h511v-111z" />
    <glyph glyph-name="Eacute" unicode="&#xc9;" horiz-adv-x="661" 
d="M326 942h141l-85 -151h-99zM592 595h-387v-176h353v-111h-353v-197h391v-111h-515v706h511v-111z" />
    <glyph glyph-name="Ebreve" unicode="&#x114;" horiz-adv-x="661" 
d="M238 823q-46 44 -46 116h98q2 -83 56 -83q56 0 58 83h98q0 -72 -46 -116q-44 -41 -110 -41q-65 0 -108 41zM592 595h-387v-176h353v-111h-353v-197h391v-111h-515v706h511v-111z" />
    <glyph glyph-name="Ecaron" unicode="&#x11a;" horiz-adv-x="661" 
d="M178 934h118l52 -91l53 91h117l-112 -158h-116zM592 595h-387v-176h353v-111h-353v-197h391v-111h-515v706h511v-111z" />
    <glyph glyph-name="Ecircumflex" unicode="&#xca;" horiz-adv-x="661" 
d="M287 914h120l108 -152h-114l-54 85l-54 -85h-114zM592 595h-387v-176h353v-111h-353v-197h391v-111h-515v706h511v-111z" />
    <glyph glyph-name="Edieresis" unicode="&#xcb;" horiz-adv-x="661" 
d="M196 897h112v-115h-112v115zM384 897h112v-115h-112v115zM592 595h-387v-176h353v-111h-353v-197h391v-111h-515v706h511v-111z" />
    <glyph glyph-name="Edotaccent" unicode="&#x116;" horiz-adv-x="661" 
d="M280 901h131v-115h-131v115zM592 595h-387v-176h353v-111h-353v-197h391v-111h-515v706h511v-111z" />
    <glyph glyph-name="Egrave" unicode="&#xc8;" horiz-adv-x="661" 
d="M231 942h141l47 -151h-98zM592 595h-387v-176h353v-111h-353v-197h391v-111h-515v706h511v-111z" />
    <glyph glyph-name="Emacron" unicode="&#x112;" horiz-adv-x="661" 
d="M196 894h301v-95h-301v95zM592 595h-387v-176h353v-111h-353v-197h391v-111h-515v706h511v-111z" />
    <glyph glyph-name="Eogonek" unicode="&#x118;" horiz-adv-x="661" 
d="M609 -209q-34 -31 -87 -31q-50 0 -81 32q-29 31 -29 77q0 80 78 131h-409v706h511v-111h-387v-176h353v-111h-353v-197h391v-111q-89 -44 -89 -99q0 -45 41 -45q17 0 35 8z" />
    <glyph glyph-name="F" unicode="F" horiz-adv-x="623" 
d="M205 595v-189h335v-112h-335v-294h-124v706h493v-111h-369z" />
    <glyph glyph-name="G" unicode="G" horiz-adv-x="746" 
d="M378 399h290v-331q-118 -84 -279 -84q-154 0 -244 100q-90 99 -90 265q0 174 96 275q92 98 243 98q157 0 263 -117l-68 -78q-87 84 -183 84q-98 0 -158 -66q-64 -71 -64 -196q0 -115 56 -183q58 -71 160 -71q89 0 151 40v160h-173v104z" />
    <glyph glyph-name="Gbreve" unicode="&#x11e;" horiz-adv-x="746" 
d="M282 823q-46 44 -46 116h98q2 -83 56 -83q56 0 58 83h98q0 -72 -46 -116q-44 -41 -110 -41q-65 0 -108 41zM378 399h290v-331q-118 -84 -279 -84q-154 0 -244 100q-90 99 -90 265q0 174 96 275q92 98 243 98q157 0 263 -117l-68 -78q-87 84 -183 84q-98 0 -158 -66
q-64 -71 -64 -196q0 -115 56 -183q58 -71 160 -71q89 0 151 40v160h-173v104z" />
    <glyph glyph-name="Gcircumflex" unicode="&#x11c;" horiz-adv-x="746" 
d="M330 914h120l108 -152h-114l-54 85l-54 -85h-114zM378 399h290v-331q-118 -84 -279 -84q-154 0 -244 100q-90 99 -90 265q0 174 96 275q92 98 243 98q157 0 263 -117l-68 -78q-87 84 -183 84q-98 0 -158 -66q-64 -71 -64 -196q0 -115 56 -183q58 -71 160 -71q89 0 151 40
v160h-173v104z" />
    <glyph glyph-name="uni0122" unicode="&#x122;" horiz-adv-x="746" 
d="M378 399h290v-331q-118 -84 -279 -84q-154 0 -244 100q-90 99 -90 265q0 174 96 275q92 98 243 98q157 0 263 -117l-68 -78q-87 84 -183 84q-98 0 -158 -66q-64 -71 -64 -196q0 -115 56 -183q58 -71 160 -71q89 0 151 40v160h-173v104zM334 -62h119l-25 -183h-104z" />
    <glyph glyph-name="Gdotaccent" unicode="&#x120;" horiz-adv-x="746" 
d="M324 901h131v-115h-131v115zM378 399h290v-331q-118 -84 -279 -84q-154 0 -244 100q-90 99 -90 265q0 174 96 275q92 98 243 98q157 0 263 -117l-68 -78q-87 84 -183 84q-98 0 -158 -66q-64 -71 -64 -196q0 -115 56 -183q58 -71 160 -71q89 0 151 40v160h-173v104z" />
    <glyph glyph-name="H" unicode="H" horiz-adv-x="764" 
d="M683 706v-706h-125v309h-353v-309h-124v706h124v-286h353v286h125z" />
    <glyph glyph-name="Hbar" unicode="&#x126;" horiz-adv-x="764" 
d="M747 521h-64v-521h-125v309h-353v-309h-124v521h-63v90h63v95h124v-95h353v95h125v-95h64v-90zM558 521h-353v-101h353v101z" />
    <glyph glyph-name="Hcircumflex" unicode="&#x124;" horiz-adv-x="764" 
d="M324 914h120l108 -152h-114l-54 85l-54 -85h-114zM683 706v-706h-125v309h-353v-309h-124v706h124v-286h353v286h125z" />
    <glyph glyph-name="I" unicode="I" horiz-adv-x="294" 
d="M85 706h124v-706h-124v706z" />
    <glyph glyph-name="IJ" unicode="&#x132;" horiz-adv-x="748" 
d="M85 706h124v-706h-124v706zM279 55l45 88q73 -47 130 -47q103 0 103 111v499h125v-498q0 -107 -55 -165q-56 -59 -158 -59q-110 0 -190 71z" />
    <glyph glyph-name="Iacute" unicode="&#xcd;" horiz-adv-x="294" 
d="M141 942h141l-85 -151h-99zM85 706h124v-706h-124v706z" />
    <glyph glyph-name="Ibreve" unicode="&#x12c;" horiz-adv-x="294" 
d="M39 823q-46 44 -46 116h98q2 -83 56 -83q56 0 58 83h98q0 -72 -46 -116q-44 -41 -110 -41q-65 0 -108 41zM85 706h124v-706h-124v706z" />
    <glyph glyph-name="Icircumflex" unicode="&#xce;" horiz-adv-x="294" 
d="M87 914h120l108 -152h-114l-54 85l-54 -85h-114zM85 706h124v-706h-124v706z" />
    <glyph glyph-name="Idieresis" unicode="&#xcf;" horiz-adv-x="294" 
d="M-4 897h112v-115h-112v115zM184 897h112v-115h-112v115zM85 706h124v-706h-124v706z" />
    <glyph glyph-name="Idotaccent" unicode="&#x130;" horiz-adv-x="294" 
d="M81 901h131v-115h-131v115zM85 706h124v-706h-124v706z" />
    <glyph glyph-name="Igrave" unicode="&#xcc;" horiz-adv-x="294" 
d="M12 942h141l47 -151h-98zM85 706h124v-706h-124v706z" />
    <glyph glyph-name="Imacron" unicode="&#x12a;" horiz-adv-x="294" 
d="M-4 894h301v-95h-301v95zM85 706h124v-706h-124v706z" />
    <glyph glyph-name="Iogonek" unicode="&#x12e;" horiz-adv-x="294" 
d="M247 -209q-36 -31 -88 -31t-83 32q-29 30 -29 76q0 77 81 132h-43v706h124v-706h1q-5 -4 -9 -7l-11 -9q-13 -11 -22 -22q-26 -30 -26 -61q0 -45 42 -45q20 0 36 8z" />
    <glyph glyph-name="Itilde" unicode="&#x128;" horiz-adv-x="294" 
d="M151 818l-14 9l-14 9q-15 8 -28 8q-30 0 -38 -49h-89q13 138 111 138q31 0 71 -26l15 -10l14 -9q15 -8 28 -8q30 0 38 49h90q-14 -138 -113 -138q-31 0 -71 27zM85 706h124v-706h-124v706z" />
    <glyph glyph-name="J" unicode="J" horiz-adv-x="500" 
d="M24 55l45 88q71 -47 130 -47q102 0 102 111v499h125v-498q0 -107 -55 -165q-56 -59 -158 -59q-111 0 -189 71z" />
    <glyph glyph-name="Jcircumflex" unicode="&#x134;" horiz-adv-x="500" 
d="M305 914h120l108 -152h-114l-54 85l-54 -85h-114zM24 55l45 88q71 -47 130 -47q102 0 102 111v499h125v-498q0 -107 -55 -165q-56 -59 -158 -59q-111 0 -189 71z" />
    <glyph glyph-name="K" unicode="K" horiz-adv-x="654" 
d="M292 321l-89 -118v-203h-123v706h123v-347l270 347h156l-253 -299l267 -407h-151z" />
    <glyph glyph-name="uni0136" unicode="&#x136;" horiz-adv-x="654" 
d="M292 321l-89 -118v-203h-123v706h123v-347l270 347h156l-253 -299l267 -407h-151zM280 -62h119l-25 -183h-104z" />
    <glyph glyph-name="L" unicode="L" horiz-adv-x="603" 
d="M566 111v-111h-485v706h124v-595h361z" />
    <glyph glyph-name="Lacute" unicode="&#x139;" horiz-adv-x="603" 
d="M134 942h141l-85 -151h-99zM566 111v-111h-485v706h124v-595h361z" />
    <glyph glyph-name="Lcaron" unicode="&#x13d;" horiz-adv-x="603" 
d="M405 594h-87l9 159h113zM566 111v-111h-485v706h124v-595h361z" />
    <glyph glyph-name="uni013B" unicode="&#x13b;" horiz-adv-x="603" 
d="M566 111v-111h-485v706h124v-595h361zM271 -62h119l-25 -183h-104z" />
    <glyph glyph-name="Ldot" unicode="&#x13f;" horiz-adv-x="601" 
d="M566 111v-111h-485v706h124v-595h361zM518 317h-133v129h133v-129z" />
    <glyph glyph-name="Lslash" unicode="&#x141;" horiz-adv-x="603" 
d="M566 111v-111h-485v264l-72 -48v110l72 48v332h124v-248l89 59v-110l-89 -59v-237h361z" />
    <glyph glyph-name="M" unicode="M" horiz-adv-x="944" 
d="M864 706v-706h-120v509l-212 -509h-119l-212 511v-511h-120v706h150l242 -584l240 584h151z" />
    <glyph glyph-name="N" unicode="N" horiz-adv-x="760" 
d="M679 706v-706h-124l-353 521v-521h-121v706h126l351 -518v518h121z" />
    <glyph glyph-name="Nacute" unicode="&#x143;" horiz-adv-x="760" 
d="M361 942h141l-85 -151h-99zM679 706v-706h-124l-353 521v-521h-121v706h126l351 -518v518h121z" />
    <glyph glyph-name="Ncaron" unicode="&#x147;" horiz-adv-x="760" 
d="M207 934h118l52 -91l53 91h117l-112 -158h-116zM679 706v-706h-124l-353 521v-521h-121v706h126l351 -518v518h121z" />
    <glyph glyph-name="uni0145" unicode="&#x145;" horiz-adv-x="760" 
d="M679 706v-706h-124l-353 521v-521h-121v706h126l351 -518v518h121zM328 -62h119l-25 -183h-104z" />
    <glyph glyph-name="Eng" unicode="&#x14a;" horiz-adv-x="757" 
d="M679 706v-645q0 -148 -48 -216q-53 -71 -171 -93l-23 112q63 18 90 58q22 31 25 79l-347 516v-517h-124v706h130l343 -514l1 514h124z" />
    <glyph glyph-name="Ntilde" unicode="&#xd1;" horiz-adv-x="760" 
d="M412 799q-13 6 -32 19q-39 26 -56 26q-30 0 -38 -49h-89q13 138 111 138q31 0 71 -26q40 -27 57 -27q30 0 38 49h90q-14 -138 -113 -138q-20 0 -39 8zM679 706v-706h-124l-353 521v-521h-121v706h126l351 -518v518h121z" />
    <glyph glyph-name="O" unicode="O" 
d="M147 85q-90 101 -90 267q0 167 90 268q90 102 241 102q150 0 240 -102q89 -101 89 -268q0 -166 -89 -267q-90 -101 -240 -101q-151 0 -241 101zM532 161q55 67 55 191q0 125 -55 194q-52 65 -144 65t-145 -65q-56 -69 -56 -194q0 -124 56 -191q53 -65 145 -65t144 65z
" />
    <glyph glyph-name="Oacute" unicode="&#xd3;" 
d="M362 942h141l-85 -151h-99zM147 85q-90 101 -90 267q0 167 90 268q90 102 241 102q150 0 240 -102q89 -101 89 -268q0 -166 -89 -267q-90 -101 -240 -101q-151 0 -241 101zM532 161q55 67 55 191q0 125 -55 194q-52 65 -144 65t-145 -65q-56 -69 -56 -194q0 -124 56 -191
q53 -65 145 -65t144 65z" />
    <glyph glyph-name="Obreve" unicode="&#x14e;" 
d="M279 823q-46 44 -46 116h98q2 -83 56 -83q56 0 58 83h98q0 -72 -46 -116q-44 -41 -110 -41q-65 0 -108 41zM147 85q-90 101 -90 267q0 167 90 268q90 102 241 102q150 0 240 -102q89 -101 89 -268q0 -166 -89 -267q-90 -101 -240 -101q-151 0 -241 101zM532 161
q55 67 55 191q0 125 -55 194q-52 65 -144 65t-145 -65q-56 -69 -56 -194q0 -124 56 -191q53 -65 145 -65t144 65z" />
    <glyph glyph-name="Ocircumflex" unicode="&#xd4;" 
d="M328 914h120l108 -152h-114l-54 85l-54 -85h-114zM147 85q-90 101 -90 267q0 167 90 268q90 102 241 102q150 0 240 -102q89 -101 89 -268q0 -166 -89 -267q-90 -101 -240 -101q-151 0 -241 101zM532 161q55 67 55 191q0 125 -55 194q-52 65 -144 65t-145 -65
q-56 -69 -56 -194q0 -124 56 -191q53 -65 145 -65t144 65z" />
    <glyph glyph-name="Odieresis" unicode="&#xd6;" 
d="M237 897h112v-115h-112v115zM425 897h112v-115h-112v115zM147 85q-90 101 -90 267q0 167 90 268q90 102 241 102q150 0 240 -102q89 -101 89 -268q0 -166 -89 -267q-90 -101 -240 -101q-151 0 -241 101zM532 161q55 67 55 191q0 125 -55 194q-52 65 -144 65t-145 -65
q-56 -69 -56 -194q0 -124 56 -191q53 -65 145 -65t144 65z" />
    <glyph glyph-name="Ograve" unicode="&#xd2;" 
d="M269 944h141l47 -151h-98zM147 85q-90 101 -90 267q0 167 90 268q90 102 241 102q150 0 240 -102q89 -101 89 -268q0 -166 -89 -267q-90 -101 -240 -101q-151 0 -241 101zM532 161q55 67 55 191q0 125 -55 194q-52 65 -144 65t-145 -65q-56 -69 -56 -194q0 -124 56 -191
q53 -65 145 -65t144 65z" />
    <glyph glyph-name="Ohungarumlaut" unicode="&#x150;" 
d="M282 949h130l-65 -158h-101zM459 949h129l-68 -158h-104zM147 85q-90 101 -90 267q0 167 90 268q90 102 241 102q150 0 240 -102q89 -101 89 -268q0 -166 -89 -267q-90 -101 -240 -101q-151 0 -241 101zM532 161q55 67 55 191q0 125 -55 194q-52 65 -144 65t-145 -65
q-56 -69 -56 -194q0 -124 56 -191q53 -65 145 -65t144 65z" />
    <glyph glyph-name="Omacron" unicode="&#x14c;" 
d="M237 894h301v-95h-301v95zM147 85q-90 101 -90 267q0 167 90 268q90 102 241 102q150 0 240 -102q89 -101 89 -268q0 -166 -89 -267q-90 -101 -240 -101q-151 0 -241 101zM532 161q55 67 55 191q0 125 -55 194q-52 65 -144 65t-145 -65q-56 -69 -56 -194q0 -124 56 -191
q53 -65 145 -65t144 65z" />
    <glyph glyph-name="Oslash" unicode="&#xd8;" 
d="M717 352q0 -166 -89 -267q-90 -101 -240 -101q-76 0 -137 26l-35 -66l-71 39l37 69q-125 101 -125 300q0 167 90 268q90 102 241 102q73 0 133 -26l37 70l71 -39l-38 -72q126 -101 126 -303zM237 157l234 444q-39 17 -83 17q-95 0 -149 -67q-57 -70 -57 -199
q0 -126 55 -195zM536 155q56 69 56 197q0 129 -56 199l-234 -445q39 -17 86 -17q94 0 148 66z" />
    <glyph glyph-name="Otilde" unicode="&#xd5;" 
d="M424 799q-13 6 -32 19q-39 26 -56 26q-30 0 -38 -49h-89q13 138 111 138q31 0 71 -26q40 -27 57 -27q30 0 38 49h90q-14 -138 -113 -138q-20 0 -39 8zM147 85q-90 101 -90 267q0 167 90 268q90 102 241 102q150 0 240 -102q89 -101 89 -268q0 -166 -89 -267
q-90 -101 -240 -101q-151 0 -241 101zM532 161q55 67 55 191q0 125 -55 194q-52 65 -144 65t-145 -65q-56 -69 -56 -194q0 -124 56 -191q53 -65 145 -65t144 65z" />
    <glyph glyph-name="OE" unicode="&#x152;" horiz-adv-x="1030" 
d="M615 595v-176h320v-111h-320v-197h358v-111h-575q-160 0 -250 97q-87 94 -87 255t87 256q90 98 250 98h572v-111h-355zM491 108v490h-98q-94 0 -148 -63q-55 -65 -55 -183q0 -117 55 -181q54 -63 148 -63h98z" />
    <glyph glyph-name="P" unicode="P" horiz-adv-x="678" 
d="M379 706q122 0 186 -61q62 -58 62 -165q0 -229 -253 -229h-169v-251h-124v706h298zM378 362q64 0 92 27q29 27 29 91t-31 91q-29 24 -91 24h-172v-233h173z" />
    <glyph glyph-name="Thorn" unicode="&#xde;" horiz-adv-x="667" 
d="M378 595q114 0 177 -61q62 -60 62 -165q0 -228 -240 -228h-172v-141h-124v706h124v-111h173zM371 251q62 0 89 27q29 27 29 91q0 65 -31 92q-27 24 -88 24h-165v-234h166z" />
    <glyph glyph-name="Q" unicode="Q" 
d="M361 -29q-49 17 -99 39q-62 29 -101 67q-104 93 -104 275q0 168 90 269t240 101q151 0 241 -102q89 -101 89 -267q0 -120 -49 -205q-49 -87 -141 -125v-4q41 -15 91 -39q16 -8 33 -16l6 -3l6 -3q5 -3 7 -4l-57 -94q-98 54 -252 111zM535 164q52 67 52 189q0 121 -52 189
q-53 69 -147 69t-148 -69q-53 -68 -53 -190q0 -121 53 -188q53 -68 147 -68q95 0 148 68z" />
    <glyph glyph-name="R" unicode="R" horiz-adv-x="681" 
d="M498 0l-139 260h-155v-260h-123v706h303q119 0 181 -56q64 -58 64 -167q0 -170 -139 -207l156 -276h-148zM204 371h181q60 0 88 24q30 26 30 87t-29 87q-28 26 -90 26h-180v-224z" />
    <glyph glyph-name="Racute" unicode="&#x154;" horiz-adv-x="681" 
d="M309 942h141l-85 -151h-99zM498 0l-139 260h-155v-260h-123v706h303q119 0 181 -56q64 -58 64 -167q0 -170 -139 -207l156 -276h-148zM204 371h181q60 0 88 24q30 26 30 87t-29 87q-28 26 -90 26h-180v-224z" />
    <glyph glyph-name="Rcaron" unicode="&#x158;" horiz-adv-x="681" 
d="M157 934h118l52 -91l53 91h117l-112 -158h-116zM498 0l-139 260h-155v-260h-123v706h303q119 0 181 -56q64 -58 64 -167q0 -170 -139 -207l156 -276h-148zM204 371h181q60 0 88 24q30 26 30 87t-29 87q-28 26 -90 26h-180v-224z" />
    <glyph glyph-name="uni0156" unicode="&#x156;" horiz-adv-x="681" 
d="M498 0l-139 260h-155v-260h-123v706h303q119 0 181 -56q64 -58 64 -167q0 -170 -139 -207l156 -276h-148zM204 371h181q60 0 88 24q30 26 30 87t-29 87q-28 26 -90 26h-180v-224zM291 -62h119l-25 -183h-104z" />
    <glyph glyph-name="S" unicode="S" horiz-adv-x="634" 
d="M44 79l46 94q94 -77 230 -77q141 0 141 88q0 52 -62 80q-23 10 -62 20l-35 8l-35 9q-40 10 -70 22q-39 16 -66 38q-69 55 -69 152q0 107 81 162q69 47 182 47q139 0 253 -74l-44 -96q-112 59 -209 59q-135 0 -135 -91q0 -49 56 -77q28 -13 143 -44q17 -5 29 -8
q17 -6 32 -11q38 -15 65 -35q74 -55 74 -152q0 -103 -79 -159q-71 -50 -186 -50q-170 0 -280 95z" />
    <glyph glyph-name="Sacute" unicode="&#x15a;" horiz-adv-x="634" 
d="M310 942h141l-85 -151h-99zM44 79l46 94q94 -77 230 -77q141 0 141 88q0 52 -62 80q-23 10 -62 20l-35 8l-35 9q-40 10 -70 22q-39 16 -66 38q-69 55 -69 152q0 107 81 162q69 47 182 47q139 0 253 -74l-44 -96q-112 59 -209 59q-135 0 -135 -91q0 -49 56 -77
q28 -13 143 -44q17 -5 29 -8q17 -6 32 -11q38 -15 65 -35q74 -55 74 -152q0 -103 -79 -159q-71 -50 -186 -50q-170 0 -280 95z" />
    <glyph glyph-name="Scaron" unicode="&#x160;" horiz-adv-x="634" 
d="M150 934h118l52 -91l53 91h117l-112 -158h-116zM44 79l46 94q94 -77 230 -77q141 0 141 88q0 52 -62 80q-23 10 -62 20l-35 8l-35 9q-40 10 -70 22q-39 16 -66 38q-69 55 -69 152q0 107 81 162q69 47 182 47q139 0 253 -74l-44 -96q-112 59 -209 59q-135 0 -135 -91
q0 -49 56 -77q28 -13 143 -44q17 -5 29 -8q17 -6 32 -11q38 -15 65 -35q74 -55 74 -152q0 -103 -79 -159q-71 -50 -186 -50q-170 0 -280 95z" />
    <glyph glyph-name="Scedilla" unicode="&#x15e;" horiz-adv-x="634" 
d="M519 41q-63 -50 -167 -56l-10 -39q33 0 54 -25q21 -26 21 -63q0 -39 -27 -67q-29 -31 -76 -31q-49 0 -88 32l16 50q18 -15 47 -15q35 0 35 37q0 15 -13 26q-14 10 -32 10h-13q-8 -1 -10 -1l-2 27l16 61q-140 17 -226 92l46 94q94 -77 230 -77q141 0 141 88q0 52 -62 80
q-23 10 -62 20l-35 8l-35 9q-40 10 -70 22q-39 16 -66 38q-69 55 -69 152q0 107 81 162q69 47 182 47q139 0 253 -74l-44 -96q-112 59 -209 59q-135 0 -135 -91q0 -49 56 -77q28 -13 143 -44q17 -5 29 -8q17 -6 32 -11q38 -15 65 -35q74 -55 74 -152t-70 -152z" />
    <glyph glyph-name="Scircumflex" unicode="&#x15c;" horiz-adv-x="634" 
d="M259 914h120l108 -152h-114l-54 85l-54 -85h-114zM44 79l46 94q94 -77 230 -77q141 0 141 88q0 52 -62 80q-23 10 -62 20l-35 8l-35 9q-40 10 -70 22q-39 16 -66 38q-69 55 -69 152q0 107 81 162q69 47 182 47q139 0 253 -74l-44 -96q-112 59 -209 59q-135 0 -135 -91
q0 -49 56 -77q28 -13 143 -44q17 -5 29 -8q17 -6 32 -11q38 -15 65 -35q74 -55 74 -152q0 -103 -79 -159q-71 -50 -186 -50q-170 0 -280 95z" />
    <glyph glyph-name="uni0218" unicode="&#x218;" horiz-adv-x="634" 
d="M44 79l46 94q94 -77 230 -77q141 0 141 88q0 52 -62 80q-23 10 -62 20l-35 8l-35 9q-40 10 -70 22q-39 16 -66 38q-69 55 -69 152q0 107 81 162q69 47 182 47q139 0 253 -74l-44 -96q-112 59 -209 59q-135 0 -135 -91q0 -49 56 -77q28 -13 143 -44q17 -5 29 -8
q17 -6 32 -11q38 -15 65 -35q74 -55 74 -152q0 -103 -79 -159q-71 -50 -186 -50q-170 0 -280 95zM269 -61h119l-25 -183h-104z" />
    <glyph glyph-name="T" unicode="T" horiz-adv-x="607" 
d="M588 595h-222v-595h-125v595h-222v111h569v-111z" />
    <glyph glyph-name="Tbar" unicode="&#x166;" horiz-adv-x="607" 
d="M366 595v-198h107v-94h-107v-303h-125v303h-107v94h107v198h-222v111h569v-111h-222z" />
    <glyph glyph-name="Tcaron" unicode="&#x164;" horiz-adv-x="607" 
d="M135 934h118l52 -91l53 91h117l-112 -158h-116zM588 595h-222v-595h-125v595h-222v111h569v-111z" />
    <glyph glyph-name="uni021A" unicode="&#x21a;" horiz-adv-x="607" 
d="M588 595h-222v-595h-125v595h-222v111h569v-111zM246 -62h119l-25 -183h-104z" />
    <glyph glyph-name="U" unicode="U" horiz-adv-x="747" 
d="M158 61q-84 82 -84 234v411h125v-406q0 -204 174 -204t174 204v406h126v-411q0 -152 -84 -234q-79 -77 -216 -77q-136 0 -215 77z" />
    <glyph glyph-name="Uacute" unicode="&#xda;" horiz-adv-x="747" 
d="M351 942h141l-85 -151h-99zM158 61q-84 82 -84 234v411h125v-406q0 -204 174 -204t174 204v406h126v-411q0 -152 -84 -234q-79 -77 -216 -77q-136 0 -215 77z" />
    <glyph glyph-name="Ubreve" unicode="&#x16c;" horiz-adv-x="747" 
d="M265 823q-46 44 -46 116h98q2 -83 56 -83q56 0 58 83h98q0 -72 -46 -116q-44 -41 -110 -41q-65 0 -108 41zM158 61q-84 82 -84 234v411h125v-406q0 -204 174 -204t174 204v406h126v-411q0 -152 -84 -234q-79 -77 -216 -77q-136 0 -215 77z" />
    <glyph glyph-name="Ucircumflex" unicode="&#xdb;" horiz-adv-x="747" 
d="M314 914h120l108 -152h-114l-54 85l-54 -85h-114zM158 61q-84 82 -84 234v411h125v-406q0 -204 174 -204t174 204v406h126v-411q0 -152 -84 -234q-79 -77 -216 -77q-136 0 -215 77z" />
    <glyph glyph-name="Udieresis" unicode="&#xdc;" horiz-adv-x="747" 
d="M222 897h112v-115h-112v115zM410 897h112v-115h-112v115zM158 61q-84 82 -84 234v411h125v-406q0 -204 174 -204t174 204v406h126v-411q0 -152 -84 -234q-79 -77 -216 -77q-136 0 -215 77z" />
    <glyph glyph-name="Ugrave" unicode="&#xd9;" horiz-adv-x="747" 
d="M233 918h142l49 -156h-103zM158 61q-84 82 -84 234v411h125v-406q0 -204 174 -204t174 204v406h126v-411q0 -152 -84 -234q-79 -77 -216 -77q-136 0 -215 77z" />
    <glyph glyph-name="Uhungarumlaut" unicode="&#x170;" horiz-adv-x="747" 
d="M267 949h130l-65 -158h-101zM444 949h129l-68 -158h-104zM158 61q-84 82 -84 234v411h125v-406q0 -204 174 -204t174 204v406h126v-411q0 -152 -84 -234q-79 -77 -216 -77q-136 0 -215 77z" />
    <glyph glyph-name="Umacron" unicode="&#x16a;" horiz-adv-x="747" 
d="M223 894h301v-95h-301v95zM158 61q-84 82 -84 234v411h125v-406q0 -204 174 -204t174 204v406h126v-411q0 -152 -84 -234q-79 -77 -216 -77q-136 0 -215 77z" />
    <glyph glyph-name="Uogonek" unicode="&#x172;" horiz-adv-x="747" 
d="M673 706v-411q0 -187 -124 -266l-15 -12l-15 -13q-18 -15 -30 -29q-31 -36 -31 -71q0 -48 42 -48q20 0 36 8l27 -73q-36 -31 -88 -31t-83 32q-29 30 -29 77q0 62 48 117q-24 -2 -38 -2q-136 0 -215 77q-84 82 -84 234v411h125v-406q0 -204 174 -204t174 204v406h126z" />
    <glyph glyph-name="Uring" unicode="&#x16e;" horiz-adv-x="747" 
d="M298 795q-32 28 -32 72t32 72q31 27 75 27t75 -27q32 -28 32 -72t-32 -72q-31 -26 -75 -26t-75 26zM409 867q0 42 -36 42t-36 -42q0 -41 36 -41t36 41zM158 61q-84 82 -84 234v411h125v-406q0 -204 174 -204t174 204v406h126v-411q0 -152 -84 -234q-79 -77 -216 -77
q-136 0 -215 77z" />
    <glyph glyph-name="Utilde" unicode="&#x168;" horiz-adv-x="747" 
d="M378 818l-14 9l-14 9q-15 8 -28 8q-30 0 -38 -49h-89q13 138 111 138q31 0 71 -26l15 -10l14 -9q15 -8 28 -8q30 0 38 49h90q-14 -138 -113 -138q-31 0 -71 27zM158 61q-84 82 -84 234v411h125v-406q0 -204 174 -204t174 204v406h126v-411q0 -152 -84 -234
q-79 -77 -216 -77q-136 0 -215 77z" />
    <glyph glyph-name="V" unicode="V" horiz-adv-x="667" 
d="M655 706l-245 -706h-149l-248 706h143l182 -561l181 561h136z" />
    <glyph glyph-name="W" unicode="W" horiz-adv-x="912" 
d="M895 706l-170 -706h-136l-132 508l-132 -508h-136l-173 706h129l121 -541l130 484h124l128 -487l121 544h126z" />
    <glyph glyph-name="Wacute" unicode="&#x1e82;" horiz-adv-x="912" 
d="M456 942h141l-85 -151h-99zM895 706l-170 -706h-136l-132 508l-132 -508h-136l-173 706h129l121 -541l130 484h124l128 -487l121 544h126z" />
    <glyph glyph-name="Wcircumflex" unicode="&#x174;" horiz-adv-x="912" 
d="M396 914h120l108 -152h-114l-54 85l-54 -85h-114zM895 706l-170 -706h-136l-132 508l-132 -508h-136l-173 706h129l121 -541l130 484h124l128 -487l121 544h126z" />
    <glyph glyph-name="Wdieresis" unicode="&#x1e84;" horiz-adv-x="912" 
d="M304 897h112v-115h-112v115zM492 897h112v-115h-112v115zM895 706l-170 -706h-136l-132 508l-132 -508h-136l-173 706h129l121 -541l130 484h124l128 -487l121 544h126z" />
    <glyph glyph-name="Wgrave" unicode="&#x1e80;" horiz-adv-x="912" 
d="M321 942h141l47 -151h-98zM895 706l-170 -706h-136l-132 508l-132 -508h-136l-173 706h129l121 -541l130 484h124l128 -487l121 544h126z" />
    <glyph glyph-name="X" unicode="X" horiz-adv-x="616" 
d="M460 0l-155 278l-148 -278h-146l212 363l-200 343h149l140 -258l140 258h141l-200 -341l214 -365h-147z" />
    <glyph glyph-name="Y" unicode="Y" horiz-adv-x="577" 
d="M579 706l-228 -446v-260h-125v260l-228 446h137l154 -328l159 328h131z" />
    <glyph glyph-name="Yacute" unicode="&#xdd;" horiz-adv-x="577" 
d="M275 942h141l-85 -151h-99zM579 706l-228 -446v-260h-125v260l-228 446h137l154 -328l159 328h131z" />
    <glyph glyph-name="Ycircumflex" unicode="&#x176;" horiz-adv-x="577" 
d="M229 914h120l108 -152h-114l-54 85l-54 -85h-114zM579 706l-228 -446v-260h-125v260l-228 446h137l154 -328l159 328h131z" />
    <glyph glyph-name="Ydieresis" unicode="&#x178;" horiz-adv-x="577" 
d="M138 897h112v-115h-112v115zM326 897h112v-115h-112v115zM579 706l-228 -446v-260h-125v260l-228 446h137l154 -328l159 328h131z" />
    <glyph glyph-name="Ygrave" unicode="&#x1ef2;" horiz-adv-x="577" 
d="M147 918h142l49 -156h-103zM579 706l-228 -446v-260h-125v260l-228 446h137l154 -328l159 328h131z" />
    <glyph glyph-name="Z" unicode="Z" horiz-adv-x="611" 
d="M578 109v-109h-541v92l370 506h-364v108h522v-95l-368 -502h381z" />
    <glyph glyph-name="Zacute" unicode="&#x179;" horiz-adv-x="611" 
d="M289 942h141l-85 -151h-99zM578 109v-109h-541v92l370 506h-364v108h522v-95l-368 -502h381z" />
    <glyph glyph-name="Zcaron" unicode="&#x17d;" horiz-adv-x="611" 
d="M127 934h118l52 -91l53 91h117l-112 -158h-116zM578 109v-109h-541v92l370 506h-364v108h522v-95l-368 -502h381z" />
    <glyph glyph-name="Zdotaccent" unicode="&#x17b;" horiz-adv-x="611" 
d="M230 901h131v-115h-131v115zM578 109v-109h-541v92l370 506h-364v108h522v-95l-368 -502h381z" />
    <glyph glyph-name="J.aalt" horiz-adv-x="500" 
d="M360 942h141l-85 -151h-99zM24 55l45 88q71 -47 130 -47q102 0 102 111v499h125v-498q0 -107 -55 -165q-56 -59 -158 -59q-111 0 -189 71z" />
    <glyph glyph-name="a" unicode="a" horiz-adv-x="554" 
d="M494 286v-286h-104l-4 48q-67 -64 -167 -64q-77 0 -126 44q-52 47 -52 128q0 96 76 141q61 35 161 35q54 0 100 -9v10q0 103 -115 103q-43 0 -89 -13q-39 -12 -70 -29l-35 85q89 59 206 59q152 0 200 -112q19 -47 19 -140zM312 98q41 14 66 41v100q-40 9 -88 9
q-57 0 -88 -16q-41 -21 -41 -70q0 -76 85 -76q33 0 66 12z" />
    <glyph glyph-name="aacute" unicode="&#xe1;" horiz-adv-x="554" 
d="M262 745h144l-95 -152h-98zM494 286v-286h-104l-4 48q-67 -64 -167 -64q-77 0 -126 44q-52 47 -52 128q0 96 76 141q61 35 161 35q54 0 100 -9v10q0 103 -115 103q-43 0 -89 -13q-39 -12 -70 -29l-35 85q89 59 206 59q152 0 200 -112q19 -47 19 -140zM312 98q41 14 66 41
v100q-40 9 -88 9q-57 0 -88 -16q-41 -21 -41 -70q0 -76 85 -76q33 0 66 12z" />
    <glyph glyph-name="abreve" unicode="&#x103;" horiz-adv-x="554" 
d="M168 629q-46 44 -46 116h98q2 -83 57 -83t57 83h98q0 -72 -46 -116q-44 -41 -110 -41q-65 0 -108 41zM494 286v-286h-104l-4 48q-67 -64 -167 -64q-77 0 -126 44q-52 47 -52 128q0 96 76 141q61 35 161 35q54 0 100 -9v10q0 103 -115 103q-43 0 -89 -13q-39 -12 -70 -29
l-35 85q89 59 206 59q152 0 200 -112q19 -47 19 -140zM312 98q41 14 66 41v100q-40 9 -88 9q-57 0 -88 -16q-41 -21 -41 -70q0 -76 85 -76q33 0 66 12z" />
    <glyph glyph-name="acircumflex" unicode="&#xe2;" horiz-adv-x="554" 
d="M220 753h112l113 -160h-113l-56 96l-55 -96h-114zM494 286v-286h-104l-4 48q-67 -64 -167 -64q-77 0 -126 44q-52 47 -52 128q0 96 76 141q61 35 161 35q54 0 100 -9v10q0 103 -115 103q-43 0 -89 -13q-39 -12 -70 -29l-35 85q89 59 206 59q152 0 200 -112
q19 -47 19 -140zM312 98q41 14 66 41v100q-40 9 -88 9q-57 0 -88 -16q-41 -21 -41 -70q0 -76 85 -76q33 0 66 12z" />
    <glyph glyph-name="adieresis" unicode="&#xe4;" horiz-adv-x="554" 
d="M126 710h112v-115h-112v115zM314 710h112v-115h-112v115zM494 286v-286h-104l-4 48q-67 -64 -167 -64q-77 0 -126 44q-52 47 -52 128q0 96 76 141q61 35 161 35q54 0 100 -9v10q0 103 -115 103q-43 0 -89 -13q-39 -12 -70 -29l-35 85q89 59 206 59q152 0 200 -112
q19 -47 19 -140zM312 98q41 14 66 41v100q-40 9 -88 9q-57 0 -88 -16q-41 -21 -41 -70q0 -76 85 -76q33 0 66 12z" />
    <glyph glyph-name="agrave" unicode="&#xe0;" horiz-adv-x="554" 
d="M148 744h144l55 -151h-98zM494 286v-286h-104l-4 48q-67 -64 -167 -64q-77 0 -126 44q-52 47 -52 128q0 96 76 141q61 35 161 35q54 0 100 -9v10q0 103 -115 103q-43 0 -89 -13q-39 -12 -70 -29l-35 85q89 59 206 59q152 0 200 -112q19 -47 19 -140zM312 98q41 14 66 41
v100q-40 9 -88 9q-57 0 -88 -16q-41 -21 -41 -70q0 -76 85 -76q33 0 66 12z" />
    <glyph glyph-name="amacron" unicode="&#x101;" horiz-adv-x="554" 
d="M126 706h301v-92h-301v92zM494 286v-286h-104l-4 48q-67 -64 -167 -64q-77 0 -126 44q-52 47 -52 128q0 96 76 141q61 35 161 35q54 0 100 -9v10q0 103 -115 103q-43 0 -89 -13q-39 -12 -70 -29l-35 85q89 59 206 59q152 0 200 -112q19 -47 19 -140zM312 98q41 14 66 41
v100q-40 9 -88 9q-57 0 -88 -16q-41 -21 -41 -70q0 -76 85 -76q33 0 66 12z" />
    <glyph glyph-name="aogonek" unicode="&#x105;" horiz-adv-x="554" 
d="M508 -209q-33 -31 -82 -31q-47 0 -75 32q-27 30 -27 74q0 74 92 134h-26l-4 48q-67 -64 -167 -64q-77 0 -126 44q-52 47 -52 128q0 96 76 141q61 35 161 35q54 0 100 -9v10q0 103 -115 103q-43 0 -89 -13q-39 -12 -70 -29l-35 85q89 59 206 59q152 0 200 -112
q19 -47 19 -140v-286q-77 -65 -77 -101q0 -43 38 -43q16 0 31 8zM378 239q-40 9 -88 9q-57 0 -88 -16q-41 -21 -41 -70q0 -76 85 -76q33 0 66 12q41 14 66 41v100z" />
    <glyph glyph-name="aring" unicode="&#xe5;" horiz-adv-x="554" 
d="M202 608q-32 28 -32 72t32 72q31 27 75 27t75 -27q32 -28 32 -72t-32 -72q-31 -26 -75 -26t-75 26zM313 680q0 42 -36 42t-36 -42q0 -41 36 -41t36 41zM494 286v-286h-104l-4 48q-67 -64 -167 -64q-77 0 -126 44q-52 47 -52 128q0 96 76 141q61 35 161 35q54 0 100 -9v10
q0 103 -115 103q-43 0 -89 -13q-39 -12 -70 -29l-35 85q89 59 206 59q152 0 200 -112q19 -47 19 -140zM312 98q41 14 66 41v100q-40 9 -88 9q-57 0 -88 -16q-41 -21 -41 -70q0 -76 85 -76q33 0 66 12z" />
    <glyph glyph-name="atilde" unicode="&#xe3;" horiz-adv-x="554" 
d="M277 631q-39 26 -56 26q-30 0 -38 -49h-89q13 138 111 138q31 0 71 -26l15 -10l14 -9q15 -8 28 -8q30 0 38 49h90q-14 -138 -113 -138q-31 0 -71 27zM494 286v-286h-104l-4 48q-67 -64 -167 -64q-77 0 -126 44q-52 47 -52 128q0 96 76 141q61 35 161 35q54 0 100 -9v10
q0 103 -115 103q-43 0 -89 -13q-39 -12 -70 -29l-35 85q89 59 206 59q152 0 200 -112q19 -47 19 -140zM312 98q41 14 66 41v100q-40 9 -88 9q-57 0 -88 -16q-41 -21 -41 -70q0 -76 85 -76q33 0 66 12z" />
    <glyph glyph-name="ae" unicode="&#xe6;" horiz-adv-x="886" 
d="M828 213h-340q23 -130 144 -130q78 0 147 55l42 -73q-85 -81 -200 -81q-123 0 -197 92q-39 -40 -77 -61q-56 -31 -123 -31q-79 0 -129 44q-54 47 -54 130q0 94 76 138q61 36 161 36q47 0 93 -8q4 16 4 25q0 87 -110 87q-45 0 -91 -13q-34 -11 -70 -29l-35 85
q89 59 205 59q117 0 171 -72q69 72 171 72q95 0 157 -61q67 -66 67 -176q0 -47 -12 -88zM722 301l1 8v8q0 58 -33 92q-30 31 -78 31q-52 0 -86 -36q-35 -37 -40 -103h236zM312 97q39 15 73 47q-15 40 -17 97q-37 7 -78 7q-57 0 -88 -16q-41 -21 -41 -70q0 -76 86 -76
q34 0 65 11z" />
    <glyph glyph-name="b" unicode="b" horiz-adv-x="587" 
d="M489 463q58 -75 58 -200q0 -126 -58 -202q-60 -77 -160 -77q-98 0 -161 86l-4 -70h-102v706h119v-244q59 76 148 76q101 0 160 -75zM426 263q0 167 -123 167q-122 0 -122 -167q0 -170 122 -170q123 0 123 170z" />
    <glyph glyph-name="c" unicode="c" horiz-adv-x="530" 
d="M112 62q-72 78 -72 200q0 121 72 198q72 78 187 78q116 0 197 -84l-52 -78q-62 57 -131 57q-67 0 -109 -49q-41 -48 -41 -125q0 -76 40 -122q41 -48 107 -48q65 0 133 57l53 -78q-87 -84 -199 -84t-185 78z" />
    <glyph glyph-name="cacute" unicode="&#x107;" horiz-adv-x="530" 
d="M288 745h144l-95 -152h-98zM112 62q-72 78 -72 200q0 121 72 198q72 78 187 78q116 0 197 -84l-52 -78q-62 57 -131 57q-67 0 -109 -49q-41 -48 -41 -125q0 -76 40 -122q41 -48 107 -48q65 0 133 57l53 -78q-87 -84 -199 -84t-185 78z" />
    <glyph glyph-name="ccaron" unicode="&#x10d;" horiz-adv-x="530" 
d="M117 747h118l52 -91l53 91h117l-112 -158h-116zM112 62q-72 78 -72 200q0 121 72 198q72 78 187 78q116 0 197 -84l-52 -78q-62 57 -131 57q-67 0 -109 -49q-41 -48 -41 -125q0 -76 40 -122q41 -48 107 -48q65 0 133 57l53 -78q-87 -84 -199 -84t-185 78z" />
    <glyph glyph-name="ccedilla" unicode="&#xe7;" horiz-adv-x="530" 
d="M316 -15l-10 -36q22 0 40 -9q15 -7 25 -19q21 -24 21 -59q0 -40 -29 -69q-32 -30 -82 -30q-53 0 -100 32l19 50q25 -15 54 -15q18 0 29 8q14 9 14 28q0 37 -57 37h-10l-11 -1l-1 27l18 62q-89 20 -142 93q-54 74 -54 178q0 121 72 198q72 78 187 78q116 0 197 -84
l-52 -78q-62 57 -131 57q-67 0 -109 -49q-41 -48 -41 -125q0 -76 40 -122q41 -48 107 -48q65 0 133 57l53 -78q-80 -77 -180 -83z" />
    <glyph glyph-name="ccircumflex" unicode="&#x109;" horiz-adv-x="530" 
d="M230 753h112l113 -160h-113l-56 96l-55 -96h-114zM112 62q-72 78 -72 200q0 121 72 198q72 78 187 78q116 0 197 -84l-52 -78q-62 57 -131 57q-67 0 -109 -49q-41 -48 -41 -125q0 -76 40 -122q41 -48 107 -48q65 0 133 57l53 -78q-87 -84 -199 -84t-185 78z" />
    <glyph glyph-name="cdotaccent" unicode="&#x10b;" horiz-adv-x="530" 
d="M224 706h125v-115h-125v115zM112 62q-72 78 -72 200q0 121 72 198q72 78 187 78q116 0 197 -84l-52 -78q-62 57 -131 57q-67 0 -109 -49q-41 -48 -41 -125q0 -76 40 -122q41 -48 107 -48q65 0 133 57l53 -78q-87 -84 -199 -84t-185 78z" />
    <glyph glyph-name="d" unicode="d" horiz-adv-x="587" 
d="M526 706v-706h-103l-4 70q-61 -86 -159 -86q-102 0 -162 77q-58 76 -58 202q0 125 59 200t161 75q87 0 146 -76v244h120zM407 263q0 167 -122 167q-123 0 -123 -167q0 -171 122 -171q123 0 123 171z" />
    <glyph glyph-name="eth" unicode="&#xf0;" horiz-adv-x="583" 
d="M467 84q-74 -100 -193 -100q-98 0 -164 73q-65 72 -65 178q0 104 61 176q63 73 161 73q52 0 96 -30t64 -78q-3 60 -17 106q-21 62 -65 106l-117 -69l-37 72l74 47q-58 31 -135 42l20 99q129 -17 225 -79l106 64l39 -74l-74 -46q98 -98 98 -278q0 -179 -77 -282zM363 133
q36 43 36 109q0 58 -34 96q-33 38 -82 38q-52 0 -85 -40q-32 -40 -32 -101t32 -102q33 -41 80 -41q50 0 85 41z" />
    <glyph glyph-name="dcaron" unicode="&#x10f;" horiz-adv-x="675" 
d="M662 594h-87l9 159h113zM526 706v-706h-103l-4 70q-61 -86 -159 -86q-102 0 -162 77q-58 76 -58 202q0 125 59 200t161 75q87 0 146 -76v244h120zM407 263q0 167 -122 167q-123 0 -123 -167q0 -171 122 -171q123 0 123 171z" />
    <glyph glyph-name="dcroat" unicode="&#x111;" horiz-adv-x="587" 
d="M581 561h-55v-561h-103l-4 70q-61 -86 -159 -86q-102 0 -162 77q-58 76 -58 202q0 125 59 200t161 75q87 0 146 -76v99h-126v79h126v66h120v-66h55v-79zM407 263q0 167 -122 167q-123 0 -123 -167q0 -171 122 -171q123 0 123 171z" />
    <glyph glyph-name="e" unicode="e" horiz-adv-x="566" 
d="M503 213h-337q22 -130 144 -130q80 0 149 55l42 -77q-85 -77 -202 -77q-116 0 -187 76q-72 76 -72 199q0 120 68 198q70 81 183 81q100 0 162 -62q65 -64 65 -171q0 -50 -15 -92zM404 301q1 5 1 19q0 56 -31 89q-31 31 -81 31q-52 0 -86 -36q-37 -37 -42 -103h239z" />
    <glyph glyph-name="eacute" unicode="&#xe9;" horiz-adv-x="566" 
d="M279 745h144l-95 -152h-98zM503 213h-337q22 -130 144 -130q80 0 149 55l42 -77q-85 -77 -202 -77q-116 0 -187 76q-72 76 -72 199q0 120 68 198q70 81 183 81q100 0 162 -62q65 -64 65 -171q0 -50 -15 -92zM404 301q1 5 1 19q0 56 -31 89q-31 31 -81 31q-52 0 -86 -36
q-37 -37 -42 -103h239z" />
    <glyph glyph-name="ebreve" unicode="&#x115;" horiz-adv-x="566" 
d="M180 629q-46 44 -46 116h98q2 -83 57 -83t57 83h98q0 -72 -46 -116q-44 -41 -110 -41q-65 0 -108 41zM503 213h-337q22 -130 144 -130q80 0 149 55l42 -77q-85 -77 -202 -77q-116 0 -187 76q-72 76 -72 199q0 120 68 198q70 81 183 81q100 0 162 -62q65 -64 65 -171
q0 -50 -15 -92zM404 301q1 5 1 19q0 56 -31 89q-31 31 -81 31q-52 0 -86 -36q-37 -37 -42 -103h239z" />
    <glyph glyph-name="ecaron" unicode="&#x11b;" horiz-adv-x="566" 
d="M119 747h118l52 -91l53 91h117l-112 -158h-116zM503 213h-337q22 -130 144 -130q80 0 149 55l42 -77q-85 -77 -202 -77q-116 0 -187 76q-72 76 -72 199q0 120 68 198q70 81 183 81q100 0 162 -62q65 -64 65 -171q0 -50 -15 -92zM404 301q1 5 1 19q0 56 -31 89
q-31 31 -81 31q-52 0 -86 -36q-37 -37 -42 -103h239z" />
    <glyph glyph-name="ecircumflex" unicode="&#xea;" horiz-adv-x="566" 
d="M232 753h112l113 -160h-113l-56 96l-55 -96h-114zM503 213h-337q22 -130 144 -130q80 0 149 55l42 -77q-85 -77 -202 -77q-116 0 -187 76q-72 76 -72 199q0 120 68 198q70 81 183 81q100 0 162 -62q65 -64 65 -171q0 -50 -15 -92zM404 301q1 5 1 19q0 56 -31 89
q-31 31 -81 31q-52 0 -86 -36q-37 -37 -42 -103h239z" />
    <glyph glyph-name="edieresis" unicode="&#xeb;" horiz-adv-x="566" 
d="M138 710h112v-115h-112v115zM326 710h112v-115h-112v115zM503 213h-337q22 -130 144 -130q80 0 149 55l42 -77q-85 -77 -202 -77q-116 0 -187 76q-72 76 -72 199q0 120 68 198q70 81 183 81q100 0 162 -62q65 -64 65 -171q0 -50 -15 -92zM404 301q1 5 1 19q0 56 -31 89
q-31 31 -81 31q-52 0 -86 -36q-37 -37 -42 -103h239z" />
    <glyph glyph-name="edotaccent" unicode="&#x117;" horiz-adv-x="566" 
d="M226 706h125v-115h-125v115zM503 213h-337q22 -130 144 -130q80 0 149 55l42 -77q-85 -77 -202 -77q-116 0 -187 76q-72 76 -72 199q0 120 68 198q70 81 183 81q100 0 162 -62q65 -64 65 -171q0 -50 -15 -92zM404 301q1 5 1 19q0 56 -31 89q-31 31 -81 31q-52 0 -86 -36
q-37 -37 -42 -103h239z" />
    <glyph glyph-name="egrave" unicode="&#xe8;" horiz-adv-x="566" 
d="M155 744h144l55 -151h-98zM503 213h-337q22 -130 144 -130q80 0 149 55l42 -77q-85 -77 -202 -77q-116 0 -187 76q-72 76 -72 199q0 120 68 198q70 81 183 81q100 0 162 -62q65 -64 65 -171q0 -50 -15 -92zM404 301q1 5 1 19q0 56 -31 89q-31 31 -81 31q-52 0 -86 -36
q-37 -37 -42 -103h239z" />
    <glyph glyph-name="emacron" unicode="&#x113;" horiz-adv-x="566" 
d="M138 706h301v-92h-301v92zM503 213h-337q22 -130 144 -130q80 0 149 55l42 -77q-85 -77 -202 -77q-116 0 -187 76q-72 76 -72 199q0 120 68 198q70 81 183 81q100 0 162 -62q65 -64 65 -171q0 -50 -15 -92zM404 301q1 5 1 19q0 56 -31 89q-31 31 -81 31q-52 0 -86 -36
q-37 -37 -42 -103h239z" />
    <glyph glyph-name="eogonek" unicode="&#x119;" horiz-adv-x="566" 
d="M503 213h-337q22 -130 144 -130q80 0 149 55l42 -77q-40 -38 -98 -59l1 -1q-80 -38 -80 -101q0 -44 39 -44q18 0 39 9l24 -76q-39 -29 -87 -29t-78 31q-30 30 -30 78q0 65 62 115q-114 2 -183 78q-70 75 -70 197q0 120 68 198q70 81 183 81q100 0 162 -62q65 -64 65 -171
q0 -50 -15 -92zM404 301q1 5 1 19q0 56 -31 89q-31 31 -81 31q-52 0 -86 -36q-37 -37 -42 -103h239z" />
    <glyph glyph-name="f" unicode="f" horiz-adv-x="362" 
d="M219 601q-18 -24 -16 -86h137v-97h-137v-418h-120v418h-62v97h62q0 96 31 141q45 66 146 66q56 0 117 -16l-21 -89q-44 11 -73 11q-44 0 -64 -27z" />
    <glyph glyph-name="g" unicode="g" horiz-adv-x="590" 
d="M528 519v-487q0 -130 -71 -202q-69 -70 -184 -70q-109 0 -208 61l34 93q84 -49 165 -49q148 0 148 164v34q-54 -79 -155 -79q-97 0 -156 75q-60 76 -60 200q0 125 59 201q60 78 158 78q104 0 163 -94l6 75h101zM409 259q0 83 -33 127q-32 43 -91 43q-123 0 -123 -170
q0 -167 123 -167q124 0 124 167z" />
    <glyph glyph-name="gbreve" unicode="&#x11f;" horiz-adv-x="590" 
d="M185 629q-46 44 -46 116h98q2 -83 57 -83t57 83h98q0 -72 -46 -116q-44 -41 -110 -41q-65 0 -108 41zM528 519v-487q0 -130 -71 -202q-69 -70 -184 -70q-109 0 -208 61l34 93q84 -49 165 -49q148 0 148 164v34q-54 -79 -155 -79q-97 0 -156 75q-60 76 -60 200
q0 125 59 201q60 78 158 78q104 0 163 -94l6 75h101zM409 259q0 83 -33 127q-32 43 -91 43q-123 0 -123 -170q0 -167 123 -167q124 0 124 167z" />
    <glyph glyph-name="gcircumflex" unicode="&#x11d;" horiz-adv-x="590" 
d="M237 753h112l113 -160h-113l-56 96l-55 -96h-114zM528 519v-487q0 -130 -71 -202q-69 -70 -184 -70q-109 0 -208 61l34 93q84 -49 165 -49q148 0 148 164v34q-54 -79 -155 -79q-97 0 -156 75q-60 76 -60 200q0 125 59 201q60 78 158 78q104 0 163 -94l6 75h101zM409 259
q0 83 -33 127q-32 43 -91 43q-123 0 -123 -170q0 -167 123 -167q124 0 124 167z" />
    <glyph glyph-name="uni0123" unicode="&#x123;" horiz-adv-x="590" 
d="M345 581h-121l27 183h104zM528 519v-487q0 -130 -71 -202q-69 -70 -184 -70q-109 0 -208 61l34 93q84 -49 165 -49q148 0 148 164v34q-54 -79 -155 -79q-97 0 -156 75q-60 76 -60 200q0 125 59 201q60 78 158 78q104 0 163 -94l6 75h101zM409 259q0 83 -33 127
q-32 43 -91 43q-123 0 -123 -170q0 -167 123 -167q124 0 124 167z" />
    <glyph glyph-name="gdotaccent" unicode="&#x121;" horiz-adv-x="590" 
d="M231 706h125v-115h-125v115zM528 519v-487q0 -130 -71 -202q-69 -70 -184 -70q-109 0 -208 61l34 93q84 -49 165 -49q148 0 148 164v34q-54 -79 -155 -79q-97 0 -156 75q-60 76 -60 200q0 125 59 201q60 78 158 78q104 0 163 -94l6 75h101zM409 259q0 83 -33 127
q-32 43 -91 43q-123 0 -123 -170q0 -167 123 -167q124 0 124 167z" />
    <glyph glyph-name="h" unicode="h" horiz-adv-x="587" 
d="M527 0h-121v294q0 68 -19 100q-22 37 -75 37q-71 0 -132 -71v-360h-120v706h114v-244q76 76 173 76q87 0 133 -55q47 -55 47 -159v-324z" />
    <glyph glyph-name="hbar" unicode="&#x127;" horiz-adv-x="587" 
d="M480 483q47 -55 47 -159v-324h-121v294q0 68 -19 100q-22 37 -75 37q-71 0 -132 -71v-360h-120v562h-57v79h57v65h114v-65h130v-79h-130v-100q76 76 173 76q87 0 133 -55z" />
    <glyph glyph-name="hcircumflex" unicode="&#x125;" horiz-adv-x="587" 
d="M172 914h120l108 -152h-114l-54 85l-54 -85h-114zM527 0h-121v294q0 68 -19 100q-22 37 -75 37q-71 0 -132 -71v-360h-120v706h114v-244q76 76 173 76q87 0 133 -55q47 -55 47 -159v-324z" />
    <glyph glyph-name="i" unicode="i" horiz-adv-x="246" 
d="M60 706h125v-115h-125v115zM62 519h121v-519h-121v519z" />
    <glyph glyph-name="dotlessi" unicode="&#x131;" horiz-adv-x="246" 
d="M62 519h121v-519h-121v519z" />
    <glyph glyph-name="iacute" unicode="&#xed;" horiz-adv-x="246" 
d="M125 745h144l-95 -152h-98zM62 519h121v-519h-121v519z" />
    <glyph glyph-name="ibreve" unicode="&#x12d;" horiz-adv-x="246" 
d="M14 629q-46 44 -46 116h98q2 -83 57 -83t57 83h98q0 -72 -46 -116q-44 -41 -110 -41q-65 0 -108 41zM62 519h121v-519h-121v519z" />
    <glyph glyph-name="icircumflex" unicode="&#xee;" horiz-adv-x="246" 
d="M66 753h112l113 -160h-113l-56 96l-55 -96h-114zM62 519h121v-519h-121v519z" />
    <glyph glyph-name="idieresis" unicode="&#xef;" horiz-adv-x="246" 
d="M-28 710h112v-115h-112v115zM160 710h112v-115h-112v115zM62 519h121v-519h-121v519z" />
    <glyph glyph-name="i.aalt" horiz-adv-x="246" 
d="M60 706h125v-115h-125v115zM62 519h121v-519h-121v519z" />
    <glyph glyph-name="igrave" unicode="&#xec;" horiz-adv-x="246" 
d="M-28 744h144l55 -151h-98zM62 519h121v-519h-121v519z" />
    <glyph glyph-name="ij" unicode="&#x133;" horiz-adv-x="481" 
d="M297 707h122v-115h-122v115zM61 706h123v-115h-123v115zM418 520v-485q0 -147 -54 -207q-58 -66 -194 -73l-11 107q90 12 115 46q24 35 24 120v492h120zM183 519v-519h-120v519h120z" />
    <glyph glyph-name="imacron" unicode="&#x12b;" horiz-adv-x="246" 
d="M-28 706h301v-92h-301v92zM62 519h121v-519h-121v519z" />
    <glyph glyph-name="iogonek" unicode="&#x12f;" horiz-adv-x="246" 
d="M185 591h-125v115h125v-115zM205 -210q-37 -29 -87 -29q-48 0 -78 30t-30 78q0 78 85 131h-33v519h121v-519q-80 -38 -80 -100q0 -44 39 -44q19 0 39 10z" />
    <glyph glyph-name="itilde" unicode="&#x129;" horiz-adv-x="246" 
d="M155 612q-13 6 -32 19q-39 26 -56 26q-30 0 -38 -49h-89q13 138 111 138q20 0 39 -8q13 -6 32 -18q40 -27 57 -27q30 0 38 49h90q-14 -138 -113 -138q-20 0 -39 8zM62 519h121v-519h-121v519z" />
    <glyph glyph-name="j" unicode="j" horiz-adv-x="264" 
d="M79 706h125v-115h-125v115zM-35 -145q77 33 99 79q17 36 17 122v463h120v-455q0 -136 -40 -200q-50 -83 -175 -110z" />
    <glyph glyph-name="uni0237" unicode="&#x237;" horiz-adv-x="264" 
d="M-35 -145q77 33 99 79q17 36 17 122v463h120v-455q0 -136 -40 -200q-50 -83 -175 -110z" />
    <glyph glyph-name="jcircumflex" unicode="&#x135;" horiz-adv-x="264" 
d="M85 753h112l113 -160h-113l-56 96l-55 -96h-114zM-35 -145q77 33 99 79q17 36 17 122v463h120v-455q0 -136 -40 -200q-50 -83 -175 -110z" />
    <glyph glyph-name="k" unicode="k" horiz-adv-x="513" 
d="M230 217l-54 -61v-156h-113v706h113v-403l177 216h143l-186 -223l199 -296h-141z" />
    <glyph glyph-name="uni0137" unicode="&#x137;" horiz-adv-x="513" 
d="M230 217l-54 -61v-156h-113v706h113v-403l177 216h143l-186 -223l199 -296h-141zM203 -62h121l-27 -183h-104z" />
    <glyph glyph-name="kgreenlandic" unicode="&#x138;" horiz-adv-x="509" 
d="M230 217l-54 -62v-155h-114v519h114v-217l177 217h143l-186 -224l200 -295h-142z" />
    <glyph glyph-name="l" unicode="l" horiz-adv-x="243" 
d="M62 706h119v-706h-119v706z" />
    <glyph glyph-name="lacute" unicode="&#x13a;" horiz-adv-x="243" 
d="M118 942h141l-85 -151h-99zM62 706h119v-706h-119v706z" />
    <glyph glyph-name="lcaron" unicode="&#x13e;" horiz-adv-x="320" 
d="M318 594h-87l9 159h113zM62 706h119v-706h-119v706z" />
    <glyph glyph-name="uni013C" unicode="&#x13c;" horiz-adv-x="243" 
d="M62 706h119v-706h-119v706zM60 -52h121l-27 -183h-104z" />
    <glyph glyph-name="ldot" unicode="&#x140;" horiz-adv-x="413" 
d="M62 706h119v-706h-119v706zM262 430h126v-123h-126v123z" />
    <glyph glyph-name="lslash" unicode="&#x142;" horiz-adv-x="287" 
d="M268 368l-63 -42v-326h-120v245l-62 -42v111l62 42v350h120v-269l63 42v-111z" />
    <glyph glyph-name="m" unicode="m" horiz-adv-x="892" 
d="M166 519l7 -63q70 82 160 82q93 0 142 -80q74 80 175 80q88 0 135 -55t47 -159v-324h-120v305q0 127 -93 127q-64 0 -112 -62q1 -14 1 -32v-338h-121v314q0 118 -87 118q-62 0 -118 -74v-358h-120v519h104z" />
    <glyph glyph-name="n" unicode="n" horiz-adv-x="588" 
d="M526 0h-120v294q0 68 -19 100q-22 37 -74 37q-75 0 -131 -80v-351h-120v519h105l7 -72q73 91 173 91q86 0 132 -55q47 -55 47 -159v-324z" />
    <glyph glyph-name="nacute" unicode="&#x144;" horiz-adv-x="588" 
d="M289 745h144l-95 -152h-98zM526 0h-120v294q0 68 -19 100q-22 37 -74 37q-75 0 -131 -80v-351h-120v519h105l7 -72q73 91 173 91q86 0 132 -55q47 -55 47 -159v-324z" />
    <glyph glyph-name="napostrophe" unicode="&#x149;" horiz-adv-x="669" 
d="M91 578h-93l19 171h122zM526 0h-120v294q0 68 -19 100q-22 37 -74 37q-75 0 -131 -80v-351h-120v519h105l7 -72q73 91 173 91q86 0 132 -55q47 -55 47 -159v-324z" />
    <glyph glyph-name="ncaron" unicode="&#x148;" horiz-adv-x="588" 
d="M134 747h118l52 -91l53 91h117l-112 -158h-116zM526 0h-120v294q0 68 -19 100q-22 37 -74 37q-75 0 -131 -80v-351h-120v519h105l7 -72q73 91 173 91q86 0 132 -55q47 -55 47 -159v-324z" />
    <glyph glyph-name="uni0146" unicode="&#x146;" horiz-adv-x="588" 
d="M526 0h-120v294q0 68 -19 100q-22 37 -74 37q-75 0 -131 -80v-351h-120v519h105l7 -72q73 91 173 91q86 0 132 -55q47 -55 47 -159v-324zM243 -62h121l-27 -183h-104z" />
    <glyph glyph-name="eng" unicode="&#x14b;" horiz-adv-x="584" 
d="M526 58q0 -148 -53 -221q-52 -69 -163 -85l-21 100q64 22 87 57q25 42 25 141v241q0 140 -94 140q-70 0 -123 -84v-347h-124v519h109l6 -73q76 92 177 92q81 0 128 -60q46 -59 46 -162v-258z" />
    <glyph glyph-name="ntilde" unicode="&#xf1;" horiz-adv-x="588" 
d="M335 612q-13 6 -32 19q-39 26 -56 26q-30 0 -38 -49h-89q13 138 111 138q20 0 39 -8q13 -6 32 -18q40 -27 57 -27q30 0 38 49h90q-14 -138 -113 -138q-20 0 -39 8zM526 0h-120v294q0 68 -19 100q-22 37 -74 37q-75 0 -131 -80v-351h-120v519h105l7 -72q73 91 173 91
q86 0 132 -55q47 -55 47 -159v-324z" />
    <glyph glyph-name="o" unicode="o" horiz-adv-x="598" 
d="M111 62q-68 76 -68 199t67 199q70 78 189 78t188 -78q68 -75 68 -198t-68 -199q-69 -79 -188 -79t-188 78zM396 131q36 45 36 132q0 171 -133 171q-134 0 -134 -171q0 -86 38 -132q35 -43 96 -43q62 0 97 43z" />
    <glyph glyph-name="oacute" unicode="&#xf3;" horiz-adv-x="598" 
d="M294 745h144l-95 -152h-98zM111 62q-68 76 -68 199t67 199q70 78 189 78t188 -78q68 -75 68 -198t-68 -199q-69 -79 -188 -79t-188 78zM396 131q36 45 36 132q0 171 -133 171q-134 0 -134 -171q0 -86 38 -132q35 -43 96 -43q62 0 97 43z" />
    <glyph glyph-name="obreve" unicode="&#x14f;" horiz-adv-x="598" 
d="M191 629q-46 44 -46 116h98q2 -83 57 -83t57 83h98q0 -72 -46 -116q-44 -41 -110 -41q-65 0 -108 41zM111 62q-68 76 -68 199t67 199q70 78 189 78t188 -78q68 -75 68 -198t-68 -199q-69 -79 -188 -79t-188 78zM396 131q36 45 36 132q0 171 -133 171q-134 0 -134 -171
q0 -86 38 -132q35 -43 96 -43q62 0 97 43z" />
    <glyph glyph-name="ocircumflex" unicode="&#xf4;" horiz-adv-x="598" 
d="M243 753h112l113 -160h-113l-56 96l-55 -96h-114zM111 62q-68 76 -68 199t67 199q70 78 189 78t188 -78q68 -75 68 -198t-68 -199q-69 -79 -188 -79t-188 78zM396 131q36 45 36 132q0 171 -133 171q-134 0 -134 -171q0 -86 38 -132q35 -43 96 -43q62 0 97 43z" />
    <glyph glyph-name="odieresis" unicode="&#xf6;" horiz-adv-x="598" 
d="M149 710h112v-115h-112v115zM337 710h112v-115h-112v115zM111 62q-68 76 -68 199t67 199q70 78 189 78t188 -78q68 -75 68 -198t-68 -199q-69 -79 -188 -79t-188 78zM396 131q36 45 36 132q0 171 -133 171q-134 0 -134 -171q0 -86 38 -132q35 -43 96 -43q62 0 97 43z" />
    <glyph glyph-name="ograve" unicode="&#xf2;" horiz-adv-x="598" 
d="M165 749h144l55 -151h-98zM111 62q-68 76 -68 199t67 199q70 78 189 78t188 -78q68 -75 68 -198t-68 -199q-69 -79 -188 -79t-188 78zM396 131q36 45 36 132q0 171 -133 171q-134 0 -134 -171q0 -86 38 -132q35 -43 96 -43q62 0 97 43z" />
    <glyph glyph-name="ohungarumlaut" unicode="&#x151;" horiz-adv-x="598" 
d="M191 753h137l-78 -158h-101zM378 753h136l-78 -158h-100zM111 62q-68 76 -68 199t67 199q70 78 189 78t188 -78q68 -75 68 -198t-68 -199q-69 -79 -188 -79t-188 78zM396 131q36 45 36 132q0 171 -133 171q-134 0 -134 -171q0 -86 38 -132q35 -43 96 -43q62 0 97 43z" />
    <glyph glyph-name="omacron" unicode="&#x14d;" horiz-adv-x="598" 
d="M149 706h301v-92h-301v92zM111 62q-68 76 -68 199t67 199q70 78 189 78t188 -78q68 -75 68 -198t-68 -199q-69 -79 -188 -79t-188 78zM396 131q36 45 36 132q0 171 -133 171q-134 0 -134 -171q0 -86 38 -132q35 -43 96 -43q62 0 97 43z" />
    <glyph glyph-name="oslash" unicode="&#xf8;" horiz-adv-x="598" 
d="M555 262q0 -123 -68 -199q-69 -79 -188 -79q-61 0 -109 21l-40 -67l-63 45l38 64q-82 76 -82 214q0 123 67 199q70 78 189 78q62 0 110 -21l39 65l63 -45l-38 -62q82 -77 82 -213zM186 147l170 282q-23 11 -57 11q-138 0 -138 -177q0 -71 25 -116zM436 263q0 69 -23 112
l-170 -282q27 -11 56 -11q137 0 137 181z" />
    <glyph glyph-name="otilde" unicode="&#xf5;" horiz-adv-x="598" 
d="M331 612q-13 6 -32 19q-39 26 -56 26q-30 0 -38 -49h-89q13 138 111 138q31 0 71 -26q40 -27 57 -27q30 0 38 49h90q-14 -138 -113 -138q-20 0 -39 8zM111 62q-68 76 -68 199t67 199q70 78 189 78t188 -78q68 -75 68 -198t-68 -199q-69 -79 -188 -79t-188 78zM396 131
q36 45 36 132q0 171 -133 171q-134 0 -134 -171q0 -86 38 -132q35 -43 96 -43q62 0 97 43z" />
    <glyph glyph-name="oe" unicode="&#x153;" horiz-adv-x="956" 
d="M897 213h-339q23 -130 143 -130q82 0 148 55l43 -75q-85 -79 -202 -79q-130 0 -199 98q-68 -98 -192 -98q-119 0 -188 78q-68 76 -68 199t67 199q70 78 189 78q122 0 192 -98q71 98 194 98q95 0 157 -61q67 -66 67 -176q0 -52 -12 -88zM794 301q1 20 -3 40q-4 26 -15 46
q-29 53 -94 53q-52 0 -86 -36q-34 -38 -39 -103h237zM432 263q0 171 -133 171q-134 0 -134 -171q0 -84 36 -131q35 -44 93 -44q138 0 138 175z" />
    <glyph glyph-name="p" unicode="p" horiz-adv-x="587" 
d="M485 465q61 -76 61 -206t-60 -203q-59 -72 -157 -72q-93 0 -149 74v-232h-118v693h101l4 -72q61 91 160 91t158 -73zM425 259q0 170 -122 170q-123 0 -123 -170q0 -167 123 -167q122 0 122 167z" />
    <glyph glyph-name="thorn" unicode="&#xfe;" horiz-adv-x="590" 
d="M491 463q59 -74 59 -200t-58 -202q-60 -77 -162 -77q-95 0 -150 77v-234h-118v879h118v-246q58 78 149 78q103 0 162 -75zM427 263q0 167 -122 167q-123 0 -123 -167q0 -170 123 -170q122 0 122 170z" />
    <glyph glyph-name="q" unicode="q" horiz-adv-x="587" 
d="M525 519v-693h-118v232q-56 -74 -148 -74q-98 0 -157 72q-61 74 -61 203q0 130 61 206q59 73 158 73q98 0 160 -90l4 71h101zM408 259q0 170 -124 170q-122 0 -122 -170q0 -167 122 -167q124 0 124 167z" />
    <glyph glyph-name="r" unicode="r" horiz-adv-x="402" 
d="M381 514l-23 -106q-25 11 -59 11q-73 0 -117 -81v-338h-120v519h101l7 -78q53 90 139 90q38 0 72 -17z" />
    <glyph glyph-name="racute" unicode="&#x155;" horiz-adv-x="402" 
d="M200 745h144l-95 -152h-98zM381 514l-23 -106q-25 11 -59 11q-73 0 -117 -81v-338h-120v519h101l7 -78q53 90 139 90q38 0 72 -17z" />
    <glyph glyph-name="rcaron" unicode="&#x159;" horiz-adv-x="402" 
d="M48 747h118l52 -91l53 91h117l-112 -158h-116zM381 514l-23 -106q-25 11 -59 11q-73 0 -117 -81v-338h-120v519h101l7 -78q53 90 139 90q38 0 72 -17z" />
    <glyph glyph-name="uni0157" unicode="&#x157;" horiz-adv-x="402" 
d="M381 514l-23 -106q-25 11 -59 11q-73 0 -117 -81v-338h-120v519h101l7 -78q53 90 139 90q38 0 72 -17zM59 -62h121l-27 -183h-104z" />
    <glyph glyph-name="s" unicode="s" horiz-adv-x="488" 
d="M30 59l49 83q79 -58 156 -58q43 0 67 19q22 16 22 42q0 31 -41 50q-15 6 -43 14l-23 7l-24 7q-71 21 -105 51q-45 39 -45 103q0 72 58 117q58 44 152 44q103 0 194 -54l-39 -85q-76 41 -150 41q-87 0 -87 -55q0 -28 28 -45q20 -12 79 -28q37 -10 59 -18q33 -12 56 -28
q59 -40 59 -113q0 -74 -56 -120q-58 -49 -155 -49q-125 0 -211 75z" />
    <glyph glyph-name="sacute" unicode="&#x15b;" horiz-adv-x="488" 
d="M238 745h144l-95 -152h-98zM30 59l49 83q79 -58 156 -58q43 0 67 19q22 16 22 42q0 31 -41 50q-15 6 -43 14l-23 7l-24 7q-71 21 -105 51q-45 39 -45 103q0 72 58 117q58 44 152 44q103 0 194 -54l-39 -85q-76 41 -150 41q-87 0 -87 -55q0 -28 28 -45q20 -12 79 -28
q37 -10 59 -18q33 -12 56 -28q59 -40 59 -113q0 -74 -56 -120q-58 -49 -155 -49q-125 0 -211 75z" />
    <glyph glyph-name="scaron" unicode="&#x161;" horiz-adv-x="488" 
d="M75 747h118l52 -91l53 91h117l-112 -158h-116zM30 59l49 83q79 -58 156 -58q43 0 67 19q22 16 22 42q0 31 -41 50q-15 6 -43 14l-23 7l-24 7q-71 21 -105 51q-45 39 -45 103q0 72 58 117q58 44 152 44q103 0 194 -54l-39 -85q-76 41 -150 41q-87 0 -87 -55q0 -28 28 -45
q20 -12 79 -28q37 -10 59 -18q33 -12 56 -28q59 -40 59 -113q0 -74 -56 -120q-58 -49 -155 -49q-125 0 -211 75z" />
    <glyph glyph-name="scedilla" unicode="&#x15f;" horiz-adv-x="488" 
d="M404 39q-50 -47 -136 -54l-10 -36q22 0 40 -9q15 -7 25 -19q21 -24 21 -59q0 -40 -29 -69q-32 -30 -82 -30q-53 0 -100 32l19 50q25 -15 54 -15q18 0 29 8q14 9 14 28q0 37 -57 37h-10l-11 -1l-1 27l17 59q-92 14 -157 71l49 83q79 -58 156 -58q43 0 67 19q22 16 22 42
q0 31 -41 50q-15 6 -43 14l-23 7l-24 7q-71 21 -105 51q-45 39 -45 103q0 72 58 117q58 44 152 44q103 0 194 -54l-39 -85q-76 41 -150 41q-87 0 -87 -55q0 -28 28 -45q20 -12 79 -28q37 -10 59 -18q33 -12 56 -28q59 -40 59 -113q0 -68 -48 -114z" />
    <glyph glyph-name="scircumflex" unicode="&#x15d;" horiz-adv-x="488" 
d="M188 753h112l113 -160h-113l-56 96l-55 -96h-114zM30 59l49 83q79 -58 156 -58q43 0 67 19q22 16 22 42q0 31 -41 50q-15 6 -43 14l-23 7l-24 7q-71 21 -105 51q-45 39 -45 103q0 72 58 117q58 44 152 44q103 0 194 -54l-39 -85q-76 41 -150 41q-87 0 -87 -55
q0 -28 28 -45q20 -12 79 -28q37 -10 59 -18q33 -12 56 -28q59 -40 59 -113q0 -74 -56 -120q-58 -49 -155 -49q-125 0 -211 75z" />
    <glyph glyph-name="uni0219" unicode="&#x219;" horiz-adv-x="488" 
d="M30 59l49 83q79 -58 156 -58q43 0 67 19q22 16 22 42q0 31 -41 50q-15 6 -43 14l-23 7l-24 7q-71 21 -105 51q-45 39 -45 103q0 72 58 117q58 44 152 44q103 0 194 -54l-39 -85q-76 41 -150 41q-87 0 -87 -55q0 -28 28 -45q20 -12 79 -28q37 -10 59 -18q33 -12 56 -28
q59 -40 59 -113q0 -74 -56 -120q-58 -49 -155 -49q-125 0 -211 75zM187 -58h121l-27 -183h-104z" />
    <glyph glyph-name="germandbls" unicode="&#xdf;" horiz-adv-x="589" 
d="M334 -15q-17 2 -33 5q-43 10 -70 31v105q27 -20 65 -29q13 -3 27 -5q5 0 10 -1h7q41 0 66 25q23 22 23 54q0 28 -23 54q-10 9 -24 21l-27 20l-16 11l-16 11q-18 13 -30 25q-31 31 -31 68q0 35 44 83q51 53 51 87q0 31 -19 50q-20 21 -55 21q-98 0 -98 -159v-462h-120v472
q0 250 214 250q94 0 148 -50q47 -45 47 -109q0 -33 -15 -62q-11 -19 -34 -45l-18 -17q-12 -11 -17 -17q-18 -18 -18 -31q0 -16 27 -34q7 -5 27 -17l16 -9l17 -11q41 -28 64 -60q30 -43 30 -96q0 -75 -54 -127q-55 -53 -142 -53q-11 0 -23 1z" />
    <glyph glyph-name="t" unicode="t" horiz-adv-x="382" 
d="M375 24q-59 -40 -141 -40q-71 0 -112 42q-43 46 -43 153v239h-68v97h69l3 154h115v-154h143v-97h-143v-221q0 -64 13 -85q16 -25 52 -25q47 0 83 22z" />
    <glyph glyph-name="tbar" unicode="&#x167;" horiz-adv-x="382" 
d="M375 24q-59 -40 -141 -40q-71 0 -112 42q-43 46 -43 153v52h-67v90h67v97h-68v97h69l3 154h115v-154h143v-97h-143v-97h143v-90h-143v-34q0 -64 13 -85q16 -25 52 -25q47 0 83 22z" />
    <glyph glyph-name="tcaron" unicode="&#x165;" horiz-adv-x="382" 
d="M366 627h-87l9 159h113zM375 24q-59 -40 -141 -40q-71 0 -112 42q-43 46 -43 153v239h-68v97h69l3 154h115v-154h143v-97h-143v-221q0 -64 13 -85q16 -25 52 -25q47 0 83 22z" />
    <glyph glyph-name="uni021B" unicode="&#x21b;" horiz-adv-x="382" 
d="M375 24q-59 -40 -141 -40q-71 0 -112 42q-43 46 -43 153v239h-68v97h69l3 154h115v-154h143v-97h-143v-221q0 -64 13 -85q16 -25 52 -25q47 0 83 22zM160 -62h121l-27 -183h-104z" />
    <glyph glyph-name="u" unicode="u" horiz-adv-x="584" 
d="M522 0h-105l-7 74q-76 -90 -172 -90q-85 0 -132 54q-47 55 -47 157v324h121v-300q0 -128 92 -128q75 0 130 83v345h120v-519z" />
    <glyph glyph-name="uacute" unicode="&#xfa;" horiz-adv-x="584" 
d="M279 745h144l-95 -152h-98zM522 0h-105l-7 74q-76 -90 -172 -90q-85 0 -132 54q-47 55 -47 157v324h121v-300q0 -128 92 -128q75 0 130 83v345h120v-519z" />
    <glyph glyph-name="ubreve" unicode="&#x16d;" horiz-adv-x="584" 
d="M182 629q-46 44 -46 116h98q2 -83 57 -83t57 83h98q0 -72 -46 -116q-44 -41 -110 -41q-65 0 -108 41zM522 0h-105l-7 74q-76 -90 -172 -90q-85 0 -132 54q-47 55 -47 157v324h121v-300q0 -128 92 -128q75 0 130 83v345h120v-519z" />
    <glyph glyph-name="ucircumflex" unicode="&#xfb;" horiz-adv-x="584" 
d="M234 753h112l113 -160h-113l-56 96l-55 -96h-114zM522 0h-105l-7 74q-76 -90 -172 -90q-85 0 -132 54q-47 55 -47 157v324h121v-300q0 -128 92 -128q75 0 130 83v345h120v-519z" />
    <glyph glyph-name="udieresis" unicode="&#xfc;" horiz-adv-x="584" 
d="M140 710h112v-115h-112v115zM328 710h112v-115h-112v115zM522 0h-105l-7 74q-76 -90 -172 -90q-85 0 -132 54q-47 55 -47 157v324h121v-300q0 -128 92 -128q75 0 130 83v345h120v-519z" />
    <glyph glyph-name="ugrave" unicode="&#xf9;" horiz-adv-x="584" 
d="M149 744h144l55 -151h-98zM522 0h-105l-7 74q-76 -90 -172 -90q-85 0 -132 54q-47 55 -47 157v324h121v-300q0 -128 92 -128q75 0 130 83v345h120v-519z" />
    <glyph glyph-name="uhungarumlaut" unicode="&#x171;" horiz-adv-x="584" 
d="M182 753h137l-78 -158h-101zM369 753h136l-78 -158h-100zM522 0h-105l-7 74q-76 -90 -172 -90q-85 0 -132 54q-47 55 -47 157v324h121v-300q0 -128 92 -128q75 0 130 83v345h120v-519z" />
    <glyph glyph-name="umacron" unicode="&#x16b;" horiz-adv-x="584" 
d="M140 706h301v-92h-301v92zM522 0h-105l-7 74q-76 -90 -172 -90q-85 0 -132 54q-47 55 -47 157v324h121v-300q0 -128 92 -128q75 0 130 83v345h120v-519z" />
    <glyph glyph-name="uogonek" unicode="&#x173;" horiz-adv-x="584" 
d="M544 -212q-39 -29 -87 -29t-78 31q-30 30 -30 78q0 78 86 132h-18l-7 74q-76 -90 -172 -90q-85 0 -132 54q-47 55 -47 157v324h121v-300q0 -128 92 -128q75 0 130 83v345h120v-519q-80 -38 -80 -101q0 -44 39 -44q18 0 39 9z" />
    <glyph glyph-name="uring" unicode="&#x16f;" horiz-adv-x="584" 
d="M216 608q-32 28 -32 72t32 72q31 27 75 27t75 -27q32 -28 32 -72t-32 -72q-31 -26 -75 -26t-75 26zM327 680q0 42 -36 42t-36 -42q0 -41 36 -41t36 41zM522 0h-105l-7 74q-76 -90 -172 -90q-85 0 -132 54q-47 55 -47 157v324h121v-300q0 -128 92 -128q75 0 130 83v345
h120v-519z" />
    <glyph glyph-name="utilde" unicode="&#x169;" horiz-adv-x="584" 
d="M291 631l-14 9l-14 9q-15 8 -28 8q-30 0 -38 -49h-89q13 138 111 138q20 0 39 -8q13 -6 32 -18q40 -27 57 -27q30 0 38 49h90q-14 -138 -113 -138q-31 0 -71 27zM522 0h-105l-7 74q-76 -90 -172 -90q-85 0 -132 54q-47 55 -47 157v324h121v-300q0 -128 92 -128
q75 0 130 83v345h120v-519z" />
    <glyph glyph-name="v" unicode="v" horiz-adv-x="519" 
d="M507 519l-177 -519h-140l-177 519h134l114 -388l114 388h132z" />
    <glyph glyph-name="w" unicode="w" horiz-adv-x="790" 
d="M780 519l-156 -519h-136l-92 363l-92 -363h-137l-157 519h125l104 -386l101 386h114l102 -384l102 384h122z" />
    <glyph glyph-name="wacute" unicode="&#x1e83;" horiz-adv-x="790" 
d="M395 745h144l-95 -152h-98zM780 519l-156 -519h-136l-92 363l-92 -363h-137l-157 519h125l104 -386l101 386h114l102 -384l102 384h122z" />
    <glyph glyph-name="wcircumflex" unicode="&#x175;" horiz-adv-x="790" 
d="M339 753h112l113 -160h-113l-56 96l-55 -96h-114zM780 519l-156 -519h-136l-92 363l-92 -363h-137l-157 519h125l104 -386l101 386h114l102 -384l102 384h122z" />
    <glyph glyph-name="wdieresis" unicode="&#x1e85;" horiz-adv-x="790" 
d="M245 710h112v-115h-112v115zM433 710h112v-115h-112v115zM780 519l-156 -519h-136l-92 363l-92 -363h-137l-157 519h125l104 -386l101 386h114l102 -384l102 384h122z" />
    <glyph glyph-name="wgrave" unicode="&#x1e81;" horiz-adv-x="790" 
d="M243 744h144l55 -151h-98zM780 519l-156 -519h-136l-92 363l-92 -363h-137l-157 519h125l104 -386l101 386h114l102 -384l102 384h122z" />
    <glyph glyph-name="x" unicode="x" horiz-adv-x="492" 
d="M349 0l-106 187l-104 -187h-135l161 268l-154 251h143l93 -172l97 172h134l-154 -250l165 -269h-140z" />
    <glyph glyph-name="y" unicode="y" horiz-adv-x="579" 
d="M518 519v-485q0 -128 -62 -198q-68 -76 -192 -76q-103 0 -190 50l31 95q76 -40 154 -40q77 0 114 45q32 42 32 118v24q-66 -68 -160 -68q-85 0 -133 53q-51 56 -51 164v318h120v-289q0 -139 91 -139q73 0 128 68v360h118z" />
    <glyph glyph-name="yacute" unicode="&#xfd;" horiz-adv-x="579" 
d="M288 745h144l-95 -152h-98zM518 519v-485q0 -128 -62 -198q-68 -76 -192 -76q-103 0 -190 50l31 95q76 -40 154 -40q77 0 114 45q32 42 32 118v24q-66 -68 -160 -68q-85 0 -133 53q-51 56 -51 164v318h120v-289q0 -139 91 -139q73 0 128 68v360h118z" />
    <glyph glyph-name="ycircumflex" unicode="&#x177;" horiz-adv-x="579" 
d="M236 753h112l113 -160h-113l-56 96l-55 -96h-114zM518 519v-485q0 -128 -62 -198q-68 -76 -192 -76q-103 0 -190 50l31 95q76 -40 154 -40q77 0 114 45q32 42 32 118v24q-66 -68 -160 -68q-85 0 -133 53q-51 56 -51 164v318h120v-289q0 -139 91 -139q73 0 128 68v360h118
z" />
    <glyph glyph-name="ydieresis" unicode="&#xff;" horiz-adv-x="579" 
d="M142 710h112v-115h-112v115zM330 710h112v-115h-112v115zM518 519v-485q0 -128 -62 -198q-68 -76 -192 -76q-103 0 -190 50l31 95q76 -40 154 -40q77 0 114 45q32 42 32 118v24q-66 -68 -160 -68q-85 0 -133 53q-51 56 -51 164v318h120v-289q0 -139 91 -139q73 0 128 68
v360h118z" />
    <glyph glyph-name="ygrave" unicode="&#x1ef3;" horiz-adv-x="579" 
d="M152 744h144l55 -151h-98zM518 519v-485q0 -128 -62 -198q-68 -76 -192 -76q-103 0 -190 50l31 95q76 -40 154 -40q77 0 114 45q32 42 32 118v24q-66 -68 -160 -68q-85 0 -133 53q-51 56 -51 164v318h120v-289q0 -139 91 -139q73 0 128 68v360h118z" />
    <glyph glyph-name="z" unicode="z" horiz-adv-x="515" 
d="M476 101v-101h-434v76l265 343h-256v100h413v-68l-268 -350h280z" />
    <glyph glyph-name="zacute" unicode="&#x17a;" horiz-adv-x="515" 
d="M246 745h144l-95 -152h-98zM476 101v-101h-434v76l265 343h-256v100h413v-68l-268 -350h280z" />
    <glyph glyph-name="zcaron" unicode="&#x17e;" horiz-adv-x="515" 
d="M88 747h118l52 -91l53 91h117l-112 -158h-116zM476 101v-101h-434v76l265 343h-256v100h413v-68l-268 -350h280z" />
    <glyph glyph-name="zdotaccent" unicode="&#x17c;" horiz-adv-x="515" 
d="M195 706h125v-115h-125v115zM476 101v-101h-434v76l265 343h-256v100h413v-68l-268 -350h280z" />
    <glyph glyph-name="glyph255" horiz-adv-x="589" 
d="M528 519v-519h-103l-4 69q-60 -85 -163 -85q-101 0 -159 79q-57 76 -57 200t58 199q59 76 162 76q106 0 154 -82l4 63h108zM377 137q32 44 32 125q0 168 -122 168q-123 0 -123 -168q0 -170 123 -170q58 0 90 45z" />
    <glyph glyph-name="j.aalt" horiz-adv-x="264" 
d="M79 706h125v-115h-125v115zM-35 -145q77 33 99 79q17 36 17 122v463h120v-455q0 -136 -40 -200q-50 -83 -175 -110z" />
    <glyph glyph-name="f_f_j.dlig" horiz-adv-x="830" 
d="M489 418v-418h-119v418h-161v-418h-119v418h-62v97h62q-2 94 30 141q45 66 147 66q40 0 90 -10l-20 -89q-27 5 -48 5q-44 0 -64 -27q-11 -15 -14 -40q-1 -10 -2 -23v-23h161q-2 91 30 139q48 69 164 69q80 0 151 -28l-25 -86q-55 19 -109 19q-53 0 -74 -26
q-12 -15 -16 -41q-1 -10 -2 -23v-23h280v-455q0 -134 -41 -200q-50 -83 -174 -110l-22 101q79 33 100 79q18 35 18 122v366h-161z" />
    <glyph glyph-name="f_i.dlig" horiz-adv-x="551" 
d="M28 515h62q0 93 30 139q48 69 164 69q80 0 151 -28l-25 -86q-55 19 -109 19q-53 0 -74 -26q-12 -15 -16 -41q-2 -17 -1 -46h279v-515h-119v418h-160v-418h-120v418h-62v97z" />
    <glyph glyph-name="f_j.dlig" horiz-adv-x="553" 
d="M212 418v-418h-119v418h-65v97h65q-2 93 30 139q48 69 164 69q81 0 150 -28l-24 -86q-55 19 -109 19q-53 0 -75 -26q-12 -15 -15 -41q-2 -10 -2 -23v-23h279v-455q0 -136 -40 -200q-50 -83 -175 -110l-21 101q78 33 100 79q17 36 17 122v366h-160z" />
    <glyph glyph-name="f_l.dlig" horiz-adv-x="585" 
d="M28 515h62q-2 94 30 141q45 66 147 66q53 0 109 -14l-20 -89q-41 9 -67 9q-44 0 -64 -27q-11 -15 -14 -40q-1 -10 -2 -23v-23h137v-97h-137v-418h-119v418h-62v97zM405 706h119v-706h-119v706z" />
    <glyph glyph-name="t_t.dlig" horiz-adv-x="655" 
d="M649 24q-61 -40 -142 -40q-73 0 -112 42q0 1 -1 1q-69 -43 -148 -43q-74 0 -115 42q-43 46 -43 153v239h-67v97h68l3 154h115v-154h146l3 154h115v-154h144v-97h-144v-221q0 -65 13 -86q16 -24 51 -24q47 0 84 22zM357 112q-5 25 -5 67v239h-145v-221q0 -60 14 -83
q17 -27 56 -27q41 0 80 25z" />
    <glyph glyph-name="ordfeminine" unicode="&#xaa;" horiz-adv-x="332" 
d="M303 546v-172h-73l-4 33q-41 -44 -97 -44q-47 0 -76 28q-32 29 -32 81q0 59 46 87q36 23 96 23q14 0 31 -2l13 -1l13 -2v8q0 53 -67 53q-24 0 -53 -8q-11 -3 -23 -8q-10 -3 -19 -7l-22 58q60 34 129 34q96 0 126 -74q12 -32 12 -87zM185 442q21 9 35 27v49q-28 5 -48 5
q-69 0 -69 -47q0 -41 44 -41q20 0 38 7z" />
    <glyph glyph-name="ordmasculine" unicode="&#xba;" horiz-adv-x="351" 
d="M62 412q-41 47 -41 124q0 76 41 123q42 48 114 48t113 -48q41 -47 41 -123q0 -77 -40 -124q-42 -49 -114 -49t-114 49zM226 461q20 27 20 76q0 98 -70 98q-71 0 -71 -98q0 -49 21 -76q19 -26 50 -26t50 26z" />
    <glyph glyph-name="uni0394" unicode="&#x394;" horiz-adv-x="785" 
d="M47 -3l283 725h126l282 -725v-110h-691v110zM609 -1l-216 602l-216 -602h432z" />
    <glyph glyph-name="uni03A9" unicode="&#x3a9;" horiz-adv-x="765" 
d="M595 110h97v-110h-261v104q69 29 104 101q32 65 32 154q0 114 -51 181q-51 66 -134 66t-134 -66q-51 -67 -51 -181q0 -89 32 -154q35 -72 103 -101v-104h-260v110h97q-110 95 -110 266q0 150 91 248t232 98q140 0 231 -98t91 -248q0 -172 -109 -266z" />
    <glyph glyph-name="uni03BC" unicode="&#x3bc;" horiz-adv-x="620" 
d="M616 2q-18 -7 -40 -12q-28 -6 -51 -6q-46 0 -76 32q-19 21 -31 59q-76 -91 -180 -91q-30 0 -56 21v-237h-120v751h123v-290q0 -138 93 -138q79 0 127 89v339h120v-372q0 -56 38 -56q18 0 31 5z" />
    <glyph glyph-name="pi" unicode="&#x3c0;" horiz-adv-x="684" 
d="M658 46q-20 -21 -53 -36q-36 -17 -71 -17q-110 0 -110 158v275h-161v-426h-120v426q-45 0 -80 -53l-56 51q58 111 167 111h462v-109h-92v-247q0 -87 34 -87q28 0 55 23z" />
    <glyph glyph-name="zero" unicode="0" horiz-adv-x="606" 
d="M107 102q-62 98 -62 248t62 248q70 110 196 110q125 0 195 -110q63 -99 63 -248q0 -150 -63 -248q-70 -111 -195 -111q-126 0 -196 111zM402 172q32 66 32 178t-32 178q-35 70 -99 70t-98 -70q-33 -66 -33 -178t33 -178q34 -71 98 -71t99 71z" />
    <glyph glyph-name="one" unicode="1" horiz-adv-x="410" 
d="M323 695v-695h-121v548l-118 -71l-43 98l193 120h89z" />
    <glyph glyph-name="two" unicode="2" horiz-adv-x="575" 
d="M497 107v-107h-430v71q0 91 67 170q27 33 75 72l20 17l20 15q23 19 37 31q41 37 57 59q24 33 24 69q0 43 -32 69q-30 25 -78 25q-73 0 -146 -57l-51 89q105 78 211 78q98 0 160 -57q61 -57 61 -143q0 -70 -54 -139q-31 -38 -95 -91l-25 -21l-25 -20q-26 -23 -43 -40
q-46 -46 -53 -90h300z" />
    <glyph glyph-name="three" unicode="3" horiz-adv-x="520" 
d="M473 193q0 -89 -61 -145q-62 -57 -164 -57q-123 0 -214 81l50 90q85 -61 150 -61q50 0 80 26q32 26 32 74q0 52 -37 80q-34 26 -86 26h-58v107h60q47 0 78 25q32 25 32 67q0 39 -26 64q-28 28 -76 28q-56 0 -121 -51l-55 75q86 86 193 86q96 0 154 -60q51 -54 51 -130
q0 -106 -96 -157q114 -48 114 -168z" />
    <glyph glyph-name="four" unicode="4" horiz-adv-x="571" 
d="M533 151h-75v-151h-116v151h-304v92l313 452h107v-442h75v-102zM342 253v260l-184 -260h184z" />
    <glyph glyph-name="five" unicode="5" horiz-adv-x="532" 
d="M433 390q57 -63 57 -163q0 -106 -65 -171t-170 -65q-111 0 -222 78l42 94q95 -62 171 -62q61 0 93 38q28 33 28 87q0 55 -29 89q-31 34 -84 34q-55 0 -93 -41l-92 24l30 363h347v-106h-245l-14 -163q44 26 99 26q90 0 147 -62z" />
    <glyph glyph-name="six" unicode="6" horiz-adv-x="538" 
d="M94 92q-56 90 -56 236q0 126 44 217q63 163 223 163q102 0 175 -52l-37 -87q-66 39 -133 39q-98 0 -137 -104q-26 -54 -28 -131l3 -1q54 84 156 84q86 0 142 -64t56 -161q0 -105 -63 -172q-63 -68 -162 -68q-120 0 -183 101zM357 133q27 35 27 89q0 55 -26 90
q-28 39 -79 39q-50 0 -78 -38q-26 -35 -26 -90q0 -54 27 -90q29 -38 77 -38q49 0 78 38z" />
    <glyph glyph-name="seven" unicode="7" horiz-adv-x="478" 
d="M451 695v-103q-174 -232 -220 -592h-125q36 304 215 589h-295v106h425z" />
    <glyph glyph-name="eight" unicode="8" horiz-adv-x="562" 
d="M492 301q33 -46 33 -110q0 -86 -63 -141q-67 -59 -181 -59t-181 59q-62 55 -62 141q0 62 34 109q33 48 93 69q-101 44 -101 156q0 81 64 133q61 50 153 50t154 -50q63 -52 63 -133q0 -112 -101 -156q61 -20 95 -68zM207 579q-27 -24 -27 -68q0 -93 101 -93q47 0 74 25
t27 68t-27 68t-74 25t-74 -25zM368 129q32 28 32 77q0 48 -32 77q-32 28 -87 28t-88 -28q-32 -29 -32 -77t32 -76q33 -29 88 -29t87 28z" />
    <glyph glyph-name="nine" unicode="9" horiz-adv-x="535" 
d="M59 41l33 88q69 -37 138 -37q117 0 151 146q14 41 12 95h-2q-49 -89 -153 -89q-86 0 -144 65t-58 162q0 102 62 169q63 68 160 68q112 0 177 -93q63 -87 63 -252q0 -166 -59 -262q-67 -110 -204 -110q-96 0 -176 50zM332 387q27 36 27 90t-26 90q-29 38 -77 38
q-49 0 -78 -38q-27 -36 -27 -90t27 -90q29 -39 77 -39t77 39z" />
    <glyph glyph-name="glyph281" horiz-adv-x="279" 
d="M289 59v-70h-238v70h78v236l-65 -35l-28 67l116 67h58v-335h79z" />
    <glyph glyph-name="zero.tnum.case" horiz-adv-x="606" 
d="M107 102q-62 98 -62 248t62 248q70 110 196 110q125 0 195 -110q63 -99 63 -248q0 -150 -63 -248q-70 -111 -195 -111q-126 0 -196 111zM402 172q32 66 32 178t-32 178q-35 70 -99 70t-98 -70q-33 -66 -33 -178t33 -178q34 -71 98 -71t99 71z" />
    <glyph glyph-name="one.tnum.case" horiz-adv-x="410" 
d="M323 695v-695h-121v548l-118 -71l-43 98l193 120h89z" />
    <glyph glyph-name="two.tnum.case" horiz-adv-x="575" 
d="M497 107v-107h-430v71q0 91 67 170q27 33 75 72l20 17l20 15q23 19 37 31q41 37 57 59q24 33 24 69q0 43 -32 69q-30 25 -78 25q-73 0 -146 -57l-51 89q105 78 211 78q98 0 160 -57q61 -57 61 -143q0 -70 -54 -139q-31 -38 -95 -91l-25 -21l-25 -20q-26 -23 -43 -40
q-46 -46 -53 -90h300z" />
    <glyph glyph-name="three.tnum.case" horiz-adv-x="520" 
d="M473 193q0 -89 -61 -145q-62 -57 -164 -57q-123 0 -214 81l50 90q85 -61 150 -61q50 0 80 26q32 26 32 74q0 52 -37 80q-34 26 -86 26h-58v107h60q47 0 78 25q32 25 32 67q0 39 -26 64q-28 28 -76 28q-56 0 -121 -51l-55 75q86 86 193 86q96 0 154 -60q51 -54 51 -130
q0 -106 -96 -157q114 -48 114 -168z" />
    <glyph glyph-name="four.tnum.case" horiz-adv-x="571" 
d="M533 151h-75v-151h-116v151h-304v92l313 452h107v-442h75v-102zM342 253v260l-184 -260h184z" />
    <glyph glyph-name="five.tnum.case" horiz-adv-x="532" 
d="M433 390q57 -63 57 -163q0 -106 -65 -171t-170 -65q-111 0 -222 78l42 94q95 -62 171 -62q61 0 93 38q28 33 28 87q0 55 -29 89q-31 34 -84 34q-55 0 -93 -41l-92 24l30 363h347v-106h-245l-14 -163q44 26 99 26q90 0 147 -62z" />
    <glyph glyph-name="six.tnum.case" horiz-adv-x="538" 
d="M94 92q-56 90 -56 236q0 126 44 217q63 163 223 163q102 0 175 -52l-37 -87q-66 39 -133 39q-98 0 -137 -104q-26 -54 -28 -131l3 -1q54 84 156 84q86 0 142 -64t56 -161q0 -105 -63 -172q-63 -68 -162 -68q-120 0 -183 101zM357 133q27 35 27 89q0 55 -26 90
q-28 39 -79 39q-50 0 -78 -38q-26 -35 -26 -90q0 -54 27 -90q29 -38 77 -38q49 0 78 38z" />
    <glyph glyph-name="seven.tnum.case" horiz-adv-x="478" 
d="M451 695v-103q-174 -232 -220 -592h-125q36 304 215 589h-295v106h425z" />
    <glyph glyph-name="eight.tnum.case" horiz-adv-x="562" 
d="M492 301q33 -46 33 -110q0 -86 -63 -141q-67 -59 -181 -59t-181 59q-62 55 -62 141q0 62 34 109q33 48 93 69q-101 44 -101 156q0 81 64 133q61 50 153 50t154 -50q63 -52 63 -133q0 -112 -101 -156q61 -20 95 -68zM207 579q-27 -24 -27 -68q0 -93 101 -93q47 0 74 25
t27 68t-27 68t-74 25t-74 -25zM368 129q32 28 32 77q0 48 -32 77q-32 28 -87 28t-88 -28q-32 -29 -32 -77t32 -76q33 -29 88 -29t87 28z" />
    <glyph glyph-name="nine.tnum.case" horiz-adv-x="535" 
d="M59 41l33 88q69 -37 138 -37q117 0 151 146q14 41 12 95h-2q-49 -89 -153 -89q-86 0 -144 65t-58 162q0 102 62 169q63 68 160 68q112 0 177 -93q63 -87 63 -252q0 -166 -59 -262q-67 -110 -204 -110q-96 0 -176 50zM332 387q27 36 27 90t-26 90q-29 38 -77 38
q-49 0 -78 -38q-27 -36 -27 -90t27 -90q29 -39 77 -39t77 39z" />
    <glyph glyph-name="zero.numr" horiz-adv-x="345" 
d="M72 358q-39 58 -39 149t39 148q41 60 113 60q71 0 113 -60q39 -58 39 -148q0 -91 -39 -149q-42 -61 -113 -61q-72 0 -113 61zM251 507q0 136 -66 136t-66 -136q0 -137 66 -137t66 137z" />
    <glyph glyph-name="one.numr" horiz-adv-x="233" 
d="M198 708v-405h-81v306l-65 -35l-27 67l116 67h57z" />
    <glyph glyph-name="two.numr" horiz-adv-x="299" 
d="M289 373v-71h-250v44q0 57 36 99q15 19 41 42l21 19l21 19q41 37 41 66q0 24 -16 38t-41 14q-35 0 -85 -33l-28 59q63 46 127 46q55 0 91 -31q37 -33 37 -86q0 -50 -47 -100q-15 -16 -40 -39l-22 -19l-22 -20q-27 -28 -30 -47h166z" />
    <glyph glyph-name="three.numr" horiz-adv-x="283" 
d="M259 479q22 -27 22 -66q0 -51 -35 -83q-37 -33 -96 -33q-71 0 -124 47l30 58q41 -33 84 -33q56 0 56 53q0 56 -66 56h-33v70h32q24 0 41 13q19 13 19 36q0 47 -53 47q-30 0 -68 -24l-32 52q52 43 110 43q54 0 89 -32q34 -31 34 -78q0 -60 -57 -90q30 -13 47 -36z" />
    <glyph glyph-name="four.numr" horiz-adv-x="316" 
d="M322 388h-43v-85h-77v85h-170v64l175 256h72v-253h43v-67zM202 455v140l-96 -140h96z" />
    <glyph glyph-name="five.numr" horiz-adv-x="292" 
d="M262 532q30 -35 30 -93q0 -64 -39 -103q-39 -38 -99 -38q-65 0 -127 42l24 62q22 -14 42 -22q26 -10 49 -10q66 0 66 70q0 60 -51 60q-29 0 -49 -27l-62 21l16 214h207v-70h-136l-7 -83q23 13 51 13q53 0 85 -36z" />
    <glyph glyph-name="six.numr" horiz-adv-x="307" 
d="M70 353q-36 53 -36 142q0 92 36 147q41 73 121 73q60 0 100 -27l-19 -59q-40 19 -77 19q-49 0 -72 -44q-21 -35 -21 -86l1 -2q23 56 87 56q50 0 83 -38q32 -38 32 -95q0 -63 -36 -102q-36 -40 -95 -40q-67 0 -104 56zM225 433q0 68 -50 68q-51 0 -51 -67q0 -66 52 -66
q49 0 49 65z" />
    <glyph glyph-name="seven.numr" horiz-adv-x="258" 
d="M267 708v-65q-98 -131 -121 -340h-83q17 164 113 335h-159v70h250z" />
    <glyph glyph-name="eight.numr" horiz-adv-x="309" 
d="M308 414q0 -51 -37 -84q-39 -33 -104 -33q-64 0 -103 34q-37 32 -37 83q0 80 73 105q-59 23 -59 90q0 46 36 76t90 30q55 0 91 -30t36 -76q0 -66 -59 -90q73 -26 73 -105zM119 598q0 -47 48 -47q49 0 49 47q0 49 -49 49q-48 0 -48 -49zM226 425q0 55 -59 55
q-58 0 -58 -56q0 -54 58 -54q59 0 59 55z" />
    <glyph glyph-name="nine.numr" horiz-adv-x="303" 
d="M44 324l19 60q37 -21 77 -21q57 0 78 57q14 36 12 80l-3 -2q-22 -56 -87 -56q-51 0 -83 38q-30 37 -30 94q0 63 37 102q36 39 93 39q66 0 103 -57q37 -58 37 -153q0 -94 -35 -148q-39 -60 -116 -60q-55 0 -102 27zM204 578q0 68 -49 68q-51 0 -51 -67t49 -67q51 0 51 66z
" />
    <glyph glyph-name="glyph302" horiz-adv-x="279" 
d="M289 373v-70h-238v70h78v236l-65 -35l-28 67l116 67h58v-335h79z" />
    <glyph glyph-name="glyph303" horiz-adv-x="681" 
d="M498 598q63 -99 63 -248q0 -150 -63 -248q-70 -111 -195 -111q-126 0 -196 111q-62 98 -62 248t62 248q70 110 196 110q125 0 195 -110zM205 528q-33 -66 -33 -178q0 -52 7 -93l208 295q-32 46 -84 46q-64 0 -98 -70zM402 172q32 66 32 178q0 43 -7 92l-208 -295
q32 -46 84 -46q64 0 99 71z" />
    <glyph glyph-name="zero.tnum" horiz-adv-x="587" 
d="M97 102q-62 98 -62 248q0 149 62 248q70 110 196 110t196 -110q63 -99 63 -248q0 -150 -63 -248q-70 -111 -196 -111t-196 111zM392 172q32 65 32 178q0 112 -32 178q-35 70 -99 70q-63 0 -98 -70q-32 -66 -32 -178t32 -178q35 -71 98 -71q64 0 99 71z" />
    <glyph glyph-name="one.tnum" horiz-adv-x="587" 
d="M507 107v-107h-420v107h149v441l-118 -71l-43 98l193 120h89v-588h150z" />
    <glyph glyph-name="two.tnum" horiz-adv-x="587" 
d="M513 107v-107h-430v71q0 89 67 170q28 33 76 73l20 16l19 16q24 19 37 30q41 37 57 59q24 33 24 69q0 43 -32 69q-30 25 -78 25q-71 0 -146 -57l-51 89q107 78 211 78q99 0 160 -57q61 -56 61 -143q0 -72 -54 -139q-31 -39 -95 -91l-25 -21l-24 -20q-27 -23 -44 -40
q-46 -46 -53 -90h300z" />
    <glyph glyph-name="three.tnum" horiz-adv-x="587" 
d="M513 193q0 -89 -62 -145q-62 -57 -164 -57q-124 0 -213 81l50 90q85 -61 149 -61q50 0 80 26q32 26 32 74q0 52 -37 80q-34 26 -86 26h-57v107h59q48 0 78 25q32 25 32 67q0 39 -26 64q-28 28 -76 28q-57 0 -120 -51l-55 75q85 86 193 86q96 0 154 -60q51 -54 51 -130
q0 -107 -97 -157q115 -49 115 -168z" />
    <glyph glyph-name="four.tnum" horiz-adv-x="587" 
d="M554 151h-74v-151h-117v151h-303v92l312 452h108v-442h74v-102zM363 253v260l-184 -260h184z" />
    <glyph glyph-name="five.tnum" horiz-adv-x="587" 
d="M460 390q57 -63 57 -163q0 -106 -64 -171q-65 -65 -170 -65q-112 0 -223 78l43 94q93 -62 171 -62q61 0 92 38q28 33 28 87q0 55 -29 89q-30 34 -83 34q-55 0 -93 -41l-92 24l30 363h347v-106h-245l-15 -163q44 26 100 26q90 0 146 -62z" />
    <glyph glyph-name="six.tnum" horiz-adv-x="587" 
d="M119 92q-55 90 -55 236q0 128 43 217q63 163 223 163q101 0 175 -51l-37 -88q-64 38 -133 38q-98 0 -137 -103q-26 -55 -28 -132h3q55 84 157 84q85 0 141 -64t56 -161q0 -105 -63 -172q-63 -68 -162 -68q-120 0 -183 101zM382 133q27 35 27 89q0 55 -26 90
q-28 39 -79 39q-49 0 -77 -38q-26 -35 -26 -90q0 -54 26 -90q29 -38 77 -38q49 0 78 38z" />
    <glyph glyph-name="seven.tnum" horiz-adv-x="587" 
d="M506 695v-103q-176 -235 -220 -592h-126q38 305 216 589h-295v106h425z" />
    <glyph glyph-name="eight.tnum" horiz-adv-x="587" 
d="M504 301q33 -47 33 -110q0 -86 -62 -141q-67 -59 -181 -59t-181 59q-63 55 -63 141q0 62 34 110t93 68q-101 44 -101 156q0 81 64 133q62 50 154 50q91 0 153 -50q64 -52 64 -133q0 -111 -101 -156q60 -20 94 -68zM219 579q-26 -24 -26 -68t26 -68q27 -25 74 -25t74 25
t27 68t-27 68t-74 25t-74 -25zM380 129q32 28 32 77q0 48 -32 77q-32 28 -87 28t-87 -28q-32 -29 -32 -77t32 -76q32 -29 87 -29t87 28z" />
    <glyph glyph-name="nine.tnum" horiz-adv-x="587" 
d="M85 41l33 88q68 -37 138 -37q117 0 151 146q13 39 13 95h-3q-47 -89 -153 -89q-86 0 -143 65q-58 65 -58 162q0 102 62 169q62 68 159 68q112 0 177 -93q63 -87 63 -252q0 -166 -59 -262q-67 -110 -204 -110q-98 0 -176 50zM359 387q27 36 27 90t-27 90q-29 38 -77 38
q-49 0 -77 -38q-27 -36 -27 -90q0 -55 26 -90q29 -39 77 -39t78 39z" />
    <glyph glyph-name="fraction" unicode="&#x2044;" horiz-adv-x="254" 
d="M305 716h86l-442 -725h-86z" />
    <glyph glyph-name="onehalf" unicode="&#xbd;" horiz-adv-x="764" 
d="M652 716l-442 -725h-86l442 725h86zM35 303v70h78v236l-65 -35l-28 67l116 67h58v-335h79v-70h-238zM735 59v-71h-251v44q0 56 37 99q15 19 40 42l22 19l21 19q41 36 41 66q0 23 -16 38q-16 13 -41 13q-36 0 -85 -32l-29 59q67 46 127 46q55 0 91 -31q37 -33 37 -86
q0 -50 -46 -100q-15 -16 -41 -39l-21 -19l-22 -20q-26 -26 -30 -47h166z" />
    <glyph glyph-name="onethird" unicode="&#x2153;" horiz-adv-x="770" 
d="M652 716l-442 -725h-86l442 725h86zM35 303v70h78v236l-65 -35l-28 67l116 67h58v-335h79v-70h-238zM719 165q22 -27 22 -66q0 -51 -35 -83q-36 -33 -95 -33q-72 0 -125 47l31 57q19 -14 37 -22q24 -11 46 -11q56 0 56 54q0 56 -66 56h-33v69h32q25 0 42 13q18 13 18 36
q0 47 -53 47q-29 0 -67 -24l-33 53q54 43 110 43q54 0 89 -32q34 -31 34 -78q0 -62 -57 -90q30 -13 47 -36z" />
    <glyph glyph-name="twothirds" unicode="&#x2154;" horiz-adv-x="773" 
d="M661 716l-441 -725h-86l441 725h86zM195 591q0 23 -17 38q-16 14 -40 14q-36 0 -86 -33l-28 59q63 46 127 46q55 0 91 -31q37 -33 37 -86q0 -50 -47 -100q-15 -16 -40 -39l-22 -19l-22 -20q-25 -27 -30 -47h167v-71h-251v44q0 57 36 99q16 20 41 42l22 19l21 19
q41 37 41 66zM722 165q22 -27 22 -66q0 -51 -35 -83q-36 -33 -95 -33q-72 0 -125 47l31 57q19 -14 37 -22q24 -11 46 -11q56 0 56 54q0 56 -66 56h-33v69h32q25 0 42 13q19 13 19 36q0 47 -54 47q-29 0 -67 -24l-33 53q54 43 110 43q54 0 89 -32q34 -31 34 -78
q0 -62 -57 -90q30 -13 47 -36z" />
    <glyph glyph-name="onequarter" unicode="&#xbc;" horiz-adv-x="750" 
d="M657 716l-441 -725h-86l442 725h85zM35 303v70h78v236l-65 -35l-28 67l116 67h58v-335h79v-70h-238zM722 74h-42v-85h-78v85h-170v64l175 256h73v-253h42v-67zM602 141v140l-96 -140h96z" />
    <glyph glyph-name="threequarters" unicode="&#xbe;" horiz-adv-x="745" 
d="M644 716l-441 -725h-86l442 725h85zM188 422q0 56 -66 56h-33v70h32q24 0 41 13q19 13 19 36q0 47 -53 47q-30 0 -68 -24l-32 52q52 43 110 43q54 0 89 -32q34 -31 34 -78q0 -60 -57 -90q30 -13 47 -36q22 -27 22 -66q0 -51 -35 -83q-37 -33 -96 -33q-71 0 -124 47l30 58
q41 -33 84 -33q56 0 56 53zM716 74h-42v-85h-77v85h-171v64l176 256h72v-253h42v-67zM597 141v140l-97 -140h97z" />
    <glyph glyph-name="uni2155" unicode="&#x2155;" horiz-adv-x="766" 
d="M651 716l-441 -725h-86l442 725h85zM35 303v70h78v236l-65 -35l-28 67l116 67h58v-335h79v-70h-238zM707 218q30 -35 30 -93q0 -65 -39 -103q-38 -38 -99 -38q-67 0 -127 41l24 62q21 -13 42 -21q26 -10 49 -10q67 0 67 69q0 61 -52 61q-27 0 -48 -27l-62 21l15 214h208
v-70h-137l-7 -83q21 12 51 12q54 0 85 -35z" />
    <glyph glyph-name="uni2156" unicode="&#x2156;" horiz-adv-x="771" 
d="M659 716l-442 -725h-86l442 725h86zM195 591q0 23 -17 38q-16 14 -40 14q-36 0 -86 -33l-28 59q63 46 127 46q55 0 91 -31q37 -33 37 -86q0 -50 -47 -100q-15 -16 -40 -39l-22 -19l-22 -20q-25 -27 -30 -47h167v-71h-251v44q0 57 36 99q16 20 41 42l22 19l21 19
q41 37 41 66zM704 22q-38 -38 -99 -38q-67 0 -127 41l24 62q21 -13 42 -21q26 -10 49 -10q67 0 67 69q0 61 -52 61q-26 0 -49 -27l-62 21l16 214h207v-70h-136l-7 -83q21 12 51 12q53 0 85 -35q30 -35 30 -93q0 -65 -39 -103zM605 -16z" />
    <glyph glyph-name="uni2157" unicode="&#x2157;" horiz-adv-x="755" 
d="M628 716l-442 -725h-86l442 725h86zM188 422q0 56 -66 56h-33v70h32q24 0 41 13q19 13 19 36q0 47 -53 47q-30 0 -68 -24l-32 52q52 43 110 43q54 0 89 -32q34 -31 34 -78q0 -60 -57 -90q30 -13 47 -36q22 -27 22 -66q0 -51 -35 -83q-37 -33 -96 -33q-71 0 -124 47l30 58
q41 -33 84 -33q56 0 56 53zM697 218q30 -35 30 -93q0 -65 -39 -103q-38 -38 -99 -38q-67 0 -127 41l24 62q22 -13 42 -21q26 -10 49 -10q66 0 66 69q0 61 -51 61q-28 0 -49 -27l-62 21l16 214h207v-70h-136l-7 -83q21 12 51 12q53 0 85 -35z" />
    <glyph glyph-name="uni2158" unicode="&#x2158;" horiz-adv-x="776" 
d="M661 716l-442 -725h-86l442 725h86zM188 388h-170v64l175 256h72v-253h43v-67h-43v-85h-77v85zM188 455v140l-96 -140h96zM717 218q30 -35 30 -93q0 -65 -39 -103q-38 -38 -99 -38q-67 0 -127 41l25 62q20 -13 41 -21q26 -10 49 -10q67 0 67 69q0 61 -51 61
q-28 0 -49 -27l-62 21l15 214h208v-70h-137l-7 -83q21 12 52 12q53 0 84 -35z" />
    <glyph glyph-name="uni2159" unicode="&#x2159;" horiz-adv-x="763" 
d="M655 716l-441 -725h-86l441 725h86zM35 303v70h78v236l-65 -35l-28 67l116 67h58v-335h79v-70h-238zM702 219q32 -37 32 -94q0 -63 -36 -102q-36 -40 -95 -40q-67 0 -104 56q-36 52 -36 142q0 92 36 147q42 73 121 73q60 0 100 -27l-19 -59q-41 18 -77 18q-48 0 -72 -43
q-20 -33 -20 -87l1 -1q22 55 86 55q51 0 83 -38zM654 119q0 67 -50 67t-50 -66t51 -66q49 0 49 65z" />
    <glyph glyph-name="uni215A" unicode="&#x215a;" horiz-adv-x="759" 
d="M636 716l-442 -725h-86l442 725h86zM182 391q17 19 17 49q0 60 -51 60q-29 0 -49 -27l-62 21l15 214h208v-70h-137l-7 -83q23 13 52 13q53 0 84 -36q30 -35 30 -93q0 -64 -39 -103q-38 -38 -99 -38q-64 0 -127 42l25 62q21 -14 41 -22q27 -10 49 -10q32 0 50 21zM699 219
q32 -37 32 -94q0 -63 -36 -102q-37 -40 -95 -40q-67 0 -105 56q-36 53 -36 142q0 90 37 147q42 73 120 73q60 0 100 -27l-18 -59q-43 18 -78 18q-48 0 -72 -43q-20 -36 -20 -87l1 -1q24 55 86 55q51 0 84 -38zM651 119q0 67 -51 67q-50 0 -50 -66t51 -66q50 0 50 65z" />
    <glyph glyph-name="uni2150" unicode="&#x2150;" horiz-adv-x="768" 
d="M648 716l-442 -725h-86l442 725h86zM35 303v70h78v236l-65 -35l-28 67l116 67h58v-335h79v-70h-238zM739 394v-65q-98 -131 -121 -340h-83q18 165 113 335h-159v70h250z" />
    <glyph glyph-name="glyph327" 
d="M657 716l-442 -725h-86l442 725h86zM195 591q0 23 -17 38q-16 14 -40 14q-36 0 -86 -33l-28 59q63 46 127 46q55 0 91 -31q37 -33 37 -86q0 -50 -47 -100q-15 -16 -40 -39l-22 -19l-22 -20q-25 -27 -30 -47h167v-71h-251v44q0 57 36 99q16 20 41 42l22 19l21 19
q41 37 41 66zM746 394v-65q-100 -133 -121 -340h-83q18 165 113 335h-159v70h250z" />
    <glyph glyph-name="glyph328" horiz-adv-x="765" 
d="M633 716l-442 -725h-86l442 725h86zM188 422q0 56 -66 56h-33v70h32q24 0 41 13q19 13 19 36q0 47 -53 47q-30 0 -68 -24l-32 52q52 43 110 43q54 0 89 -32q34 -31 34 -78q0 -60 -57 -90q30 -13 47 -36q22 -27 22 -66q0 -51 -35 -83q-37 -33 -96 -33q-71 0 -124 47l30 58
q41 -33 84 -33q56 0 56 53zM737 394v-65q-100 -133 -121 -340h-83q16 165 113 335h-159v70h250z" />
    <glyph glyph-name="glyph329" horiz-adv-x="785" 
d="M656 716l-442 -725h-85l441 725h86zM188 388h-170v64l175 256h72v-253h43v-67h-43v-85h-77v85zM188 455v140l-96 -140h96zM756 394v-65q-98 -131 -121 -340h-82q16 164 112 335h-158v70h249z" />
    <glyph glyph-name="glyph330" horiz-adv-x="765" 
d="M635 716l-442 -725h-86l442 725h86zM182 391q17 19 17 49q0 60 -51 60q-29 0 -49 -27l-62 21l15 214h208v-70h-137l-7 -83q23 13 52 13q53 0 84 -36q30 -35 30 -93q0 -64 -39 -103q-38 -38 -99 -38q-64 0 -127 42l25 62q21 -14 41 -22q27 -10 49 -10q32 0 50 21zM736 394
v-65q-98 -131 -121 -340h-83q18 165 113 335h-159v70h250z" />
    <glyph glyph-name="glyph331" horiz-adv-x="772" 
d="M640 716l-441 -725h-86l442 725h85zM262 337q-37 -40 -95 -40q-67 0 -105 56q-36 53 -36 142q0 90 37 147q41 73 121 73q59 0 99 -27l-18 -59q-40 19 -78 19q-48 0 -72 -44q-20 -36 -20 -86l1 -2q23 56 86 56q51 0 84 -38q32 -38 32 -95q0 -63 -36 -102zM168 368
q50 0 50 65q0 68 -50 68q-51 0 -51 -67q0 -66 51 -66zM744 394v-65q-100 -133 -121 -340h-83q18 165 113 335h-159v70h250z" />
    <glyph glyph-name="oneeighth" unicode="&#x215b;" horiz-adv-x="779" 
d="M650 716l-441 -725h-86l442 725h85zM35 303v70h78v236l-65 -35l-28 67l116 67h58v-335h79v-70h-238zM750 100q0 -51 -37 -84q-39 -33 -104 -33q-64 0 -103 33q-37 33 -37 84q0 80 73 104q-59 25 -59 91q0 46 36 76t90 30q55 0 91 -30t36 -76q0 -65 -59 -91
q73 -24 73 -104zM562 284q0 -48 47 -48q49 0 49 48t-49 48q-47 0 -47 -48zM668 111q0 54 -59 54q-58 0 -58 -55q0 -54 58 -54q59 0 59 55z" />
    <glyph glyph-name="threeeighths" unicode="&#x215c;" horiz-adv-x="768" 
d="M633 716l-441 -725h-86l441 725h86zM188 422q0 56 -66 56h-33v70h32q24 0 41 13q19 13 19 36q0 47 -53 47q-30 0 -68 -24l-32 52q52 43 110 43q54 0 89 -32q34 -31 34 -78q0 -60 -57 -90q30 -13 47 -36q22 -27 22 -66q0 -51 -35 -83q-37 -33 -96 -33q-71 0 -124 47l30 58
q41 -33 84 -33q56 0 56 53zM739 100q0 -51 -37 -84q-39 -33 -104 -33q-64 0 -103 33q-37 33 -37 84q0 80 73 104q-59 25 -59 91q0 46 36 76t90 30q55 0 91 -30t36 -76q0 -65 -59 -91q73 -24 73 -104zM551 284q0 -48 47 -48q49 0 49 48t-49 48q-47 0 -47 -48zM657 111
q0 54 -59 54q-58 0 -58 -55q0 -24 16 -39t42 -15q59 0 59 55z" />
    <glyph glyph-name="fiveeighths" unicode="&#x215d;" horiz-adv-x="769" 
d="M637 716l-442 -725h-86l442 725h86zM182 391q17 19 17 49q0 60 -51 60q-29 0 -49 -27l-62 21l15 214h208v-70h-137l-7 -83q23 13 52 13q53 0 84 -36q30 -35 30 -93q0 -64 -39 -103q-38 -38 -99 -38q-64 0 -127 42l25 62q21 -14 41 -22q27 -10 49 -10q32 0 50 21zM740 100
q0 -51 -37 -84q-39 -33 -103 -33t-103 33q-38 33 -38 84q0 80 73 104q-59 25 -59 91q0 46 36 76t91 30t90 -30q36 -30 36 -76q0 -66 -59 -91q73 -24 73 -104zM552 284q0 -48 47 -48q49 0 49 48t-49 48q-47 0 -47 -48zM658 111q0 54 -59 54q-57 0 -57 -55q0 -54 57 -54
q59 0 59 55z" />
    <glyph glyph-name="seveneighths" unicode="&#x215e;" horiz-adv-x="759" 
d="M631 716l-442 -725h-86l442 725h86zM119 303q16 161 113 335h-159v70h250v-65q-100 -134 -121 -340h-83zM731 100q0 -51 -37 -84q-39 -33 -104 -33q-64 0 -103 33q-37 33 -37 84q0 80 73 104q-59 25 -59 91q0 46 36 76t90 30q55 0 91 -30t36 -76q0 -65 -59 -91
q73 -24 73 -104zM542 284q0 -48 48 -48q49 0 49 48t-49 48q-48 0 -48 -48zM649 111q0 54 -59 54q-58 0 -58 -55q0 -54 58 -54q59 0 59 55z" />
    <glyph glyph-name="uni2151" unicode="&#x2151;" horiz-adv-x="758" 
d="M641 716l-441 -725h-87l442 725h86zM35 303v70h78v236l-65 -35l-28 67l116 67h58v-335h79v-70h-238zM730 190q0 -93 -35 -147q-39 -60 -117 -60q-52 0 -102 26l19 60q40 -20 77 -20q57 0 79 57q13 38 11 80l-3 -2q-22 -56 -86 -56q-52 0 -84 38q-30 37 -30 94
q0 62 37 102q36 39 94 39q66 0 103 -58t37 -153zM637 263q0 30 -13 49q-14 20 -37 20q-51 0 -51 -68q0 -67 50 -67q51 0 51 66z" />
    <glyph glyph-name="glyph337" horiz-adv-x="772" 
d="M658 716l-441 -725h-87l442 725h86zM195 591q0 23 -17 38q-16 14 -40 14q-36 0 -86 -33l-28 59q63 46 127 46q55 0 91 -31q37 -33 37 -86q0 -50 -47 -100q-15 -16 -40 -39l-22 -19l-22 -20q-25 -27 -30 -47h167v-71h-251v44q0 57 36 99q16 20 41 42l22 19l21 19
q41 37 41 66zM743 190q0 -93 -35 -147q-39 -60 -116 -60q-54 0 -102 26l19 60q38 -20 77 -20q57 0 78 57q14 36 12 80l-3 -2q-22 -56 -87 -56q-51 0 -83 38q-30 37 -30 94q0 62 37 102q36 39 93 39q66 0 103 -58q37 -56 37 -153zM650 263q0 69 -49 69q-51 0 -51 -68
q0 -67 49 -67q51 0 51 66z" />
    <glyph glyph-name="glyph338" horiz-adv-x="769" 
d="M656 716l-441 -725h-86l441 725h86zM188 388h-170v64l175 256h72v-253h43v-67h-43v-85h-77v85zM188 455v140l-96 -140h96zM741 190q0 -93 -35 -147q-39 -60 -116 -60q-54 0 -102 26l18 60q40 -20 77 -20q58 0 79 57q14 38 11 80l-3 -2q-22 -56 -86 -56q-51 0 -83 38
q-30 37 -30 94q0 62 37 102q36 39 93 39q66 0 103 -58q37 -56 37 -153zM648 263q0 30 -13 49q-14 20 -37 20q-51 0 -51 -68q0 -67 50 -67q51 0 51 66z" />
    <glyph glyph-name="glyph339" horiz-adv-x="753" 
d="M629 716l-442 -725h-85l441 725h86zM182 391q17 19 17 49q0 60 -51 60q-29 0 -49 -27l-62 21l15 214h208v-70h-137l-7 -83q23 13 52 13q53 0 84 -36q30 -35 30 -93q0 -64 -39 -103q-38 -38 -99 -38q-64 0 -127 42l25 62q21 -14 41 -22q27 -10 49 -10q32 0 50 21zM724 190
q0 -93 -35 -147q-39 -60 -116 -60q-54 0 -102 26l18 60q40 -20 78 -20q57 0 78 57q14 38 11 80l-3 -2q-22 -56 -86 -56q-51 0 -83 38q-30 37 -30 94q0 62 37 102q36 39 93 39q66 0 103 -58q37 -56 37 -153zM631 263q0 69 -49 69q-51 0 -51 -68q0 -67 49 -67q51 0 51 66z" />
    <glyph glyph-name="glyph340" horiz-adv-x="744" 
d="M600 716l-442 -725h-86l442 725h86zM81 303q17 164 113 335h-159v70h250v-65q-100 -134 -121 -340h-83zM716 190q0 -93 -35 -147q-39 -60 -116 -60q-54 0 -102 26l18 60q40 -20 77 -20q58 0 79 57q14 38 11 80l-3 -2q-22 -56 -86 -56q-51 0 -83 38q-30 37 -30 94
q0 62 37 102q36 39 93 39q66 0 103 -58q37 -56 37 -153zM623 263q0 30 -13 49q-14 20 -37 20q-51 0 -51 -68q0 -67 50 -67q51 0 51 66z" />
    <glyph glyph-name="glyph341" horiz-adv-x="757" 
d="M645 716l-442 -725h-86l442 725h86zM271 330q-39 -33 -103 -33t-103 34q-38 32 -38 83q0 79 73 105q-59 23 -59 90q0 46 36 76t91 30t90 -30q36 -30 36 -76q0 -67 -59 -90q73 -25 73 -105q0 -51 -37 -84zM120 598q0 -47 47 -47q49 0 49 47q0 49 -49 49q-47 0 -47 -49z
M125 385q16 -15 42 -15q59 0 59 55t-59 55q-58 0 -58 -56q0 -24 16 -39zM729 190q0 -93 -35 -147q-39 -60 -116 -60q-54 0 -102 26l18 60q40 -20 77 -20q58 0 79 57q14 38 11 80l-3 -2q-22 -56 -86 -56q-51 0 -83 38q-30 37 -30 94q0 62 37 102q36 39 93 39q66 0 103 -58
q37 -56 37 -153zM636 263q0 30 -13 49q-14 20 -37 20q-51 0 -51 -68q0 -67 50 -67q51 0 51 66z" />
    <glyph glyph-name="zero.dnom" horiz-adv-x="345" 
d="M72 45q-39 58 -39 149t39 148q41 60 113 60q71 0 113 -60q39 -58 39 -148q0 -91 -39 -149q-42 -61 -113 -61q-72 0 -113 61zM251 194q0 136 -66 136t-66 -136q0 -137 66 -137t66 137z" />
    <glyph glyph-name="one.dnom" horiz-adv-x="233" 
d="M198 394v-405h-81v306l-65 -35l-27 67l116 67h57z" />
    <glyph glyph-name="two.dnom" horiz-adv-x="299" 
d="M289 59v-71h-250v44q0 57 36 99q15 19 41 42l21 19l21 19q41 37 41 66q0 24 -16 38t-41 14q-35 0 -85 -33l-28 59q63 46 127 46q55 0 91 -31q37 -33 37 -86q0 -50 -47 -100q-15 -16 -40 -39l-22 -19l-22 -20q-25 -26 -30 -47h166z" />
    <glyph glyph-name="three.dnom" horiz-adv-x="283" 
d="M259 165q22 -27 22 -66q0 -51 -35 -83q-37 -33 -96 -33q-71 0 -124 47l30 58q41 -33 84 -33q56 0 56 53q0 56 -66 56h-33v70h32q24 0 41 13q19 13 19 36q0 47 -53 47q-30 0 -68 -24l-32 52q52 43 110 43q54 0 89 -32q34 -31 34 -78q0 -60 -57 -90q30 -13 47 -36z" />
    <glyph glyph-name="four.dnom" horiz-adv-x="316" 
d="M322 74h-43v-85h-77v85h-170v64l175 256h72v-253h43v-67zM202 141v141l-96 -141h96z" />
    <glyph glyph-name="five.dnom" horiz-adv-x="292" 
d="M262 218q30 -35 30 -93q0 -64 -39 -103q-39 -38 -99 -38q-65 0 -127 42l24 62q22 -14 42 -22q26 -10 49 -10q66 0 66 70q0 60 -51 60q-29 0 -49 -27l-62 21l16 214h207v-70h-136l-7 -83q23 13 51 13q53 0 85 -36z" />
    <glyph glyph-name="six.dnom" horiz-adv-x="307" 
d="M70 39q-36 53 -36 142q0 92 36 147q41 73 121 73q60 0 100 -27l-19 -59q-40 19 -77 19q-49 0 -72 -44q-21 -35 -21 -86l1 -2q23 56 87 56q50 0 83 -38q32 -38 32 -95q0 -63 -36 -102q-36 -40 -95 -40q-67 0 -104 56zM225 119q0 68 -50 68q-51 0 -51 -67q0 -66 52 -66
q49 0 49 65z" />
    <glyph glyph-name="seven.dnom" horiz-adv-x="258" 
d="M267 394v-65q-98 -131 -121 -340h-83q17 164 113 335h-159v70h250z" />
    <glyph glyph-name="eight.dnom" horiz-adv-x="309" 
d="M308 100q0 -51 -37 -84q-39 -33 -104 -33q-64 0 -103 34q-37 32 -37 83q0 79 73 105q-59 23 -59 90q0 46 36 76t90 30q55 0 91 -30t36 -76q0 -67 -59 -90q73 -25 73 -105zM119 284q0 -47 48 -47q49 0 49 47q0 49 -49 49q-48 0 -48 -49zM226 111q0 55 -59 55
q-58 0 -58 -56q0 -54 58 -54q59 0 59 55z" />
    <glyph glyph-name="nine.dnom" horiz-adv-x="303" 
d="M44 10l19 60q37 -21 77 -21q57 0 78 57q14 36 12 80l-3 -2q-22 -56 -87 -56q-51 0 -83 38q-30 37 -30 94q0 63 37 102q36 39 93 39q66 0 103 -57q37 -58 37 -153q0 -94 -35 -148q-39 -60 -116 -60q-55 0 -102 27zM204 264q0 68 -49 68q-51 0 -51 -67t49 -67q51 0 51 66z
" />
    <glyph glyph-name="uni2080" unicode="&#x2080;" horiz-adv-x="345" 
d="M72 -144q-39 58 -39 149t39 148q41 60 113 60q71 0 113 -60q39 -58 39 -148q0 -91 -39 -149q-42 -61 -113 -61q-72 0 -113 61zM251 5q0 136 -66 136t-66 -136q0 -137 66 -137t66 137z" />
    <glyph glyph-name="uni2081" unicode="&#x2081;" horiz-adv-x="233" 
d="M198 206v-405h-81v306l-65 -35l-27 67l116 67h57z" />
    <glyph glyph-name="uni2082" unicode="&#x2082;" horiz-adv-x="299" 
d="M289 -129v-71h-250v44q0 57 36 99q15 19 41 42l21 19l21 19q41 37 41 66q0 24 -16 38t-41 14q-35 0 -85 -33l-28 59q63 46 127 46q55 0 91 -31q37 -33 37 -86q0 -50 -47 -100q-15 -16 -40 -39l-22 -19l-22 -20q-25 -26 -30 -47h166z" />
    <glyph glyph-name="uni2083" unicode="&#x2083;" horiz-adv-x="283" 
d="M259 -23q22 -27 22 -66q0 -51 -35 -83q-37 -33 -96 -33q-71 0 -124 47l30 58q41 -33 84 -33q56 0 56 53q0 56 -66 56h-33v70h32q24 0 41 13q19 13 19 36q0 47 -53 47q-30 0 -68 -24l-32 52q52 43 110 43q54 0 89 -32q34 -31 34 -78q0 -60 -57 -90q30 -13 47 -36z" />
    <glyph glyph-name="uni2084" unicode="&#x2084;" horiz-adv-x="316" 
d="M322 -114h-43v-85h-77v85h-170v64l175 256h72v-253h43v-67zM202 -47v141l-96 -141h96z" />
    <glyph glyph-name="uni2085" unicode="&#x2085;" horiz-adv-x="292" 
d="M262 30q30 -35 30 -93q0 -64 -39 -103q-39 -38 -99 -38q-65 0 -127 42l24 62q22 -14 42 -22q26 -10 49 -10q66 0 66 70q0 60 -51 60q-29 0 -49 -27l-62 21l16 214h207v-70h-136l-7 -83q23 13 51 13q53 0 85 -36z" />
    <glyph glyph-name="uni2086" unicode="&#x2086;" horiz-adv-x="307" 
d="M70 -149q-36 53 -36 142q0 92 36 147q41 73 121 73q60 0 100 -27l-19 -59q-40 19 -77 19q-49 0 -72 -44q-21 -35 -21 -86l1 -2q23 56 87 56q50 0 83 -38q32 -38 32 -95q0 -63 -36 -102q-36 -40 -95 -40q-67 0 -104 56zM225 -69q0 68 -50 68q-51 0 -51 -67q0 -66 52 -66
q49 0 49 65z" />
    <glyph glyph-name="uni2087" unicode="&#x2087;" horiz-adv-x="258" 
d="M267 206v-65q-98 -131 -121 -340h-83q17 164 113 335h-159v70h250z" />
    <glyph glyph-name="uni2088" unicode="&#x2088;" horiz-adv-x="309" 
d="M308 -88q0 -51 -37 -84q-39 -33 -104 -33q-64 0 -103 34q-37 32 -37 83q0 79 73 105q-59 23 -59 90q0 46 36 76t90 30q55 0 91 -30t36 -76q0 -67 -59 -90q73 -25 73 -105zM119 96q0 -47 48 -47q49 0 49 47q0 49 -49 49q-48 0 -48 -49zM226 -77q0 55 -59 55q-58 0 -58 -56
q0 -54 58 -54q59 0 59 55z" />
    <glyph glyph-name="uni2089" unicode="&#x2089;" horiz-adv-x="303" 
d="M44 -178l19 60q37 -21 77 -21q57 0 78 57q14 36 12 80l-3 -2q-22 -56 -87 -56q-51 0 -83 38q-30 37 -30 94q0 63 37 102q36 39 93 39q66 0 103 -57q37 -58 37 -153q0 -94 -35 -148q-39 -60 -116 -60q-55 0 -102 27zM204 76q0 68 -49 68q-51 0 -51 -67t49 -67q51 0 51 66z
" />
    <glyph glyph-name="uni2070" unicode="&#x2070;" horiz-adv-x="345" 
d="M72 518q-39 58 -39 149t39 148q41 60 113 60q71 0 113 -60q39 -58 39 -148q0 -91 -39 -149q-42 -61 -113 -61q-72 0 -113 61zM251 667q0 136 -66 136t-66 -136q0 -137 66 -137t66 137z" />
    <glyph glyph-name="uni00B9" unicode="&#xb9;" horiz-adv-x="233" 
d="M198 868v-405h-81v306l-65 -35l-27 67l116 67h57z" />
    <glyph glyph-name="uni00B2" unicode="&#xb2;" horiz-adv-x="299" 
d="M289 533v-71h-250v44q0 57 36 99q15 19 41 42l21 19l21 19q41 37 41 66q0 24 -16 38t-41 14q-35 0 -85 -33l-28 59q63 46 127 46q55 0 91 -31q37 -33 37 -86q0 -50 -47 -100q-15 -16 -40 -39l-22 -19l-22 -20q-25 -26 -30 -47h166z" />
    <glyph glyph-name="uni00B3" unicode="&#xb3;" horiz-adv-x="283" 
d="M259 639q22 -27 22 -66q0 -51 -35 -83q-37 -33 -96 -33q-71 0 -124 47l30 58q41 -33 84 -33q56 0 56 53q0 56 -66 56h-33v70h32q24 0 41 13q19 13 19 36q0 47 -53 47q-30 0 -68 -24l-32 52q52 43 110 43q54 0 89 -32q34 -31 34 -78q0 -60 -57 -90q30 -13 47 -36z" />
    <glyph glyph-name="uni2074" unicode="&#x2074;" horiz-adv-x="316" 
d="M322 548h-43v-85h-77v85h-170v64l175 256h72v-253h43v-67zM202 615v141l-96 -141h96z" />
    <glyph glyph-name="uni2075" unicode="&#x2075;" horiz-adv-x="292" 
d="M262 692q30 -35 30 -93q0 -64 -39 -103q-39 -38 -99 -38q-65 0 -127 42l24 62q22 -14 42 -22q26 -10 49 -10q66 0 66 70q0 60 -51 60q-29 0 -49 -27l-62 21l16 214h207v-70h-136l-7 -83q23 13 51 13q53 0 85 -36z" />
    <glyph glyph-name="uni2076" unicode="&#x2076;" horiz-adv-x="307" 
d="M70 513q-36 53 -36 142q0 92 36 147q41 73 121 73q60 0 100 -27l-19 -59q-40 19 -77 19q-49 0 -72 -44q-21 -35 -21 -86l1 -2q23 56 87 56q50 0 83 -38q32 -38 32 -95q0 -63 -36 -102q-36 -40 -95 -40q-67 0 -104 56zM225 593q0 68 -50 68q-51 0 -51 -67q0 -66 52 -66
q49 0 49 65z" />
    <glyph glyph-name="uni2077" unicode="&#x2077;" horiz-adv-x="258" 
d="M267 868v-65q-98 -131 -121 -340h-83q17 164 113 335h-159v70h250z" />
    <glyph glyph-name="uni2078" unicode="&#x2078;" horiz-adv-x="309" 
d="M308 574q0 -51 -37 -84q-39 -33 -104 -33q-64 0 -103 34q-37 32 -37 83q0 79 73 105q-59 23 -59 90q0 46 36 76t90 30q55 0 91 -30t36 -76q0 -67 -59 -90q73 -25 73 -105zM119 758q0 -47 48 -47q49 0 49 47q0 49 -49 49q-48 0 -48 -49zM226 585q0 55 -59 55
q-58 0 -58 -56q0 -54 58 -54q59 0 59 55z" />
    <glyph glyph-name="uni2079" unicode="&#x2079;" horiz-adv-x="303" 
d="M44 484l19 60q37 -21 77 -21q57 0 78 57q14 36 12 80l-3 -2q-22 -56 -87 -56q-51 0 -83 38q-30 37 -30 94q0 63 37 102q36 39 93 39q66 0 103 -57q37 -58 37 -153q0 -94 -35 -148q-39 -60 -116 -60q-55 0 -102 27zM204 738q0 68 -49 68q-51 0 -51 -67t49 -67q51 0 51 66z
" />
    <glyph glyph-name="asterisk" unicode="*" horiz-adv-x="486" 
d="M201 409l10 91l-70 -61l-18 -12l-42 74l16 13l83 42l-83 42l-16 12l42 75l18 -12l70 -62l-10 91v25h84v-25l-10 -91l71 62l17 12l43 -75l-17 -12l-82 -42l82 -42l17 -13l-43 -74l-18 12l-70 61l10 -91v-24h-84v24z" />
    <glyph glyph-name="backslash" unicode="\" horiz-adv-x="483" 
d="M-5 750h115l321 -802h-117z" />
    <glyph glyph-name="periodcentered" unicode="&#xb7;" horiz-adv-x="297" 
d="M83 332h131v-135h-131v135z" />
    <glyph glyph-name="bullet" unicode="&#x2022;" horiz-adv-x="487" 
d="M142 259q-41 41 -41 102t41 102q41 42 101 42q61 0 102 -42q41 -41 41 -102t-41 -102q-41 -42 -102 -42q-60 0 -101 42z" />
    <glyph glyph-name="colon" unicode=":" horiz-adv-x="291" 
d="M80 499h131v-135h-131v135zM80 135h131v-135h-131v135z" />
    <glyph glyph-name="comma" unicode="," horiz-adv-x="295" 
d="M86 -89q42 41 45 89h-48v135h133v-89q0 -66 -15 -103q-19 -45 -75 -91z" />
    <glyph glyph-name="ellipsis" unicode="&#x2026;" horiz-adv-x="740" 
d="M80 135h131v-135h-131v135zM301 135h132v-135h-132v135zM522 135h131v-135h-131v135z" />
    <glyph glyph-name="exclam" unicode="!" horiz-adv-x="322" 
d="M91 586v120h141v-120l-23 -369h-95zM94 133h136v-133h-136v133z" />
    <glyph glyph-name="exclamdown" unicode="&#xa1;" horiz-adv-x="322" 
d="M230 525v-133h-136v133h136zM209 308l23 -369v-120h-141v120l23 369h95z" />
    <glyph glyph-name="numbersign" unicode="#" horiz-adv-x="691" 
d="M525 429l-25 -136h85v-101h-104l-36 -192h-107l36 192h-115l-36 -192h-108l36 192h-77v101h96l25 136h-89v101h108l36 192h107l-35 -192h114l36 192h108l-36 -192h73v-101h-92zM418 429h-115l-25 -136h114z" />
    <glyph glyph-name="period" unicode="." horiz-adv-x="291" 
d="M80 135h131v-135h-131v135z" />
    <glyph glyph-name="question" unicode="?" horiz-adv-x="522" 
d="M174 216q0 47 16 78q17 34 63 70l17 13l17 14q19 16 32 30q33 38 33 82q0 49 -32 80q-31 30 -79 30q-88 0 -140 -90l-72 75q92 124 227 124q91 0 155 -58q67 -62 67 -160q0 -114 -107 -197q-39 -30 -51 -44q-19 -21 -19 -46v-22h-127v21zM169 125h137v-125h-137v125z" />
    <glyph glyph-name="questiondown" unicode="&#xbf;" horiz-adv-x="523" 
d="M347 400h-137v125h137v-125zM342 310q0 -48 -15 -78q-17 -34 -63 -70l-17 -13l-17 -14q-20 -16 -32 -31q-33 -38 -33 -82q0 -49 31 -80q31 -30 78 -30q88 0 142 90l71 -75q-90 -124 -228 -124q-91 0 -154 59q-67 62 -67 159q0 113 107 197q39 30 51 44q19 21 19 46v22
h127v-20z" />
    <glyph glyph-name="quotedbl" unicode="&#x22;" horiz-adv-x="424" 
d="M64 617v86h113v-86l-20 -180h-72zM245 617v86h113v-86l-20 -180h-72z" />
    <glyph glyph-name="quotesingle" unicode="'" horiz-adv-x="256" 
d="M71 617v86h113v-86l-21 -180h-72z" />
    <glyph glyph-name="semicolon" unicode=";" horiz-adv-x="294" 
d="M83 499h132v-135h-132v135zM81 -93q43 50 48 93h-46v135h132v-94q0 -65 -15 -102q-22 -52 -82 -94z" />
    <glyph glyph-name="slash" unicode="/" horiz-adv-x="532" 
d="M370 750h114l-319 -802h-117z" />
    <glyph glyph-name="underscore" unicode="_" horiz-adv-x="472" 
d="M5 -66h461v-102h-461v102z" />
    <glyph glyph-name="braceleft" unicode="{" horiz-adv-x="398" 
d="M307 -242q-175 0 -175 226v91q0 82 -22 113q-17 24 -64 33v79q47 9 64 33q22 31 22 113v91q0 226 175 226h51v-97h-25q-46 0 -64 -37q-15 -30 -15 -97v-116q0 -122 -82 -152v-7q82 -30 82 -152v-116q0 -67 15 -97q18 -37 64 -37h25v-97h-51z" />
    <glyph glyph-name="braceright" unicode="}" horiz-adv-x="394" 
d="M40 -242v97h25q46 0 64 37q15 30 15 97v116q0 123 83 152v7q-83 29 -83 152v116q0 67 -15 97q-18 37 -64 37h-25v97h51q175 0 175 -226v-91q0 -82 22 -113q17 -25 64 -33v-79q-47 -8 -64 -32q-22 -32 -22 -114v-91q0 -226 -175 -226h-51z" />
    <glyph glyph-name="bracketleft" unicode="[" horiz-adv-x="406" 
d="M93 759h254v-105h-131v-788h131v-105h-254v998z" />
    <glyph glyph-name="bracketright" unicode="]" horiz-adv-x="384" 
d="M84 -134h130v788h-130v105h254v-998h-254v105z" />
    <glyph glyph-name="parenleft" unicode="(" horiz-adv-x="371" 
d="M184 294q0 -252 140 -446l-66 -79q-97 101 -149 243q-50 135 -50 282t50 282q52 141 149 243l66 -80q-140 -192 -140 -445z" />
    <glyph glyph-name="parenright" unicode=")" horiz-adv-x="371" 
d="M115 818q98 -102 150 -243q50 -135 50 -282q0 -146 -50 -282q-53 -142 -150 -243l-66 80q140 192 140 445t-140 445z" />
    <glyph glyph-name="emdash" unicode="&#x2014;" horiz-adv-x="890" 
d="M86 372h719v-111h-719v111z" />
    <glyph glyph-name="endash" unicode="&#x2013;" horiz-adv-x="697" 
d="M85 372h526v-111h-526v111z" />
    <glyph glyph-name="hyphen" unicode="-" horiz-adv-x="473" 
d="M67 371h339v-108h-339v108z" />
    <glyph glyph-name="uni00AD" unicode="&#xad;" horiz-adv-x="473" 
d="M67 371h339v-108h-339v108z" />
    <glyph glyph-name="guillemotleft" unicode="&#xab;" horiz-adv-x="519" 
d="M72 261l96 185h97l-75 -185l75 -184h-97zM250 261l95 185h98l-75 -185l75 -184h-98z" />
    <glyph glyph-name="guillemotright" unicode="&#xbb;" horiz-adv-x="519" 
d="M152 261l-76 185h98l95 -185l-95 -184h-98zM329 261l-75 185h98l95 -185l-95 -184h-98z" />
    <glyph glyph-name="guilsinglleft" unicode="&#x2039;" horiz-adv-x="339" 
d="M70 261l95 185h98l-75 -185l75 -184h-98z" />
    <glyph glyph-name="guilsinglright" unicode="&#x203a;" horiz-adv-x="339" 
d="M152 261l-75 185h98l95 -185l-95 -184h-98z" />
    <glyph glyph-name="quotedblbase" unicode="&#x201e;" horiz-adv-x="480" 
d="M82 -93q43 50 48 93h-46v135h131v-94q0 -64 -15 -102q-21 -52 -81 -94zM265 -93q43 50 48 93h-46v134h132v-93q0 -65 -15 -102q-22 -52 -82 -94z" />
    <glyph glyph-name="quotedblleft" unicode="&#x201c;" horiz-adv-x="480" 
d="M81 550q0 65 16 103q21 51 81 93l36 -62q-42 -49 -47 -92h46v-135h-132v93zM264 550q0 65 16 103q22 51 82 93l36 -62q-42 -47 -48 -92h47v-135h-133v93z" />
    <glyph glyph-name="quotedblright" unicode="&#x201d;" horiz-adv-x="480" 
d="M82 499q43 50 48 93h-46v135h131v-93q0 -65 -15 -103q-21 -51 -81 -93zM265 499q43 50 48 93h-46v135h132v-93q0 -65 -15 -103q-22 -51 -82 -93z" />
    <glyph glyph-name="quoteleft" unicode="&#x2018;" horiz-adv-x="296" 
d="M81 549q0 65 16 103q21 51 81 93l36 -62q-42 -49 -47 -93h46v-134h-132v93z" />
    <glyph glyph-name="quoteright" unicode="&#x2019;" horiz-adv-x="245" 
d="M82 499q43 50 48 93h-46v135h131v-93q0 -65 -15 -103q-21 -51 -81 -93z" />
    <glyph glyph-name="quotesinglbase" unicode="&#x201a;" horiz-adv-x="296" 
d="M82 -93q43 50 48 93h-46v135h131v-94q0 -64 -15 -102q-21 -52 -81 -94z" />
    <glyph glyph-name="space" unicode=" " horiz-adv-x="193" 
 />
    <glyph glyph-name="uni2009" unicode="&#x2009;" horiz-adv-x="66" 
 />
    <glyph glyph-name="glyph412" horiz-adv-x="114" 
 />
    <glyph glyph-name="cent" unicode="&#xa2;" horiz-adv-x="530" 
d="M496 68q-68 -67 -157 -81v-90h-92v91q-93 17 -150 92t-57 182q0 106 57 180q56 74 150 91v93h92v-91q92 -13 157 -81l-52 -78q-50 47 -105 55v-339q50 9 104 54zM247 103v315q-84 -42 -84 -159q0 -116 84 -156z" />
    <glyph glyph-name="currency" unicode="&#xa4;" horiz-adv-x="600" 
d="M459 291l53 -54l-66 -65l-47 53q-44 -28 -99 -28q-56 0 -99 29l-47 -54l-66 65l53 55q-22 41 -22 89q0 50 22 92l-53 55l66 65l47 -54q43 29 99 29t100 -29l46 54l66 -65l-53 -55q22 -42 22 -91t-22 -91zM367 308q24 27 24 74t-24 75q-25 28 -66 28q-42 0 -66 -28
t-24 -75t24 -74q24 -28 65 -28q42 0 67 28z" />
    <glyph glyph-name="dollar" unicode="$" horiz-adv-x="568" 
d="M486 51q-49 -48 -137 -62v-84h-114v82q-124 15 -208 91l47 94q64 -56 161 -73v203q-83 24 -119 54q-71 55 -71 162q0 171 190 199v82h114v-81q103 -14 183 -73l-44 -93q-71 40 -139 52v-202q101 -27 142 -70q51 -53 51 -139q0 -89 -56 -142zM216 446l6 -3l13 -6v165
q-66 -20 -66 -81q0 -48 41 -72zM349 104q68 23 68 83q0 28 -25 53q-16 16 -43 27v-163z" />
    <glyph glyph-name="Euro" unicode="&#x20ac;" horiz-adv-x="568" 
d="M505 122l37 -88q-63 -50 -165 -50q-109 0 -180 66q-68 63 -90 176h-80l17 78h53q-1 12 -1 38v17l1 17h-61l18 79h52q22 115 90 179q70 66 180 66q100 0 165 -50l-36 -89q-58 29 -117 29q-115 0 -148 -135h240l-18 -79h-236l-1 -17v-17q0 -26 1 -38h229l-19 -78h-195
q31 -132 148 -132q58 0 116 28z" />
    <glyph glyph-name="sterling" unicode="&#xa3;" horiz-adv-x="568" 
d="M509 107v-107h-450v110q37 11 53 43q19 36 19 117v52h-52v92h52v78q0 101 52 158q51 56 141 56q113 0 177 -104l-81 -61q-33 57 -82 57q-78 0 -78 -106v-78h157v-92h-157v-71q0 -100 -38 -144h287z" />
    <glyph glyph-name="yen" unicode="&#xa5;" horiz-adv-x="568" 
d="M391 361h108v-83h-150v-65h150v-82h-150v-131h-129v131h-149v82h149v65h-149v83h107l-159 323h141l125 -287l129 287h135z" />
    <glyph glyph-name="approxequal" unicode="&#x2248;" horiz-adv-x="568" 
d="M270 387q-52 33 -74 33q-41 0 -77 -56l-67 45q53 110 153 110q41 0 94 -32q52 -33 73 -33q27 0 46 16q12 11 31 40l67 -46q-53 -110 -152 -110q-43 0 -94 33zM270 170q-52 33 -74 33q-42 0 -77 -56l-67 46q53 110 153 110q41 0 94 -33q52 -33 73 -33q27 0 46 17
q13 10 31 40l67 -46q-54 -111 -152 -111q-43 0 -94 33z" />
    <glyph glyph-name="asciitilde" unicode="~" horiz-adv-x="568" 
d="M270 291q-52 33 -74 33q-41 0 -77 -57l-67 46q53 110 153 110q26 0 51 -10q18 -7 43 -23q52 -33 73 -33q27 0 46 17q13 10 31 40l67 -46q-53 -110 -152 -110q-43 0 -94 33z" />
    <glyph glyph-name="divide" unicode="&#xf7;" horiz-adv-x="568" 
d="M230 538h106v-107h-106v107zM77 364h414v-105h-414v105zM230 192h106v-107h-106v107z" />
    <glyph glyph-name="equal" unicode="=" horiz-adv-x="568" 
d="M77 476h414v-104h-414v104zM77 261h414v-104h-414v104z" />
    <glyph glyph-name="greater" unicode="&#x3e;" horiz-adv-x="569" 
d="M79 164l291 155l-291 157v117l411 -221v-105l-411 -220v117z" />
    <glyph glyph-name="greaterequal" unicode="&#x2265;" horiz-adv-x="568" 
d="M81 300l268 114l-268 116v114l406 -182v-94l-406 -182v114zM81 150h406v-104h-406v104z" />
    <glyph glyph-name="infinity" unicode="&#x221e;" horiz-adv-x="760" 
d="M96 158q-44 51 -44 125t44 125q46 53 117 53q98 0 167 -110q68 110 167 110q71 0 117 -53q44 -51 44 -125t-44 -125q-46 -54 -117 -54q-99 0 -167 110q-70 -110 -167 -110q-71 0 -117 54zM326 283q-46 96 -108 96q-31 0 -54 -25q-24 -28 -24 -71t25 -71q23 -27 53 -27
q61 0 108 98zM596 212q24 28 24 71t-24 71q-22 25 -54 25q-62 0 -109 -96q49 -98 109 -98q31 0 54 27z" />
    <glyph glyph-name="integral" unicode="&#x222b;" horiz-adv-x="392" 
d="M34 -191v106q18 -5 42 -5q74 0 74 90q0 65 -16 297l-4 44l-3 42q-3 47 -5 81q-5 85 -5 125q0 113 47 156q40 41 123 41q41 0 72 -12v-106q-24 6 -43 6q-74 0 -74 -91q0 -64 17 -297l3 -43l3 -43q3 -47 5 -81q5 -85 5 -125q0 -98 -35 -143q-44 -54 -134 -54q-42 0 -72 12z
" />
    <glyph glyph-name="less" unicode="&#x3c;" horiz-adv-x="569" 
d="M78 267v105l412 221v-117l-292 -157l292 -155v-117z" />
    <glyph glyph-name="lessequal" unicode="&#x2264;" horiz-adv-x="568" 
d="M81 368v94l406 182v-114l-268 -116l268 -114v-114zM81 150h406v-104h-406v104z" />
    <glyph glyph-name="logicalnot" unicode="&#xac;" horiz-adv-x="572" 
d="M485 402v-236h-104v127h-293v109h397z" />
    <glyph glyph-name="minus" unicode="&#x2212;" horiz-adv-x="568" 
d="M77 402h414v-105h-414v105z" />
    <glyph glyph-name="multiply" unicode="&#xd7;" horiz-adv-x="568" 
d="M357 315l107 -125l-73 -73l-107 124l-107 -124l-73 74l108 124l-108 124l73 73l107 -123l107 124l73 -74z" />
    <glyph glyph-name="notequal" unicode="&#x2260;" horiz-adv-x="568" 
d="M352 372l-28 -110h167v-105h-199l-23 -91h-114l24 91h-102v105h134l28 110h-162v105h194l23 91h114l-24 -91h107v-105h-139z" />
    <glyph glyph-name="partialdiff" unicode="&#x2202;" horiz-adv-x="583" 
d="M467 84q-73 -100 -193 -100q-98 0 -164 73q-65 72 -65 178q0 105 61 177q63 75 159 75q51 0 94 -29q44 -30 64 -79q-3 27 -14 53q-18 100 -94 166q-74 64 -185 82l20 99q188 -22 291 -129t103 -282q0 -180 -77 -284zM363 133q36 43 36 111q0 59 -34 98q-33 38 -81 38
q-52 0 -86 -42q-32 -42 -32 -103t32 -102t79 -41q51 0 86 41z" />
    <glyph glyph-name="percent" unicode="%" horiz-adv-x="822" 
d="M87 409q-39 52 -39 134q0 81 39 133q42 55 111 55q71 0 111 -55q39 -52 39 -134t-39 -133q-41 -54 -111 -54t-111 54zM571 729h99l-423 -732h-99zM263 543q0 105 -65 105t-65 -105t65 -105t65 105zM513 47q-39 51 -39 133t39 134q41 54 111 54q71 0 111 -54
q39 -52 39 -134q0 -83 -39 -134q-41 -53 -111 -53t-111 54zM689 180q0 105 -65 105q-66 0 -66 -104q0 -106 66 -106q65 0 65 105z" />
    <glyph glyph-name="perthousand" unicode="&#x2030;" horiz-adv-x="1172" 
d="M87 409q-39 52 -39 134q0 81 39 133q42 55 111 55q71 0 111 -55q39 -52 39 -134t-39 -133q-41 -54 -111 -54t-111 54zM571 729h99l-423 -732h-99zM263 543q0 105 -65 105t-65 -105t65 -105t65 105zM513 47q-39 51 -39 133t39 134q41 54 111 54q71 0 111 -54
q39 -52 39 -134q0 -83 -39 -134q-41 -53 -111 -53t-111 54zM863 47q-39 51 -39 133t39 134q41 54 111 54t111 -54q38 -52 38 -134q0 -83 -39 -134q-41 -53 -111 -53t-110 54zM689 180q0 105 -65 105q-66 0 -66 -104q0 -106 66 -106q65 0 65 105zM1039 180q0 105 -65 105
q-66 0 -66 -104q0 -106 65 -106q66 0 66 105z" />
    <glyph glyph-name="plus" unicode="+" horiz-adv-x="568" 
d="M487 297h-152v-155h-102v155h-152v105h152v155h102v-155h152v-105z" />
    <glyph glyph-name="plusminus" unicode="&#xb1;" horiz-adv-x="568" 
d="M230 311h-152v105h152v155h103v-155h151v-105h-151v-155h-103v155zM484 102v-105h-406v105h406z" />
    <glyph glyph-name="product" unicode="&#x220f;" horiz-adv-x="842" 
d="M781 595h-85v-697h-130v697h-290v-697h-131v697h-85v111h721v-111z" />
    <glyph glyph-name="radical" unicode="&#x221a;" horiz-adv-x="664" 
d="M648 734l-261 -847h-131l-140 442h-90v112h176l118 -389l197 682h131z" />
    <glyph glyph-name="summation" unicode="&#x2211;" horiz-adv-x="605" 
d="M544 594h-329l147 -292l-147 -292h329v-112h-484v93l167 311l-167 311v93h484v-112z" />
    <glyph glyph-name="lozenge" unicode="&#x25ca;" horiz-adv-x="670" 
d="M55 305l211 417h140l211 -417l-211 -418h-140zM482 305l-146 308l-145 -308l145 -308z" />
    <glyph glyph-name="bar" unicode="|" horiz-adv-x="338" 
d="M114 869h109v-1037h-109v1037z" />
    <glyph glyph-name="brokenbar" unicode="&#xa6;" horiz-adv-x="338" 
d="M114 868h109v-386h-109v386zM114 217h109v-386h-109v386z" />
    <glyph glyph-name="at" unicode="@" horiz-adv-x="891" 
d="M519 137q-53 -79 -134 -79q-59 0 -97 49q-37 48 -37 126q0 102 59 181q58 79 133 79q65 0 101 -65l12 50h89l-46 -201q-12 -54 -12 -80q0 -61 54 -61q55 0 95 59t40 142q0 127 -82 208t-211 81q-154 0 -252 -108q-99 -108 -99 -275q0 -156 90 -248q89 -92 241 -92
q166 0 298 111l45 -69q-155 -129 -351 -129q-188 0 -305 119t-117 311q0 203 128 338q128 134 323 134q166 0 276 -105t110 -263q0 -120 -69 -206q-68 -86 -164 -86q-93 0 -118 79zM519 344q-23 65 -67 65q-41 0 -73 -54t-32 -122q0 -88 57 -88q65 0 94 105q10 31 21 94z
" />
    <glyph glyph-name="ampersand" unicode="&#x26;" horiz-adv-x="648" 
d="M532 128q38 -31 84 -64l-60 -79q-42 28 -94 67q-83 -68 -191 -68q-106 0 -173 65q-64 62 -64 157q0 124 119 192q-33 69 -33 127q0 86 57 142q56 55 136 55q70 0 116 -46q47 -46 47 -118q0 -73 -56 -122q-35 -31 -122 -72q18 -27 61 -77q39 -43 96 -96q43 54 85 140
l87 -54q-52 -96 -95 -149zM247 596q-23 -28 -23 -71q0 -37 22 -83q62 29 86 47q37 29 37 65q0 30 -19 50q-18 20 -46 20q-35 0 -57 -28zM379 121q-61 58 -100 103q-44 50 -68 91q-58 -39 -58 -105q0 -53 33 -86q34 -34 90 -34q53 0 103 31z" />
    <glyph glyph-name="paragraph" unicode="&#xb6;" horiz-adv-x="628" 
d="M581 621h-56v-693h-92v693h-77v-693h-92v372h-9q-97 0 -150 63q-47 56 -47 141q0 83 46 139q54 63 151 63h326v-85z" />
    <glyph glyph-name="copyright" unicode="&#xa9;" horiz-adv-x="812" 
d="M138 85q-106 106 -106 269t106 269q106 107 268 107t268 -107q106 -106 106 -269t-106 -269q-106 -107 -268 -107t-268 107zM623 135q85 85 85 219t-85 220q-84 85 -217 85t-217 -85q-85 -86 -85 -220t85 -219q84 -85 217 -85t217 85zM281 209q-51 55 -51 145
q0 89 51 145q51 54 131 54q77 0 136 -61l-39 -58q-39 41 -90 41q-46 0 -73 -32q-29 -33 -29 -89q0 -57 29 -89q27 -32 73 -32q52 0 90 41l39 -59q-60 -60 -136 -60q-80 0 -131 54z" />
    <glyph glyph-name="registered" unicode="&#xae;" horiz-adv-x="506" 
d="M84 334q-67 66 -67 169q0 102 67 169q66 67 169 67t169 -67q67 -67 67 -169q0 -103 -67 -169q-66 -67 -169 -67t-169 67zM384 372q50 51 50 131t-50 130q-51 51 -131 51q-79 0 -130 -51q-51 -50 -51 -130t51 -131q50 -51 130 -51t131 51zM350 388h-54l-44 84h-35v-84h-47
v230h91q84 0 84 -73q0 -59 -46 -69zM217 514h46q36 0 36 31t-36 31h-46v-62z" />
    <glyph glyph-name="section" unicode="&#xa7;" horiz-adv-x="565" 
d="M437 129q29 -39 29 -88q0 -71 -51 -118q-54 -49 -142 -49q-99 0 -192 60l38 84q82 -44 154 -44q42 0 67 19q21 17 21 42q0 33 -37 58q-20 13 -91 44q-78 33 -115 68q-48 45 -48 107q0 69 58 103q-30 38 -30 88q0 71 52 118q54 49 141 49q105 0 189 -58l-39 -85
q-73 43 -149 43q-43 0 -67 -19q-21 -17 -21 -42q0 -32 37 -57q15 -10 41 -23l23 -11l26 -12q86 -39 119 -70q45 -41 45 -104q0 -70 -58 -103zM201 271q14 -10 41 -24l26 -13l14 -7l15 -8q56 -28 81 -46q19 18 19 43q0 33 -35 58q-14 9 -41 23l-13 7l-13 6q-18 9 -29 15
l-20 11l-20 11q-23 12 -38 24q-21 -19 -21 -43q0 -33 34 -57z" />
    <glyph glyph-name="trademark" unicode="&#x2122;" horiz-adv-x="734" 
d="M30 706h250v-75h-84v-246h-83v246h-83v75zM682 706v-321h-81v206l-71 -206h-62l-71 207v-207h-81v321h111l72 -209l72 209h111z" />
    <glyph glyph-name="degree" unicode="&#xb0;" horiz-adv-x="336" 
d="M77 486q-36 36 -36 90t36 91q37 37 90 37t90 -37t37 -91t-37 -90q-37 -37 -90 -37t-90 37zM208 534q16 16 16 42t-16 43t-41 17t-41 -17t-16 -43t16 -42q16 -17 41 -17t41 17z" />
    <glyph glyph-name="estimated" unicode="&#x212e;" horiz-adv-x="916" 
d="M195 89q-107 106 -107 263q0 158 107 264t263 106q154 0 260 -102q110 -107 110 -273v-20q0 -5 -6 -5h-578v-221q0 -2 2 -4q87 -69 212 -69q87 0 159 35q73 36 115 101l30 -27q-50 -71 -129 -112q-81 -41 -175 -41q-156 0 -263 105zM672 370v235q0 3 -3 4q-89 70 -211 70
q-123 0 -212 -70q-2 -2 -2 -5v-234h428z" />
    <glyph glyph-name="asciicircum" unicode="^" horiz-adv-x="600" 
d="M246 706h109l166 -337h-121l-100 225l-99 -225h-122z" />
    <glyph glyph-name="dagger" unicode="&#x2020;" horiz-adv-x="496" 
d="M429 372h-126v-489h-109v489h-127v100h127v189h109v-189h126v-100z" />
    <glyph glyph-name="daggerdbl" unicode="&#x2021;" horiz-adv-x="496" 
d="M303 372v-200h126v-99h-126v-190h-109v190h-127v99h127v200h-127v100h127v189h109v-189h126v-100h-126z" />
    <glyph glyph-name="acute" unicode="&#xb4;" horiz-adv-x="440" 
d="M194 755h143l-94 -151h-98z" />
    <glyph glyph-name="breve" unicode="&#x2d8;" horiz-adv-x="374" 
d="M78 636q-46 44 -46 116h99q0 -81 55 -81q58 0 58 81h98q0 -72 -46 -116q-44 -41 -110 -41q-65 0 -108 41z" />
    <glyph glyph-name="caron" unicode="&#x2c7;" horiz-adv-x="496" 
d="M78 753h118l52 -90l53 90h117l-112 -157h-116z" />
    <glyph glyph-name="cedilla" unicode="&#xb8;" horiz-adv-x="287" 
d="M38 -209l19 50q23 -15 54 -15q43 0 43 37q0 36 -55 36h-23l-4 26l27 82h83l-19 -62q34 0 58 -21q28 -25 28 -65q0 -41 -29 -69q-32 -31 -82 -31q-53 0 -100 32z" />
    <glyph glyph-name="circumflex" unicode="&#x2c6;" horiz-adv-x="466" 
d="M173 764h112l113 -160h-113l-56 96l-55 -96h-114z" />
    <glyph glyph-name="dieresis" unicode="&#xa8;" horiz-adv-x="440" 
d="M70 726h112v-116h-112v116zM258 726h112v-116h-112v116z" />
    <glyph glyph-name="dotaccent" unicode="&#x2d9;" horiz-adv-x="265" 
d="M72 733h120v-119h-120v119z" />
    <glyph glyph-name="grave" unicode="`" horiz-adv-x="426" 
d="M98 755h144l56 -151h-98z" />
    <glyph glyph-name="hungarumlaut" unicode="&#x2dd;" horiz-adv-x="444" 
d="M83 762h136l-77 -158h-101zM270 762h136l-78 -158h-100z" />
    <glyph glyph-name="macron" unicode="&#xaf;" horiz-adv-x="395" 
d="M47 718h301v-92h-301v92z" />
    <glyph glyph-name="ogonek" unicode="&#x2db;" horiz-adv-x="372" 
d="M120 -208q-29 30 -29 74q0 88 127 160l36 -26q-68 -71 -68 -99q0 -45 43 -45q18 0 36 8l26 -73q-34 -31 -88 -31q-51 0 -83 32z" />
    <glyph glyph-name="ring" unicode="&#x2da;" horiz-adv-x="313" 
d="M86 603q-32 29 -32 77t32 78q29 27 71 27t71 -27q31 -29 31 -78q0 -48 -31 -77q-29 -27 -71 -27t-71 27zM193 680q0 48 -36 48q-37 0 -37 -48q0 -47 37 -47q36 0 36 47z" />
    <glyph glyph-name="tilde" unicode="&#x2dc;" horiz-adv-x="461" 
d="M230 641l-14 9l-14 9q-15 8 -28 8q-30 0 -38 -49h-89q13 138 111 138q31 0 71 -26q40 -27 57 -27q30 0 38 49h90q-14 -138 -113 -138q-31 0 -71 27z" />
    <glyph glyph-name="glyph469" horiz-adv-x="451" 
d="M67 753h117l41 -90l42 90h116l-100 -157h-116z" />
    <glyph glyph-name="acute.case" horiz-adv-x="387" 
d="M166 755h141l-85 -151h-99z" />
    <glyph glyph-name="breve.case" horiz-adv-x="335" 
d="M70 636q-42 44 -42 116h99q0 -81 40 -81q43 0 43 81h97q0 -72 -43 -116q-39 -41 -97 -41t-97 41z" />
    <glyph glyph-name="caron.case" horiz-adv-x="451" 
d="M67 753h117l41 -90l42 90h116l-100 -157h-116z" />
    <glyph glyph-name="cedilla.case" horiz-adv-x="258" 
d="M34 -209l16 50q18 -15 47 -15q36 0 36 37q0 16 -14 26q-13 10 -32 10h-23l-2 26l21 82h82l-15 -62q31 0 50 -21q25 -27 25 -65q0 -41 -27 -69q-29 -31 -75 -31q-50 0 -89 32z" />
    <glyph glyph-name="circumflex.case" horiz-adv-x="372" 
d="M126 914h121l94 -152h-112l-43 85l-42 -85h-112z" />
    <glyph glyph-name="dieresis.case" horiz-adv-x="394" 
d="M61 726h106v-116h-106v116zM227 726h107v-116h-107v116z" />
    <glyph glyph-name="dotaccent.case" horiz-adv-x="232" 
d="M58 733h116v-119h-116v119z" />
    <glyph glyph-name="grave.case" horiz-adv-x="383" 
d="M85 755h141l46 -151h-98z" />
    <glyph glyph-name="hungarumlaut.case" horiz-adv-x="402" 
d="M68 762h133l-68 -158h-101zM241 762h133l-67 -158h-102z" />
    <glyph glyph-name="macron.case" horiz-adv-x="354" 
d="M41 874h272v-95h-272v95z" />
    <glyph glyph-name="ogonek.case" horiz-adv-x="337" 
d="M108 -208q-27 30 -27 74q0 48 40 93q27 30 82 67l35 -26q-9 -12 -23 -30l-11 -13l-10 -12q-20 -27 -20 -44q0 -45 35 -45q18 0 34 8l23 -73q-31 -31 -80 -31q-48 0 -78 32z" />
    <glyph glyph-name="ring.case" horiz-adv-x="274" 
d="M73 603q-30 29 -30 77t30 78q27 27 64 27q38 0 65 -27q29 -30 29 -78t-29 -77q-27 -27 -65 -27q-37 0 -64 27zM166 680q0 48 -29 48t-29 -48q0 -47 29 -47t29 47z" />
    <glyph glyph-name="tilde.case" horiz-adv-x="412" 
d="M209 641l-12 9l-11 9q-13 8 -24 8q-24 0 -31 -49h-91q7 138 100 138q18 0 34 -8q12 -6 27 -18q34 -27 49 -27q23 0 30 49h92q-9 -138 -102 -138q-28 0 -61 27z" />
    <glyph glyph-name="glyph483" horiz-adv-x="0" 
 />
    <glyph glyph-name="glyph484" horiz-adv-x="186" 
d="M37 -62h121l-27 -183h-104z" />
    <glyph glyph-name="glyph485" horiz-adv-x="175" 
d="M33 -62h119l-25 -183h-104z" />
    <glyph glyph-name="uni1EA0" unicode="&#x1ea0;" horiz-adv-x="690" 
d="M472 180h-258l-64 -180h-133l262 706h134l260 -706h-139zM443 288l-99 293l-100 -293h199zM280 -93h131v-135h-131v135z" />
    <glyph glyph-name="uni1EA2" unicode="&#x1ea2;" horiz-adv-x="690" 
d="M472 180h-258l-64 -180h-133l262 706h134l260 -706h-139zM443 288l-99 293l-100 -293h199zM309 819q0 23 17 43q10 11 25 22q18 12 18 21q0 8 -5 13q-4 5 -10 5q-16 0 -51 -38l-54 49q56 62 105 62q38 0 64 -28q25 -27 25 -63q0 -48 -50 -82q-13 -9 -11 -20v-19h-73v35z
" />
    <glyph glyph-name="uni1EA4" unicode="&#x1ea4;" horiz-adv-x="690" 
d="M472 180h-258l-64 -180h-133l262 706h134l260 -706h-139zM443 288l-99 293l-100 -293h199zM289 922h112l113 -160h-113l-56 96l-55 -96h-114zM557 991h143l-94 -151h-98z" />
    <glyph glyph-name="uni1EA6" unicode="&#x1ea6;" horiz-adv-x="690" 
d="M472 180h-258l-64 -180h-133l262 706h134l260 -706h-139zM443 288l-99 293l-100 -293h199zM289 922h112l113 -160h-113l-56 96l-55 -96h-114zM405 1037h144l56 -151h-98z" />
    <glyph glyph-name="uni1EA8" unicode="&#x1ea8;" horiz-adv-x="690" 
d="M472 180h-258l-64 -180h-133l262 706h134l260 -706h-139zM443 288l-99 293l-100 -293h199zM289 923h112l113 -160h-113l-56 96l-55 -96h-114zM504 871q0 23 17 43q10 11 25 22q18 12 18 21q0 8 -5 13q-4 5 -10 5q-16 0 -51 -38l-54 49q56 62 105 62q38 0 64 -28
q25 -27 25 -63q0 -48 -50 -82q-13 -9 -11 -20v-19h-73v35z" />
    <glyph glyph-name="uni1EAA" unicode="&#x1eaa;" horiz-adv-x="690" 
d="M472 180h-258l-64 -180h-133l262 706h134l260 -706h-139zM443 288l-99 293l-100 -293h199zM288 924h112l113 -160h-113l-56 96l-55 -96h-114zM366 989l-14 9l-14 9q-15 8 -28 8q-30 0 -38 -49h-89q13 138 111 138q31 0 71 -26q40 -27 57 -27q30 0 38 49h90
q-14 -138 -113 -138q-31 0 -71 27z" />
    <glyph glyph-name="uni1EAC" unicode="&#x1eac;" horiz-adv-x="690" 
d="M472 180h-258l-64 -180h-133l262 706h134l260 -706h-139zM443 288l-99 293l-100 -293h199zM289 924h112l113 -160h-113l-56 96l-55 -96h-114zM280 -93h131v-135h-131v135z" />
    <glyph glyph-name="uni1EAE" unicode="&#x1eae;" horiz-adv-x="690" 
d="M472 180h-258l-64 -180h-133l262 706h134l260 -706h-139zM443 288l-99 293l-100 -293h199zM236 804q-46 44 -46 116h99q0 -81 55 -81q58 0 58 81h98q0 -72 -46 -116q-44 -41 -110 -41q-65 0 -108 41zM347 1097h143l-94 -151h-98z" />
    <glyph glyph-name="uni1EB0" unicode="&#x1eb0;" horiz-adv-x="690" 
d="M472 180h-258l-64 -180h-133l262 706h134l260 -706h-139zM443 288l-99 293l-100 -293h199zM236 804q-46 44 -46 116h99q0 -81 55 -81q58 0 58 81h98q0 -72 -46 -116q-44 -41 -110 -41q-65 0 -108 41zM197 1098h144l56 -151h-98z" />
    <glyph glyph-name="uni1EB2" unicode="&#x1eb2;" horiz-adv-x="690" 
d="M472 180h-258l-64 -180h-133l262 706h134l260 -706h-139zM443 288l-99 293l-100 -293h199zM236 804q-46 44 -46 116h99q0 -81 55 -81q58 0 58 81h98q0 -72 -46 -116q-44 -41 -110 -41q-65 0 -108 41zM311 978q0 17.25 17 32.25q10 8.25 25 16.5q18 9 18 15.75
q0 6 -5 9.75q-4 3.75 -10 3.75q-16 0 -51 -28.5l-54 36.75q56 46.5 105 46.5q38 0 64 -21q25 -20.25 25 -47.25q0 -36 -50 -61.5q-13 -6.75 -11 -15v-14.25h-73v26.25z" />
    <glyph glyph-name="uni1EB4" unicode="&#x1eb4;" horiz-adv-x="690" 
d="M472 180h-258l-64 -180h-133l262 706h134l260 -706h-139zM443 288l-99 293l-100 -293h199zM228 805q-46 44 -46 116h99q0 -81 55 -81q58 0 58 81h98q0 -72 -46 -116q-44 -41 -110 -41q-65 0 -108 41zM345 979l-14 9l-14 9q-15 8 -28 8q-30 0 -38 -49h-89q13 138 111 138
q31 0 71 -26q40 -27 57 -27q30 0 38 49h90q-14 -138 -113 -138q-31 0 -71 27z" />
    <glyph glyph-name="uni1EB6" unicode="&#x1eb6;" horiz-adv-x="690" 
d="M472 180h-258l-64 -180h-133l262 706h134l260 -706h-139zM443 288l-99 293l-100 -293h199zM236 804q-46 44 -46 116h99q0 -81 55 -81q58 0 58 81h98q0 -72 -46 -116q-44 -41 -110 -41q-65 0 -108 41zM280 -93h131v-135h-131v135z" />
    <glyph glyph-name="uni1EB8" unicode="&#x1eb8;" horiz-adv-x="661" 
d="M592 595h-387v-176h353v-111h-353v-197h391v-111h-515v706h511v-111zM273 -93h131v-135h-131v135z" />
    <glyph glyph-name="uni1EBA" unicode="&#x1eba;" horiz-adv-x="661" 
d="M592 595h-387v-176h353v-111h-353v-197h391v-111h-515v706h511v-111zM303 819q0 23 17 43q10 11 25 22q18 12 18 21q0 8 -5 13q-4 5 -10 5q-16 0 -51 -38l-54 49q56 62 105 62q38 0 64 -28q25 -27 25 -63q0 -48 -50 -82q-13 -9 -11 -20v-19h-73v35z" />
    <glyph glyph-name="uni1EBC" unicode="&#x1ebc;" horiz-adv-x="661" 
d="M592 595h-387v-176h353v-111h-353v-197h391v-111h-515v706h511v-111zM338 828l-14 9l-14 9q-15 8 -28 8q-30 0 -38 -49h-89q13 138 111 138q31 0 71 -26q40 -27 57 -27q30 0 38 49h90q-14 -138 -113 -138q-31 0 -71 27z" />
    <glyph glyph-name="uni1EBE" unicode="&#x1ebe;" horiz-adv-x="661" 
d="M592 595h-387v-176h353v-111h-353v-197h391v-111h-515v706h511v-111zM283 922h112l113 -160h-113l-56 96l-55 -96h-114zM551 991h143l-94 -151h-98z" />
    <glyph glyph-name="uni1EC0" unicode="&#x1ec0;" horiz-adv-x="661" 
d="M592 595h-387v-176h353v-111h-353v-197h391v-111h-515v706h511v-111zM283 922h112l113 -160h-113l-56 96l-55 -96h-114zM399 1037h144l56 -151h-98z" />
    <glyph glyph-name="uni1EC2" unicode="&#x1ec2;" horiz-adv-x="661" 
d="M592 595h-387v-176h353v-111h-353v-197h391v-111h-515v706h511v-111zM283 923h112l113 -160h-113l-56 96l-55 -96h-114zM498 871q0 23 17 43q10 11 25 22q18 12 18 21q0 8 -5 13q-4 5 -10 5q-16 0 -51 -38l-54 49q56 62 105 62q38 0 64 -28q25 -27 25 -63q0 -48 -50 -82
q-13 -9 -11 -20v-19h-73v35z" />
    <glyph glyph-name="uni1EC4" unicode="&#x1ec4;" horiz-adv-x="661" 
d="M592 595h-387v-176h353v-111h-353v-197h391v-111h-515v706h511v-111zM281 924h112l113 -160h-113l-56 96l-55 -96h-114zM359 989l-14 9l-14 9q-15 8 -28 8q-30 0 -38 -49h-89q13 138 111 138q31 0 71 -26q40 -27 57 -27q30 0 38 49h90q-14 -138 -113 -138q-31 0 -71 27z
" />
    <glyph glyph-name="uni1EC6" unicode="&#x1ec6;" horiz-adv-x="661" 
d="M592 595h-387v-176h353v-111h-353v-197h391v-111h-515v706h511v-111zM282 923h112l113 -160h-113l-56 96l-55 -96h-114zM273 -93h131v-135h-131v135z" />
    <glyph glyph-name="uni1EC8" unicode="&#x1ec8;" horiz-adv-x="294" 
d="M85 706h124v-706h-124v706zM111 819q0 23 17 43q10 11 25 22q18 12 18 21q0 8 -5 13q-4 5 -10 5q-16 0 -51 -38l-54 49q56 62 105 62q38 0 64 -28q25 -27 25 -63q0 -48 -50 -82q-13 -9 -11 -20v-19h-73v35z" />
    <glyph glyph-name="uni1ECA" unicode="&#x1eca;" horiz-adv-x="294" 
d="M85 706h124v-706h-124v706zM82 -93h131v-135h-131v135z" />
    <glyph glyph-name="uni1ECC" unicode="&#x1ecc;" 
d="M147 85q-90 101 -90 267q0 167 90 268q90 102 241 102q150 0 240 -102q89 -101 89 -268q0 -166 -89 -267q-90 -101 -240 -101q-151 0 -241 101zM532 161q55 67 55 191q0 125 -55 194q-52 65 -144 65t-145 -65q-56 -69 -56 -194q0 -124 56 -191q53 -65 145 -65t144 65z
M322 -93h131v-135h-131v135z" />
    <glyph glyph-name="uni1ECE" unicode="&#x1ece;" 
d="M147 85q-90 101 -90 267q0 167 90 268q90 102 241 102q150 0 240 -102q89 -101 89 -268q0 -166 -89 -267q-90 -101 -240 -101q-151 0 -241 101zM532 161q55 67 55 191q0 125 -55 194q-52 65 -144 65t-145 -65q-56 -69 -56 -194q0 -124 56 -191q53 -65 145 -65t144 65z
M351 819q0 23 17 43q10 11 25 22q18 12 18 21q0 8 -5 13q-4 5 -10 5q-16 0 -51 -38l-54 49q56 62 105 62q38 0 64 -28q25 -27 25 -63q0 -48 -50 -82q-13 -9 -11 -20v-19h-73v35z" />
    <glyph glyph-name="uni1ED0" unicode="&#x1ed0;" 
d="M147 85q-90 101 -90 267q0 167 90 268q90 102 241 102q150 0 240 -102q89 -101 89 -268q0 -166 -89 -267q-90 -101 -240 -101q-151 0 -241 101zM532 161q55 67 55 191q0 125 -55 194q-52 65 -144 65t-145 -65q-56 -69 -56 -194q0 -124 56 -191q53 -65 145 -65t144 65z
M331 922h112l113 -160h-113l-56 96l-55 -96h-114zM599 991h143l-94 -151h-98z" />
    <glyph glyph-name="uni1ED2" unicode="&#x1ed2;" 
d="M147 85q-90 101 -90 267q0 167 90 268q90 102 241 102q150 0 240 -102q89 -101 89 -268q0 -166 -89 -267q-90 -101 -240 -101q-151 0 -241 101zM532 161q55 67 55 191q0 125 -55 194q-52 65 -144 65t-145 -65q-56 -69 -56 -194q0 -124 56 -191q53 -65 145 -65t144 65z
M331 922h112l113 -160h-113l-56 96l-55 -96h-114zM447 1037h144l56 -151h-98z" />
    <glyph glyph-name="uni1ED4" unicode="&#x1ed4;" 
d="M147 85q-90 101 -90 267q0 167 90 268q90 102 241 102q150 0 240 -102q89 -101 89 -268q0 -166 -89 -267q-90 -101 -240 -101q-151 0 -241 101zM532 161q55 67 55 191q0 125 -55 194q-52 65 -144 65t-145 -65q-56 -69 -56 -194q0 -124 56 -191q53 -65 145 -65t144 65z
M331 923h112l113 -160h-113l-56 96l-55 -96h-114zM546 871q0 23 17 43q10 11 25 22q18 12 18 21q0 8 -5 13q-4 5 -10 5q-16 0 -51 -38l-54 49q56 62 105 62q38 0 64 -28q25 -27 25 -63q0 -48 -50 -82q-13 -9 -11 -20v-19h-73v35z" />
    <glyph glyph-name="uni1ED6" unicode="&#x1ed6;" 
d="M147 85q-90 101 -90 267q0 167 90 268q90 102 241 102q150 0 240 -102q89 -101 89 -268q0 -166 -89 -267q-90 -101 -240 -101q-151 0 -241 101zM532 161q55 67 55 191q0 125 -55 194q-52 65 -144 65t-145 -65q-56 -69 -56 -194q0 -124 56 -191q53 -65 145 -65t144 65z
M330 924h112l113 -160h-113l-56 96l-55 -96h-114zM408 989l-14 9l-14 9q-15 8 -28 8q-30 0 -38 -49h-89q13 138 111 138q31 0 71 -26q40 -27 57 -27q30 0 38 49h90q-14 -138 -113 -138q-31 0 -71 27z" />
    <glyph glyph-name="uni1ED8" unicode="&#x1ed8;" 
d="M147 85q-90 101 -90 267q0 167 90 268q90 102 241 102q150 0 240 -102q89 -101 89 -268q0 -166 -89 -267q-90 -101 -240 -101q-151 0 -241 101zM532 161q55 67 55 191q0 125 -55 194q-52 65 -144 65t-145 -65q-56 -69 -56 -194q0 -124 56 -191q53 -65 145 -65t144 65z
M331 951h112l113 -160h-113l-56 96l-55 -96h-114zM322 -93h131v-135h-131v135z" />
    <glyph glyph-name="uni1EDA" unicode="&#x1eda;" 
d="M532 161q55 67 55 191q0 125 -55 194q-52 65 -144 65t-145 -65q-56 -69 -56 -194q0 -124 56 -191q53 -65 145 -65t144 65zM591 656q20 -16 37 -36q89 -101 89 -268q0 -166 -89 -267q-90 -101 -240 -101q-151 0 -241 101t-90 267q0 167 90 268q90 102 241 102
q63 0 115 -18q52 4 52 81h98q0 -73 -46 -116q-8 -7 -16 -13zM372 942h143l-94 -151h-98z" />
    <glyph glyph-name="uni1EDC" unicode="&#x1edc;" 
d="M532 161q55 67 55 191q0 125 -55 194q-52 65 -144 65t-145 -65q-56 -69 -56 -194q0 -124 56 -191q53 -65 145 -65t144 65zM591 656q20 -16 37 -36q89 -101 89 -268q0 -166 -89 -267q-90 -101 -240 -101q-151 0 -241 101t-90 267q0 167 90 268q90 102 241 102
q63 0 115 -18q52 4 52 81h98q0 -73 -46 -116q-8 -7 -16 -13zM254 942h144l56 -151h-98z" />
    <glyph glyph-name="uni1EDE" unicode="&#x1ede;" 
d="M532 161q55 67 55 191q0 125 -55 194q-52 65 -144 65t-145 -65q-56 -69 -56 -194q0 -124 56 -191q53 -65 145 -65t144 65zM591 656q20 -16 37 -36q89 -101 89 -268q0 -166 -89 -267q-90 -101 -240 -101q-151 0 -241 101t-90 267q0 167 90 268q90 102 241 102
q63 0 115 -18q52 4 52 81h98q0 -73 -46 -116q-8 -7 -16 -13zM351 819q0 23 17 43q10 11 25 22q18 12 18 21q0 8 -5 13q-4 5 -10 5q-16 0 -51 -38l-54 49q56 62 105 62q38 0 64 -28q25 -27 25 -63q0 -48 -50 -82q-13 -9 -11 -20v-19h-73v35z" />
    <glyph glyph-name="uni1EE0" unicode="&#x1ee0;" 
d="M532 161q55 67 55 191q0 125 -55 194q-52 65 -144 65t-145 -65q-56 -69 -56 -194q0 -124 56 -191q53 -65 145 -65t144 65zM591 656q20 -16 37 -36q89 -101 89 -268q0 -166 -89 -267q-90 -101 -240 -101q-151 0 -241 101t-90 267q0 167 90 268q90 102 241 102
q63 0 115 -18q52 4 52 81h98q0 -73 -46 -116q-8 -7 -16 -13zM387 828l-14 9l-14 9q-15 8 -28 8q-30 0 -38 -49h-89q13 138 111 138q31 0 71 -26q40 -27 57 -27q30 0 38 49h90q-14 -138 -113 -138q-31 0 -71 27z" />
    <glyph glyph-name="uni1EE2" unicode="&#x1ee2;" 
d="M532 161q55 67 55 191q0 125 -55 194q-52 65 -144 65t-145 -65q-56 -69 -56 -194q0 -124 56 -191q53 -65 145 -65t144 65zM591 656q20 -16 37 -36q89 -101 89 -268q0 -166 -89 -267q-90 -101 -240 -101q-151 0 -241 101t-90 267q0 167 90 268q90 102 241 102
q63 0 115 -18q52 4 52 81h98q0 -73 -46 -116q-8 -7 -16 -13zM322 -93h131v-135h-131v135z" />
    <glyph glyph-name="Ohorn" unicode="&#x1a0;" 
d="M532 161q55 67 55 191q0 125 -55 194q-52 65 -144 65t-145 -65q-56 -69 -56 -194q0 -124 56 -191q53 -65 145 -65t144 65zM591 656q20 -16 37 -36q89 -101 89 -268q0 -166 -89 -267q-90 -101 -240 -101q-151 0 -241 101t-90 267q0 167 90 268q90 102 241 102
q63 0 115 -18q52 4 52 81h98q0 -73 -46 -116q-8 -7 -16 -13z" />
    <glyph glyph-name="uni1EE4" unicode="&#x1ee4;" horiz-adv-x="747" 
d="M158 61q-84 82 -84 234v411h125v-406q0 -204 174 -204t174 204v406h126v-411q0 -152 -84 -234q-79 -77 -216 -77q-136 0 -215 77zM308 -93h131v-135h-131v135z" />
    <glyph glyph-name="uni1EE6" unicode="&#x1ee6;" horiz-adv-x="747" 
d="M158 61q-84 82 -84 234v411h125v-406q0 -204 174 -204t174 204v406h126v-411q0 -152 -84 -234q-79 -77 -216 -77q-136 0 -215 77zM338 819q0 23 17 43q10 11 25 22q18 12 18 21q0 8 -5 13q-4 5 -10 5q-16 0 -51 -38l-54 49q56 62 105 62q38 0 64 -28q25 -27 25 -63
q0 -48 -50 -82q-13 -9 -11 -20v-19h-73v35z" />
    <glyph glyph-name="uni1EE8" unicode="&#x1ee8;" horiz-adv-x="747" 
d="M673 631v-336q0 -152 -84 -234q-79 -77 -216 -77q-136 0 -215 77q-84 82 -84 234v411h125v-406q0 -204 174 -204t174 204v406h109q41 11 41 79h98q0 -73 -46 -116q-32 -30 -76 -38zM375 914h143l-94 -151h-98z" />
    <glyph glyph-name="uni1EEA" unicode="&#x1eea;" horiz-adv-x="747" 
d="M673 631v-336q0 -152 -84 -234q-79 -77 -216 -77q-136 0 -215 77q-84 82 -84 234v411h125v-406q0 -204 174 -204t174 204v406h109q41 11 41 79h98q0 -73 -46 -116q-32 -30 -76 -38zM239 914h144l56 -151h-98z" />
    <glyph glyph-name="uni1EEC" unicode="&#x1eec;" horiz-adv-x="747" 
d="M673 631v-336q0 -152 -84 -234q-79 -77 -216 -77q-136 0 -215 77q-84 82 -84 234v411h125v-406q0 -204 174 -204t174 204v406h109q41 11 41 79h98q0 -73 -46 -116q-32 -30 -76 -38zM343 798q0 23 17 43q10 11 25 22q18 12 18 21q0 8 -5 13q-4 5 -10 5q-16 0 -51 -38
l-54 49q56 62 105 62q38 0 64 -28q25 -27 25 -63q0 -48 -50 -82q-13 -9 -11 -20v-19h-73v35z" />
    <glyph glyph-name="uni1EEE" unicode="&#x1eee;" horiz-adv-x="747" 
d="M673 631v-336q0 -152 -84 -234q-79 -77 -216 -77q-136 0 -215 77q-84 82 -84 234v411h125v-406q0 -204 174 -204t174 204v406h109q41 11 41 79h98q0 -73 -46 -116q-32 -30 -76 -38zM397 790l-14 9l-14 9q-15 8 -28 8q-30 0 -38 -49h-89q13 138 111 138q31 0 71 -26
q40 -27 57 -27q30 0 38 49h90q-14 -138 -113 -138q-31 0 -71 27z" />
    <glyph glyph-name="uni1EF0" unicode="&#x1ef0;" horiz-adv-x="747" 
d="M673 631v-336q0 -152 -84 -234q-79 -77 -216 -77q-136 0 -215 77q-84 82 -84 234v411h125v-406q0 -204 174 -204t174 204v406h109q41 11 41 79h98q0 -73 -46 -116q-32 -30 -76 -38zM306 -93h131v-135h-131v135z" />
    <glyph glyph-name="Uhorn" unicode="&#x1af;" horiz-adv-x="747" 
d="M673 631v-336q0 -152 -84 -234q-79 -77 -216 -77q-136 0 -215 77q-84 82 -84 234v411h125v-406q0 -204 174 -204t174 204v406h109q41 11 41 79h98q0 -73 -46 -116q-32 -30 -76 -38z" />
    <glyph glyph-name="uni1EF4" unicode="&#x1ef4;" horiz-adv-x="577" 
d="M579 706l-228 -446v-260h-125v260l-228 446h137l154 -328l159 328h131zM223 -93h131v-135h-131v135z" />
    <glyph glyph-name="uni1EF6" unicode="&#x1ef6;" horiz-adv-x="577" 
d="M579 706l-228 -446v-260h-125v260l-228 446h137l154 -328l159 328h131zM253 819q0 23 17 43q10 11 25 22q18 12 18 21q0 8 -5 13q-4 5 -10 5q-16 0 -51 -38l-54 49q56 62 105 62q38 0 64 -28q25 -27 25 -63q0 -48 -50 -82q-13 -9 -11 -20v-19h-73v35z" />
    <glyph glyph-name="uni1EF8" unicode="&#x1ef8;" horiz-adv-x="577" 
d="M579 706l-228 -446v-260h-125v260l-228 446h137l154 -328l159 328h131zM288 828l-14 9l-14 9q-15 8 -28 8q-30 0 -38 -49h-89q13 138 111 138q31 0 71 -26q40 -27 57 -27q30 0 38 49h90q-14 -138 -113 -138q-31 0 -71 27z" />
    <glyph glyph-name="uni1EA1" unicode="&#x1ea1;" horiz-adv-x="554" 
d="M494 286v-286h-104l-4 48q-67 -64 -167 -64q-77 0 -126 44q-52 47 -52 128q0 96 76 141q61 35 161 35q54 0 100 -9v10q0 103 -115 103q-43 0 -89 -13q-39 -12 -70 -29l-35 85q89 59 206 59q152 0 200 -112q19 -47 19 -140zM312 98q41 14 66 41v100q-40 9 -88 9
q-57 0 -88 -16q-41 -21 -41 -70q0 -76 85 -76q33 0 66 12zM202 -93h131v-135h-131v135z" />
    <glyph glyph-name="uni1EA3" unicode="&#x1ea3;" horiz-adv-x="554" 
d="M494 286v-286h-104l-4 48q-67 -64 -167 -64q-77 0 -126 44q-52 47 -52 128q0 96 76 141q61 35 161 35q54 0 100 -9v10q0 103 -115 103q-43 0 -89 -13q-39 -12 -70 -29l-35 85q89 59 206 59q152 0 200 -112q19 -47 19 -140zM312 98q41 14 66 41v100q-40 9 -88 9
q-57 0 -88 -16q-41 -21 -41 -70q0 -76 85 -76q33 0 66 12zM225 632q0 23 17 43q10 11 25 22q18 12 18 21q0 8 -5 13q-4 5 -10 5q-16 0 -51 -38l-54 49q56 62 105 62q38 0 64 -28q25 -27 25 -63q0 -48 -50 -82q-13 -9 -11 -20v-19h-73v35z" />
    <glyph glyph-name="uni1EA5" unicode="&#x1ea5;" horiz-adv-x="554" 
d="M494 286v-286h-104l-4 48q-67 -64 -167 -64q-77 0 -126 44q-52 47 -52 128q0 96 76 141q61 35 161 35q54 0 100 -9v10q0 103 -115 103q-43 0 -89 -13q-39 -12 -70 -29l-35 85q89 59 206 59q152 0 200 -112q19 -47 19 -140zM312 98q41 14 66 41v100q-40 9 -88 9
q-57 0 -88 -16q-41 -21 -41 -70q0 -76 85 -76q33 0 66 12zM212 752h112l113 -160h-113l-56 96l-55 -96h-114zM453 837h143l-94 -151h-98z" />
    <glyph glyph-name="uni1EA7" unicode="&#x1ea7;" horiz-adv-x="554" 
d="M494 286v-286h-104l-4 48q-67 -64 -167 -64q-77 0 -126 44q-52 47 -52 128q0 96 76 141q61 35 161 35q54 0 100 -9v10q0 103 -115 103q-43 0 -89 -13q-39 -12 -70 -29l-35 85q89 59 206 59q152 0 200 -112q19 -47 19 -140zM312 98q41 14 66 41v100q-40 9 -88 9
q-57 0 -88 -16q-41 -21 -41 -70q0 -76 85 -76q33 0 66 12zM212 752h112l113 -160h-113l-56 96l-55 -96h-114zM328 851h144l56 -151h-98z" />
    <glyph glyph-name="uni1EA9" unicode="&#x1ea9;" horiz-adv-x="554" 
d="M494 286v-286h-104l-4 48q-67 -64 -167 -64q-77 0 -126 44q-52 47 -52 128q0 96 76 141q61 35 161 35q54 0 100 -9v10q0 103 -115 103q-43 0 -89 -13q-39 -12 -70 -29l-35 85q89 59 206 59q152 0 200 -112q19 -47 19 -140zM312 98q41 14 66 41v100q-40 9 -88 9
q-57 0 -88 -16q-41 -21 -41 -70q0 -76 85 -76q33 0 66 12zM212 752h112l113 -160h-113l-56 96l-55 -96h-114zM418 716q0 23 17 43q10 11 25 22q18 12 18 21q0 8 -5 13q-4 5 -10 5q-16 0 -51 -38l-54 49q56 62 105 62q38 0 64 -28q25 -27 25 -63q0 -48 -50 -82
q-13 -9 -11 -20v-19h-73v35z" />
    <glyph glyph-name="uni1EAB" unicode="&#x1eab;" horiz-adv-x="554" 
d="M494 286v-286h-104l-4 48q-67 -64 -167 -64q-77 0 -126 44q-52 47 -52 128q0 96 76 141q61 35 161 35q54 0 100 -9v10q0 103 -115 103q-43 0 -89 -13q-39 -12 -70 -29l-35 85q89 59 206 59q152 0 200 -112q19 -47 19 -140zM312 98q41 14 66 41v100q-40 9 -88 9
q-57 0 -88 -16q-41 -21 -41 -70q0 -76 85 -76q33 0 66 12zM212 752h112l113 -160h-113l-56 96l-55 -96h-114zM276 805l-14 9l-14 9q-15 8 -28 8q-30 0 -38 -49h-89q13 138 111 138q31 0 71 -26q40 -27 57 -27q30 0 38 49h90q-14 -138 -113 -138q-31 0 -71 27z" />
    <glyph glyph-name="uni1EAD" unicode="&#x1ead;" horiz-adv-x="554" 
d="M494 286v-286h-104l-4 48q-67 -64 -167 -64q-77 0 -126 44q-52 47 -52 128q0 96 76 141q61 35 161 35q54 0 100 -9v10q0 103 -115 103q-43 0 -89 -13q-39 -12 -70 -29l-35 85q89 59 206 59q152 0 200 -112q19 -47 19 -140zM312 98q41 14 66 41v100q-40 9 -88 9
q-57 0 -88 -16q-41 -21 -41 -70q0 -76 85 -76q33 0 66 12zM212 753h112l113 -160h-113l-56 96l-55 -96h-114zM202 -93h131v-135h-131v135z" />
    <glyph glyph-name="uni1EAF" unicode="&#x1eaf;" horiz-adv-x="554" 
d="M494 286v-286h-104l-4 48q-67 -64 -167 -64q-77 0 -126 44q-52 47 -52 128q0 96 76 141q61 35 161 35q54 0 100 -9v10q0 103 -115 103q-43 0 -89 -13q-39 -12 -70 -29l-35 85q89 59 206 59q152 0 200 -112q19 -47 19 -140zM312 98q41 14 66 41v100q-40 9 -88 9
q-57 0 -88 -16q-41 -21 -41 -70q0 -76 85 -76q33 0 66 12zM159 636q-46 44 -46 116h99q0 -81 55 -81q58 0 58 81h98q0 -72 -46 -116q-44 -41 -110 -41q-65 0 -108 41zM253 941h143l-94 -151h-98z" />
    <glyph glyph-name="uni1EB1" unicode="&#x1eb1;" horiz-adv-x="554" 
d="M494 286v-286h-104l-4 48q-67 -64 -167 -64q-77 0 -126 44q-52 47 -52 128q0 96 76 141q61 35 161 35q54 0 100 -9v10q0 103 -115 103q-43 0 -89 -13q-39 -12 -70 -29l-35 85q89 59 206 59q152 0 200 -112q19 -47 19 -140zM312 98q41 14 66 41v100q-40 9 -88 9
q-57 0 -88 -16q-41 -21 -41 -70q0 -76 85 -76q33 0 66 12zM159 636q-46 44 -46 116h99q0 -81 55 -81q58 0 58 81h98q0 -72 -46 -116q-44 -41 -110 -41q-65 0 -108 41zM134 941h144l56 -151h-98z" />
    <glyph glyph-name="uni1EB3" unicode="&#x1eb3;" horiz-adv-x="554" 
d="M494 286v-286h-104l-4 48q-67 -64 -167 -64q-77 0 -126 44q-52 47 -52 128q0 96 76 141q61 35 161 35q54 0 100 -9v10q0 103 -115 103q-43 0 -89 -13q-39 -12 -70 -29l-35 85q89 59 206 59q152 0 200 -112q19 -47 19 -140zM312 98q41 14 66 41v100q-40 9 -88 9
q-57 0 -88 -16q-41 -21 -41 -70q0 -76 85 -76q33 0 66 12zM159 636q-46 44 -46 116h99q0 -81 55 -81q58 0 58 81h98q0 -72 -46 -116q-44 -41 -110 -41q-65 0 -108 41zM232 800q0 23 17 43q10 11 25 22q18 12 18 21q0 8 -5 13q-4 5 -10 5q-16 0 -51 -38l-54 49q56 62 105 62
q38 0 64 -28q25 -27 25 -63q0 -48 -50 -82q-13 -9 -11 -20v-19h-73v35z" />
    <glyph glyph-name="uni1EB5" unicode="&#x1eb5;" horiz-adv-x="554" 
d="M494 286v-286h-104l-4 48q-67 -64 -167 -64q-77 0 -126 44q-52 47 -52 128q0 96 76 141q61 35 161 35q54 0 100 -9v10q0 103 -115 103q-43 0 -89 -13q-39 -12 -70 -29l-35 85q89 59 206 59q152 0 200 -112q19 -47 19 -140zM312 98q41 14 66 41v100q-40 9 -88 9
q-57 0 -88 -16q-41 -21 -41 -70q0 -76 85 -76q33 0 66 12zM159 636q-46 44 -46 116h99q0 -81 55 -81q58 0 58 81h98q0 -72 -46 -116q-44 -41 -110 -41q-65 0 -108 41zM267 815l-14 9l-14 9q-15 8 -28 8q-30 0 -38 -49h-89q13 138 111 138q31 0 71 -26q40 -27 57 -27
q30 0 38 49h90q-14 -138 -113 -138q-31 0 -71 27z" />
    <glyph glyph-name="uni1EB7" unicode="&#x1eb7;" horiz-adv-x="554" 
d="M494 286v-286h-104l-4 48q-67 -64 -167 -64q-77 0 -126 44q-52 47 -52 128q0 96 76 141q61 35 161 35q54 0 100 -9v10q0 103 -115 103q-43 0 -89 -13q-39 -12 -70 -29l-35 85q89 59 206 59q152 0 200 -112q19 -47 19 -140zM312 98q41 14 66 41v100q-40 9 -88 9
q-57 0 -88 -16q-41 -21 -41 -70q0 -76 85 -76q33 0 66 12zM159 636q-46 44 -46 116h99q0 -81 55 -81q58 0 58 81h98q0 -72 -46 -116q-44 -41 -110 -41q-65 0 -108 41zM202 -93h131v-135h-131v135z" />
    <glyph glyph-name="uni1EB9" unicode="&#x1eb9;" horiz-adv-x="566" 
d="M503 213h-337q22 -130 144 -130q80 0 149 55l42 -77q-85 -77 -202 -77q-116 0 -187 76q-72 76 -72 199q0 120 68 198q70 81 183 81q100 0 162 -62q65 -64 65 -171q0 -50 -15 -92zM404 301q1 5 1 19q0 56 -31 89q-31 31 -81 31q-52 0 -86 -36q-37 -37 -42 -103h239z
M214 -93h131v-135h-131v135z" />
    <glyph glyph-name="uni1EBB" unicode="&#x1ebb;" horiz-adv-x="566" 
d="M503 213h-337q22 -130 144 -130q80 0 149 55l42 -77q-85 -77 -202 -77q-116 0 -187 76q-72 76 -72 199q0 120 68 198q70 81 183 81q100 0 162 -62q65 -64 65 -171q0 -50 -15 -92zM404 301q1 5 1 19q0 56 -31 89q-31 31 -81 31q-52 0 -86 -36q-37 -37 -42 -103h239z
M243 632q0 23 17 43q10 11 25 22q18 12 18 21q0 8 -5 13q-4 5 -10 5q-16 0 -51 -38l-54 49q56 62 105 62q38 0 64 -28q25 -27 25 -63q0 -48 -50 -82q-13 -9 -11 -20v-19h-73v35z" />
    <glyph glyph-name="uni1EBD" unicode="&#x1ebd;" horiz-adv-x="566" 
d="M503 213h-337q22 -130 144 -130q80 0 149 55l42 -77q-85 -77 -202 -77q-116 0 -187 76q-72 76 -72 199q0 120 68 198q70 81 183 81q100 0 162 -62q65 -64 65 -171q0 -50 -15 -92zM404 301q1 5 1 19q0 56 -31 89q-31 31 -81 31q-52 0 -86 -36q-37 -37 -42 -103h239z
M279 641l-14 9l-14 9q-15 8 -28 8q-30 0 -38 -49h-89q13 138 111 138q31 0 71 -26q40 -27 57 -27q30 0 38 49h90q-14 -138 -113 -138q-31 0 -71 27z" />
    <glyph glyph-name="uni1EBF" unicode="&#x1ebf;" horiz-adv-x="566" 
d="M503 213h-337q22 -130 144 -130q80 0 149 55l42 -77q-85 -77 -202 -77q-116 0 -187 76q-72 76 -72 199q0 120 68 198q70 81 183 81q100 0 162 -62q65 -64 65 -171q0 -50 -15 -92zM404 301q1 5 1 19q0 56 -31 89q-31 31 -81 31q-52 0 -86 -36q-37 -37 -42 -103h239z
M223 764h112l113 -160h-113l-56 96l-55 -96h-114zM467 873h143l-94 -151h-98z" />
    <glyph glyph-name="uni1EC1" unicode="&#x1ec1;" horiz-adv-x="566" 
d="M503 213h-337q22 -130 144 -130q80 0 149 55l42 -77q-85 -77 -202 -77q-116 0 -187 76q-72 76 -72 199q0 120 68 198q70 81 183 81q100 0 162 -62q65 -64 65 -171q0 -50 -15 -92zM404 301q1 5 1 19q0 56 -31 89q-31 31 -81 31q-52 0 -86 -36q-37 -37 -42 -103h239z
M223 764h112l113 -160h-113l-56 96l-55 -96h-114zM324 887h144l56 -151h-98z" />
    <glyph glyph-name="uni1EC3" unicode="&#x1ec3;" horiz-adv-x="566" 
d="M503 213h-337q22 -130 144 -130q80 0 149 55l42 -77q-85 -77 -202 -77q-116 0 -187 76q-72 76 -72 199q0 120 68 198q70 81 183 81q100 0 162 -62q65 -64 65 -171q0 -50 -15 -92zM404 301q1 5 1 19q0 56 -31 89q-31 31 -81 31q-52 0 -86 -36q-37 -37 -42 -103h239z
M223 764h112l113 -160h-113l-56 96l-55 -96h-114zM421 769q0 23 17 43q10 11 25 22q18 12 18 21q0 8 -5 13q-4 5 -10 5q-16 0 -51 -38l-54 49q56 62 105 62q38 0 64 -28q25 -27 25 -63q0 -48 -50 -82q-13 -9 -11 -20v-19h-73v35z" />
    <glyph glyph-name="uni1EC5" unicode="&#x1ec5;" horiz-adv-x="566" 
d="M503 213h-337q22 -130 144 -130q80 0 149 55l42 -77q-85 -77 -202 -77q-116 0 -187 76q-72 76 -72 199q0 120 68 198q70 81 183 81q100 0 162 -62q65 -64 65 -171q0 -50 -15 -92zM404 301q1 5 1 19q0 56 -31 89q-31 31 -81 31q-52 0 -86 -36q-37 -37 -42 -103h239z
M223 764h112l113 -160h-113l-56 96l-55 -96h-114zM279 827l-14 9l-14 9q-15 8 -28 8q-30 0 -38 -49h-89q13 138 111 138q31 0 71 -26q40 -27 57 -27q30 0 38 49h90q-14 -138 -113 -138q-31 0 -71 27z" />
    <glyph glyph-name="uni1EC7" unicode="&#x1ec7;" horiz-adv-x="566" 
d="M503 213h-337q22 -130 144 -130q80 0 149 55l42 -77q-85 -77 -202 -77q-116 0 -187 76q-72 76 -72 199q0 120 68 198q70 81 183 81q100 0 162 -62q65 -64 65 -171q0 -50 -15 -92zM404 301q1 5 1 19q0 56 -31 89q-31 31 -81 31q-52 0 -86 -36q-37 -37 -42 -103h239z
M223 764h112l113 -160h-113l-56 96l-55 -96h-114zM214 -93h131v-135h-131v135z" />
    <glyph glyph-name="uni1EC9" unicode="&#x1ec9;" horiz-adv-x="246" 
d="M62 519h121v-519h-121v519zM87 632q0 23 17 43q10 11 25 22q18 12 18 21q0 8 -5 13q-4 5 -10 5q-16 0 -51 -38l-54 49q56 62 105 62q38 0 64 -28q25 -27 25 -63q0 -48 -50 -82q-13 -9 -11 -20v-19h-73v35z" />
    <glyph glyph-name="uni1ECB" unicode="&#x1ecb;" horiz-adv-x="246" 
d="M60 706h125v-115h-125v115zM62 519h121v-519h-121v519zM57 -93h131v-135h-131v135z" />
    <glyph glyph-name="uni1ECD" unicode="&#x1ecd;" horiz-adv-x="598" 
d="M111 62q-68 76 -68 199t67 199q70 78 189 78t188 -78q68 -75 68 -198t-68 -199q-69 -79 -188 -79t-188 78zM396 131q36 45 36 132q0 171 -133 171q-134 0 -134 -171q0 -86 38 -132q35 -43 96 -43q62 0 97 43zM234 -93h131v-135h-131v135z" />
    <glyph glyph-name="ohorn" unicode="&#x1a1;" horiz-adv-x="598" 
d="M396 131q36 45 36 132q0 171 -133 171q-134 0 -134 -171q0 -86 38 -132q35 -43 96 -43q62 0 97 43zM491 455q64 -74 64 -193q0 -123 -68 -199q-69 -79 -188 -79t-188 78q-68 76 -68 199t67 199q70 78 189 78q68 0 120 -26q51 5 51 81h98q0 -73 -46 -116q-14 -13 -31 -22z
" />
    <glyph glyph-name="uni1ECF" unicode="&#x1ecf;" horiz-adv-x="598" 
d="M111 62q-68 76 -68 199t67 199q70 78 189 78t188 -78q68 -75 68 -198t-68 -199q-69 -79 -188 -79t-188 78zM396 131q36 45 36 132q0 171 -133 171q-134 0 -134 -171q0 -86 38 -132q35 -43 96 -43q62 0 97 43zM263 632q0 23 17 43q10 11 25 22q18 12 18 21q0 8 -5 13
q-4 5 -10 5q-16 0 -51 -38l-54 49q56 62 105 62q38 0 64 -28q25 -27 25 -63q0 -48 -50 -82q-13 -9 -11 -20v-19h-73v35z" />
    <glyph glyph-name="uni1ED1" unicode="&#x1ed1;" horiz-adv-x="598" 
d="M111 62q-68 76 -68 199t67 199q70 78 189 78t188 -78q68 -75 68 -198t-68 -199q-69 -79 -188 -79t-188 78zM396 131q36 45 36 132q0 171 -133 171q-134 0 -134 -171q0 -86 38 -132q35 -43 96 -43q62 0 97 43zM243 764h112l113 -160h-113l-56 96l-55 -96h-114zM487 879
h143l-94 -151h-98z" />
    <glyph glyph-name="uni1ED3" unicode="&#x1ed3;" horiz-adv-x="598" 
d="M111 62q-68 76 -68 199t67 199q70 78 189 78t188 -78q68 -75 68 -198t-68 -199q-69 -79 -188 -79t-188 78zM396 131q36 45 36 132q0 171 -133 171q-134 0 -134 -171q0 -86 38 -132q35 -43 96 -43q62 0 97 43zM243 764h112l113 -160h-113l-56 96l-55 -96h-114zM348 896
h144l56 -151h-98z" />
    <glyph glyph-name="uni1ED5" unicode="&#x1ed5;" horiz-adv-x="598" 
d="M111 62q-68 76 -68 199t67 199q70 78 189 78t188 -78q68 -75 68 -198t-68 -199q-69 -79 -188 -79t-188 78zM396 131q36 45 36 132q0 171 -133 171q-134 0 -134 -171q0 -86 38 -132q35 -43 96 -43q62 0 97 43zM243 764h112l113 -160h-113l-56 96l-55 -96h-114zM451 759
q0 23 17 43q10 11 25 22q18 12 18 21q0 8 -5 13q-4 5 -10 5q-16 0 -51 -38l-54 49q56 62 105 62q38 0 64 -28q25 -27 25 -63q0 -48 -50 -82q-13 -9 -11 -20v-19h-73v35z" />
    <glyph glyph-name="uni1ED7" unicode="&#x1ed7;" horiz-adv-x="598" 
d="M111 62q-68 76 -68 199t67 199q70 78 189 78t188 -78q68 -75 68 -198t-68 -199q-69 -79 -188 -79t-188 78zM396 131q36 45 36 132q0 171 -133 171q-134 0 -134 -171q0 -86 38 -132q35 -43 96 -43q62 0 97 43zM243 764h112l113 -160h-113l-56 96l-55 -96h-114zM299 827
l-14 9l-14 9q-15 8 -28 8q-30 0 -38 -49h-89q13 138 111 138q31 0 71 -26q40 -27 57 -27q30 0 38 49h90q-14 -138 -113 -138q-31 0 -71 27z" />
    <glyph glyph-name="uni1EDD" unicode="&#x1edd;" horiz-adv-x="598" 
d="M396 131q36 45 36 132q0 171 -133 171q-134 0 -134 -171q0 -86 38 -132q35 -43 96 -43q62 0 97 43zM491 455q64 -74 64 -193q0 -123 -68 -199q-69 -79 -188 -79t-188 78q-68 76 -68 199t67 199q70 78 189 78q68 0 120 -26q51 5 51 81h98q0 -73 -46 -116q-14 -13 -31 -22z
M162 755h144l56 -151h-98z" />
    <glyph glyph-name="uni1ED9" unicode="&#x1ed9;" horiz-adv-x="598" 
d="M111 62q-68 76 -68 199t67 199q70 78 189 78t188 -78q68 -75 68 -198t-68 -199q-69 -79 -188 -79t-188 78zM396 131q36 45 36 132q0 171 -133 171q-134 0 -134 -171q0 -86 38 -132q35 -43 96 -43q62 0 97 43zM243 764h112l113 -160h-113l-56 96l-55 -96h-114zM234 -93
h131v-135h-131v135z" />
    <glyph glyph-name="uni1EDB" unicode="&#x1edb;" horiz-adv-x="598" 
d="M396 131q36 45 36 132q0 171 -133 171q-134 0 -134 -171q0 -86 38 -132q35 -43 96 -43q62 0 97 43zM491 455q64 -74 64 -193q0 -123 -68 -199q-69 -79 -188 -79t-188 78q-68 76 -68 199t67 199q70 78 189 78q68 0 120 -26q51 5 51 81h98q0 -73 -46 -116q-14 -13 -31 -22z
M307 755h143l-94 -151h-98z" />
    <glyph glyph-name="uni1EDF" unicode="&#x1edf;" horiz-adv-x="598" 
d="M396 131q36 45 36 132q0 171 -133 171q-134 0 -134 -171q0 -86 38 -132q35 -43 96 -43q62 0 97 43zM491 455q64 -74 64 -193q0 -123 -68 -199q-69 -79 -188 -79t-188 78q-68 76 -68 199t67 199q70 78 189 78q68 0 120 -26q51 5 51 81h98q0 -73 -46 -116q-14 -13 -31 -22z
M253 632q0 23 17 43q10 11 25 22q18 12 18 21q0 8 -5 13q-4 5 -10 5q-16 0 -51 -38l-54 49q56 62 105 62q38 0 64 -28q25 -27 25 -63q0 -48 -50 -82q-13 -9 -11 -20v-19h-73v35z" />
    <glyph glyph-name="uni1EE1" unicode="&#x1ee1;" horiz-adv-x="598" 
d="M396 131q36 45 36 132q0 171 -133 171q-134 0 -134 -171q0 -86 38 -132q35 -43 96 -43q62 0 97 43zM491 455q64 -74 64 -193q0 -123 -68 -199q-69 -79 -188 -79t-188 78q-68 76 -68 199t67 199q70 78 189 78q68 0 120 -26q51 5 51 81h98q0 -73 -46 -116q-14 -13 -31 -22z
M268 641l-14 9l-14 9q-15 8 -28 8q-30 0 -38 -49h-89q13 138 111 138q31 0 71 -26q40 -27 57 -27q30 0 38 49h90q-14 -138 -113 -138q-31 0 -71 27z" />
    <glyph glyph-name="uni1EE3" unicode="&#x1ee3;" horiz-adv-x="598" 
d="M396 131q36 45 36 132q0 171 -133 171q-134 0 -134 -171q0 -86 38 -132q35 -43 96 -43q62 0 97 43zM491 455q64 -74 64 -193q0 -123 -68 -199q-69 -79 -188 -79t-188 78q-68 76 -68 199t67 199q70 78 189 78q68 0 120 -26q51 5 51 81h98q0 -73 -46 -116q-14 -13 -31 -22z
M243 -93h131v-135h-131v135z" />
    <glyph glyph-name="uni1EE5" unicode="&#x1ee5;" horiz-adv-x="584" 
d="M522 0h-105l-7 74q-76 -90 -172 -90q-85 0 -132 54q-47 55 -47 157v324h121v-300q0 -128 92 -128q75 0 130 83v345h120v-519zM225 -93h131v-135h-131v135z" />
    <glyph glyph-name="uhorn" unicode="&#x1b0;" horiz-adv-x="584" 
d="M522 441v-441h-105l-7 74q-76 -90 -172 -90q-85 0 -132 54q-47 55 -47 157v324h121v-300q0 -128 92 -128q75 0 130 83v345h104q29 17 29 74h98q0 -73 -46 -116q-28 -26 -65 -36z" />
    <glyph glyph-name="uni1EE7" unicode="&#x1ee7;" horiz-adv-x="584" 
d="M522 0h-105l-7 74q-76 -90 -172 -90q-85 0 -132 54q-47 55 -47 157v324h121v-300q0 -128 92 -128q75 0 130 83v345h120v-519zM255 632q0 23 17 43q10 11 25 22q18 12 18 21q0 8 -5 13q-4 5 -10 5q-16 0 -51 -38l-54 49q56 62 105 62q38 0 64 -28q25 -27 25 -63
q0 -48 -50 -82q-13 -9 -11 -20v-19h-73v35z" />
    <glyph glyph-name="uni1EE9" unicode="&#x1ee9;" horiz-adv-x="584" 
d="M522 441v-441h-105l-7 74q-76 -90 -172 -90q-85 0 -132 54q-47 55 -47 157v324h121v-300q0 -128 92 -128q75 0 130 83v345h104q29 17 29 74h98q0 -73 -46 -116q-28 -26 -65 -36zM291 755h143l-94 -151h-98z" />
    <glyph glyph-name="uni1EEB" unicode="&#x1eeb;" horiz-adv-x="584" 
d="M522 441v-441h-105l-7 74q-76 -90 -172 -90q-85 0 -132 54q-47 55 -47 157v324h121v-300q0 -128 92 -128q75 0 130 83v345h104q29 17 29 74h98q0 -73 -46 -116q-28 -26 -65 -36zM144 755h144l56 -151h-98z" />
    <glyph glyph-name="uni1EED" unicode="&#x1eed;" horiz-adv-x="584" 
d="M522 441v-441h-105l-7 74q-76 -90 -172 -90q-85 0 -132 54q-47 55 -47 157v324h121v-300q0 -128 92 -128q75 0 130 83v345h104q29 17 29 74h98q0 -73 -46 -116q-28 -26 -65 -36zM263 632q0 23 17 43q10 11 25 22q18 12 18 21q0 8 -5 13q-4 5 -10 5q-16 0 -51 -38l-54 49
q56 62 105 62q38 0 64 -28q25 -27 25 -63q0 -48 -50 -82q-13 -9 -11 -20v-19h-73v35z" />
    <glyph glyph-name="uni1EEF" unicode="&#x1eef;" horiz-adv-x="584" 
d="M522 441v-441h-105l-7 74q-76 -90 -172 -90q-85 0 -132 54q-47 55 -47 157v324h121v-300q0 -128 92 -128q75 0 130 83v345h104q29 17 29 74h98q0 -73 -46 -116q-28 -26 -65 -36zM329 641l-14 9l-14 9q-15 8 -28 8q-30 0 -38 -49h-89q13 138 111 138q31 0 71 -26
q40 -27 57 -27q30 0 38 49h90q-14 -138 -113 -138q-31 0 -71 27z" />
    <glyph glyph-name="uni1EF1" unicode="&#x1ef1;" horiz-adv-x="584" 
d="M522 441v-441h-105l-7 74q-76 -90 -172 -90q-85 0 -132 54q-47 55 -47 157v324h121v-300q0 -128 92 -128q75 0 130 83v345h104q29 17 29 74h98q0 -73 -46 -116q-28 -26 -65 -36zM264 -93h131v-135h-131v135z" />
    <glyph glyph-name="uni1EF5" unicode="&#x1ef5;" horiz-adv-x="579" 
d="M518 519v-485q0 -128 -62 -198q-68 -76 -192 -76q-103 0 -190 50l31 95q76 -40 154 -40q77 0 114 45q32 42 32 118v24q-66 -68 -160 -68q-85 0 -133 53q-51 56 -51 164v318h120v-289q0 -139 91 -139q73 0 128 68v360h118zM526 -93h131v-135h-131v135z" />
    <glyph glyph-name="uni1EF7" unicode="&#x1ef7;" horiz-adv-x="579" 
d="M518 519v-485q0 -128 -62 -198q-68 -76 -192 -76q-103 0 -190 50l31 95q76 -40 154 -40q77 0 114 45q32 42 32 118v24q-66 -68 -160 -68q-85 0 -133 53q-51 56 -51 164v318h120v-289q0 -139 91 -139q73 0 128 68v360h118zM254 632q0 23 17 43q10 11 25 22q18 12 18 21
q0 8 -5 13q-4 5 -10 5q-16 0 -51 -38l-54 49q56 62 105 62q38 0 64 -28q25 -27 25 -63q0 -48 -50 -82q-13 -9 -11 -20v-19h-73v35z" />
    <glyph glyph-name="uni1EF9" unicode="&#x1ef9;" horiz-adv-x="579" 
d="M518 519v-485q0 -128 -62 -198q-68 -76 -192 -76q-103 0 -190 50l31 95q76 -40 154 -40q77 0 114 45q32 42 32 118v24q-66 -68 -160 -68q-85 0 -133 53q-51 56 -51 164v318h120v-289q0 -139 91 -139q73 0 128 68v360h118zM289 641l-14 9l-14 9q-15 8 -28 8q-30 0 -38 -49
h-89q13 138 111 138q31 0 71 -26q40 -27 57 -27q30 0 38 49h90q-14 -138 -113 -138q-31 0 -71 27z" />
    <glyph glyph-name="uniE00D" unicode="&#xe00d;" horiz-adv-x="0" 
d="M173 922h112l113 -160h-113l-56 96l-55 -96h-114zM441 991h143l-94 -151h-98z" />
    <glyph glyph-name="uniE00E" unicode="&#xe00e;" horiz-adv-x="0" 
d="M173 922h112l113 -160h-113l-56 96l-55 -96h-114zM289 1037h144l56 -151h-98z" />
    <glyph glyph-name="uniE00F" unicode="&#xe00f;" horiz-adv-x="0" 
d="M173 924h112l113 -160h-113l-56 96l-55 -96h-114zM251 989l-14 9l-14 9q-15 8 -28 8q-30 0 -38 -49h-89q13 138 111 138q31 0 71 -26q40 -27 57 -27q30 0 38 49h90q-14 -138 -113 -138q-31 0 -71 27z" />
    <glyph glyph-name="uniE010" unicode="&#xe010;" horiz-adv-x="0" 
d="M78 804q-46 44 -46 116h99q0 -81 55 -81q58 0 58 81h98q0 -72 -46 -116q-44 -41 -110 -41q-65 0 -108 41zM195 978l-14 9l-14 9q-15 8 -28 8q-30 0 -38 -49h-89q13 138 111 138q31 0 71 -26q40 -27 57 -27q30 0 38 49h90q-14 -138 -113 -138q-31 0 -71 27z" />
    <glyph glyph-name="uniE011" unicode="&#xe011;" horiz-adv-x="0" 
d="M78 804q-46 44 -46 116h99q0 -81 55 -81q58 0 58 81h98q0 -72 -46 -116q-44 -41 -110 -41q-65 0 -108 41zM189 1097h143l-94 -151h-98z" />
    <glyph glyph-name="uniE012" unicode="&#xe012;" horiz-adv-x="0" 
d="M78 804q-46 44 -46 116h99q0 -81 55 -81q58 0 58 81h98q0 -72 -46 -116q-44 -41 -110 -41q-65 0 -108 41zM39 1098h144l56 -151h-98z" />
    <glyph glyph-name="uniE013" unicode="&#xe013;" horiz-adv-x="0" 
d="M78 804q-46 44 -46 116h99q0 -81 55 -81q58 0 58 81h98q0 -72 -46 -116q-44 -41 -110 -41q-65 0 -108 41zM153 978q0 17.25 17 32.25q10 8.25 25 16.5q18 9 18 15.75q0 6 -5 9.75q-4 3.75 -10 3.75q-16 0 -51 -28.5l-54 36.75q56 46.5 105 46.5q38 0 64 -21
q25 -20.25 25 -47.25q0 -36 -50 -61.5q-13 -6.75 -11 -15v-14.25h-73v26.25z" />
    <glyph glyph-name="uniE014" unicode="&#xe014;" horiz-adv-x="0" 
d="M173 923h112l113 -160h-113l-56 96l-55 -96h-114zM388 871q0 23 17 43q10 11 25 22q18 12 18 21q0 8 -5 13q-4 5 -10 5q-16 0 -51 -38l-54 49q56 62 105 62q38 0 64 -28q25 -27 25 -63q0 -48 -50 -82q-13 -9 -11 -20v-19h-73v35z" />
    <glyph glyph-name="uniE015" unicode="&#xe015;" horiz-adv-x="426" 
d="M98 755h144l56 -151h-98z" />
    <glyph glyph-name="uniE016" unicode="&#xe016;" horiz-adv-x="440" 
d="M194 755h143l-94 -151h-98z" />
    <glyph glyph-name="uniE017" unicode="&#xe017;" horiz-adv-x="466" 
d="M173 764h112l113 -160h-113l-56 96l-55 -96h-114z" />
    <glyph glyph-name="uniE018" unicode="&#xe018;" horiz-adv-x="496" 
d="M78 753h118l52 -90l53 90h117l-112 -157h-116z" />
    <glyph glyph-name="uniE019" unicode="&#xe019;" horiz-adv-x="461" 
d="M230 641l-14 9l-14 9q-15 8 -28 8q-30 0 -38 -49h-89q13 138 111 138q31 0 71 -26q40 -27 57 -27q30 0 38 49h90q-14 -138 -113 -138q-31 0 -71 27z" />
    <glyph glyph-name="uniE01A" unicode="&#xe01a;" horiz-adv-x="461" 
d="M98 755h144l56 -151h-98z" />
    <glyph glyph-name="uniE01B" unicode="&#xe01b;" horiz-adv-x="444" 
d="M83 762h136l-77 -158h-101zM270 762h136l-78 -158h-100z" />
    <glyph glyph-name="uniE01C" unicode="&#xe01c;" horiz-adv-x="374" 
d="M78 636q-46 44 -46 116h99q0 -81 55 -81q58 0 58 81h98q0 -72 -46 -116q-44 -41 -110 -41q-65 0 -108 41z" />
    <glyph glyph-name="uniE01D" unicode="&#xe01d;" horiz-adv-x="374" 
d="M78 636q-46 44 -46 116h99q0 -81 55 -81q58 0 58 81h98q0 -72 -46 -116q-44 -41 -110 -41q-65 0 -108 41z" />
    <glyph glyph-name="uniE01E" unicode="&#xe01e;" horiz-adv-x="313" 
d="M86 603q-32 29 -32 77t32 78q29 27 71 27t71 -27q31 -29 31 -78q0 -48 -31 -77q-29 -27 -71 -27t-71 27zM193 680q0 48 -36 48q-37 0 -37 -48q0 -47 37 -47q36 0 36 47z" />
    <glyph glyph-name="uniE01F" unicode="&#xe01f;" horiz-adv-x="502" 
d="M192 632q0 23 17 43q10 11 25 22q18 12 18 21q0 8 -5 13q-4 5 -10 5q-16 0 -51 -38l-54 49q56 62 105 62q38 0 64 -28q25 -27 25 -63q0 -48 -50 -82q-13 -9 -11 -20v-19h-73v35z" />
    <glyph glyph-name="uniE020" unicode="&#xe020;" horiz-adv-x="500" 
d="M70 733h120v-119h-120v119zM310 733h120v-119h-120v119z" />
    <glyph glyph-name="gravecomb" unicode="&#x300;" horiz-adv-x="0" 
d="M-342 755h144l56 -151h-98z" />
    <glyph glyph-name="acutecomb" unicode="&#x301;" horiz-adv-x="0" 
d="M-278 755h143l-94 -151h-98z" />
    <glyph glyph-name="tildecomb" unicode="&#x303;" horiz-adv-x="0" 
d="M-188 641l-14 9l-14 9q-15 8 -28 8q-30 0 -38 -49h-89q13 138 111 138q31 0 71 -26q40 -27 57 -27q30 0 38 49h90q-14 -138 -113 -138q-31 0 -71 27z" />
    <glyph glyph-name="dotbelowcomb" unicode="&#x323;" horiz-adv-x="0" 
d="M-273 -93h131v-135h-131v135z" />
    <glyph glyph-name="uni031B" unicode="&#x31b;" horiz-adv-x="374" 
d="M186 671q58 0 58 81h98q0 -72 -46 -116q-44 -41 -110 -41v76z" />
    <glyph glyph-name="hookabovecomb" unicode="&#x309;" horiz-adv-x="502" 
d="M192 632q0 23 17 43q10 11 25 22q18 12 18 21q0 8 -5 13q-4 5 -10 5q-16 0 -51 -38l-54 49q56 62 105 62q38 0 64 -28q25 -27 25 -63q0 -48 -50 -82q-13 -9 -11 -20v-19h-73v35z" />
    </font>
</defs>
</svg>
